<mxfile host="app.diagrams.net" agent="Mozilla/5.0 (Windows NT 10.0; Win64; x64) AppleWebKit/537.36 (KHTML, like Gecko) Chrome/131.0.0.0 Safari/537.36" version="26.0.2">
  <diagram name="Page-1" id="64LrYP4SEoFKz5MfW7KX">
    <mxGraphModel grid="0" page="0" gridSize="10" guides="1" tooltips="1" connect="1" arrows="1" fold="1" pageScale="1" pageWidth="850" pageHeight="1100" math="0" shadow="0">
      <root>
        <mxCell id="0" />
        <mxCell id="1" parent="0" />
        <mxCell id="_ZAKxIK-aqUoFFupdhRM-1" value="" style="rounded=0;whiteSpace=wrap;html=1;" vertex="1" parent="1">
          <mxGeometry x="112" y="24" width="2300" height="1200" as="geometry" />
        </mxCell>
        <mxCell id="pTRy4IFYy6zHv_2fNpIq-7" value="" style="shape=image;verticalLabelPosition=bottom;labelBackgroundColor=default;verticalAlign=top;aspect=fixed;imageAspect=0;image=data:image/png,iVBORw0KGgoAAAANSUhEUgAADFAAAAm4CAYAAADrhLxWAAAACXBIWXMAAC4jAAAuIwF4pT92AAAgAElEQVR4nOzbAQ2DMAAAwTIJCMDKzEzWxEwLArBQVCwlnzsFb+C3OecAAAAAAHiy43P9xhjv1R0ABed331Y3AAAAAADACq/VAQAAAAAAAAAAAAAAAP9moAAAAAAAAAAAAAAAAPIMFAAAAAAAAAAAAAAAQJ6BAgAAAAAAAAAAAAAAyDNQAAAAAAAAAAAAAAAAeQYKAAAAAAAAAAAAAAAgz0ABAAAAAAAAAAAAAADkGSgAAAAAAAAAAAAAAIA8AwUAAAAAAAAAAAAAAJBnoAAAAAAAAAAAAAAAAPIMFAAAAAAAAAAAAAAAQJ6BAgAAAAAAAAAAAAAAyDNQAAAAAAAAAAAAAAAAeQYKAAAAAAAAAAAAAAAgz0ABAAAAAAAAAAAAAADkGSgAAAAAAAAAAAAAAIA8AwUAAAAAAAAAAAAAAJBnoAAAAAAAAAAAAAAAAPIMFAAAAAAAAAAAAAAAQJ6BAgAAAAAAAAAAAAAAyDNQAAAAAAAAAAAAAAAAeQYKAAAAAAAAAAAAAAAgz0ABAAAAAAAAAAAAAADkGSgAAAAAAAAAAAAAAIA8AwUAAAAAAAAAAAAAAJBnoAAAAAAAAAAAAAAAAPIMFAAAAAAAAAAAAAAAQJ6BAgAAAAAAAAAAAAAAyDNQAAAAAAAAAAAAAAAAeQYKAAAAAAAAAAAAAAAgz0ABAAAAAAAAAAAAAADkGSgAAAAAAAAAAAAAAIA8AwUAAAAAAAAAAAAAAJBnoAAAAAAAAAAAAAAAAPIMFAAAAAAAAAAAAAAAQJ6BAgAAAAAAAAAAAAAAyDNQAAAAAAAAAAAAAAAAeQYKAAAAAAAAAAAAAAAgz0ABAAAAAAAAAAAAAADkGSgAAAAAAAAAAAAAAIA8AwUAAAAAAAAAAAAAAJBnoAAAAAAAAAAAAAAAAPIMFAAAAAAAAAAAAAAAQJ6BAgAAAAAAAAAAAAAAyDNQAAAAAAAAAAAAAAAAeQYKAAAAAAAAAAAAAAAgz0ABAAAAAAAAAAAAAADkGSgAAAAAAAAAAAAAAIA8AwUAAAAAAAAAAAAAAJBnoAAAAAAAAAAAAAAAAPIMFAAAAAAAAAAAAAAAQJ6BAgAAAAAAAAAAAAAAyDNQAAAAAAAAAAAAAAAAeQYKAAAAAAAAAAAAAAAgz0ABAAAAAAAAAAAAAADkGSgAAAAAAAAAAAAAAIA8AwUAAAAAAAAAAAAAAJBnoAAAAAAAAAAAAAAAAPIMFAAAAAAAAAAAAAAAQJ6BAgAAAAAAAAAAAAAAyDNQAAAAAAAAAAAAAAAAeQYKAAAAAAAAAAAAAAAgz0ABAAAAAAAAAAAAAADkGSgAAAAAAAAAAAAAAIA8AwUAAAAAAAAAAAAAAJBnoAAAAAAAAAAAAAAAAPIMFAAAAAAAAAAAAAAAQJ6BAgAAAAAAAAAAAAAAyDNQAAAAAAAAAAAAAAAAeQYKAAAAAAAAAAAAAAAgz0ABAAAAAAAAAAAAAADkGSgAAAAAAAAAAAAAAIA8AwUAAAAAAAAAAAAAAJBnoAAAAAAAAAAAAAAAAPIMFAAAAAAAAAAAAAAAQJ6BAgAAAAAAAAAAAAAAyDNQAAAAAAAAAAAAAAAAeQYKAAAAAAAAAAAAAAAgz0ABAAAAAAAAAAAAAADkGSgAAAAAAAAAAAAAAIA8AwUAAAAAAAAAAAAAAJBnoAAAAAAAAAAAAAAAAPIMFAAAAAAAAAAAAAAAQJ6BAgAAAAAAAAAAAAAAyDNQAAAAAAAAAAAAAAAAeQYKAAAAAAAAAAAAAAAgz0ABAAAAAAAAAAAAAADkGSgAAAAAAAAAAAAAAIA8AwUAAAAAAAAAAAAAAJBnoAAAAAAAAAAAAAAAAPIMFAAAAAAAAAAAAAAAQJ6BAgAAAAAAAAAAAAAAyDNQAAAAAAAAAAAAAAAAeQYKAAAAAAAAAAAAAAAgz0ABAAAAAAAAAAAAAADkGSgAAAAAAAAAAAAAAIA8AwUAAAAAAAAAAAAAAJBnoAAAAAAAAAAAAAAAAPIMFAAAAAAAAAAAAAAAQJ6BAgAAAAAAAAAAAAAAyDNQAAAAAAAAAAAAAAAAeQYKAAAAAAAAAAAAAAAgz0ABAAAAAAAAAAAAAADkGSgAAAAAAAAAAAAAAIA8AwUAAAAAAAAAAAAAAJBnoAAAAAAAAAAAAAAAAPIMFAAAAAAAAAAAAAAAQJ6BAgAAAAAAAAAAAAAAyDNQAAAAAAAAAAAAAAAAeQYKAAAAAAAAAAAAAAAgz0ABAAAAAAAAAAAAAADkGSgAAAAAAAAAAAAAAIA8AwUAAAAAAAAAAAAAAJBnoAAAAAAAAAAAAAAAAPIMFAAAAAAAAAAAAAAAQJ6BAgAAAAAAAAAAAAAAyDNQAAAAAAAAAAAAAAAAeQYKAAAAAAAAAAAAAAAgz0ABAAAAAAAAAAAAAADkGSgAAAAAAAAAAAAAAIA8AwUAAAAAAAAAAAAAAJBnoAAAAAAAAAAAAAAAAPIMFAAAAAAAAAAAAAAAQJ6BAgAAAAAAAAAAAAAAyDNQAAAAAAAAAAAAAAAAeQYKAAAAAAAAAAAAAAAgz0ABAAAAAAAAAAAAAADkGSgAAAAAAAAAAAAAAIA8AwUAAAAAAAAAAAAAAJBnoAAAAAAAAAAAAAAAAPIMFAAAAAAAAAAAAAAAQJ6BAgAAAAAAAAAAAAAAyDNQAAAAAAAAAAAAAAAAeQYKAAAAAAAAAAAAAAAgz0ABAAAAAAAAAAAAAADkGSgAAAAAAAAAAAAAAIA8AwUAAAAAAAAAAAAAAJBnoAAAAAAAAAAAAAAAAPIMFAAAAAAAAAAAAAAAQJ6BAgAAAAAAAAAAAAAAyDNQAAAAAAAAAAAAAAAAeQYKAAAAAAAAAAAAAAAgz0ABAAAAAAAAAAAAAADkGSgAAAAAAAAAAAAAAIA8AwUAAAAAAAAAAAAAAJBnoAAAAAAAAAAAAAAAAPIMFAAAAAAAAAAAAAAAQJ6BAgAAAAAAAAAAAAAAyDNQAAAAAAAAAAAAAAAAeQYKAAAAAAAAAAAAAAAgz0ABAAAAAAAAAAAAAADkGSgAAAAAAAAAAAAAAIA8AwUAAAAAAAAAAAAAAJBnoAAAAAAAAAAAAAAAAPIMFAAAAAAAAAAAAAAAQJ6BAgAAAAAAAAAAAAAAyDNQAAAAAAAAAAAAAAAAeQYKAAAAAAAAAAAAAAAgz0ABAAAAAAAAAAAAAADkGSgAAAAAAAAAAAAAAIA8AwUAAAAAAAAAAAAAAJBnoAAAAAAAAAAAAAAAAPIMFAAAAAAAAAAAAAAAQJ6BAgAAAAAAAAAAAAAAyDNQAAAAAAAAAAAAAAAAeQYKAAAAAAAAAAAAAAAgz0ABAAAAAAAAAAAAAADkGSgAAAAAAAAAAAAAAIA8AwUAAAAAAAAAAAAAAJBnoAAAAAAAAAAAAAAAAPIMFAAAAAAAAAAAAAAAQJ6BAgAAAAAAAAAAAAAAyDNQAAAAAAAAAAAAAAAAeQYKAAAAAAAAAAAAAAAgz0ABAAAAAAAAAAAAAADkGSgAAAAAAAAAAAAAAIA8AwUAAAAAAAAAAAAAAJBnoAAAAAAAAAAAAAAAAPIMFAAAAAAAAAAAAAAAQJ6BAgAAAAAAAAAAAAAAyDNQAAAAAAAAAAAAAAAAeQYKAAAAAAAAAAAAAAAgz0ABAAAAAAAAAAAAAADkGSgAAAAAAAAAAAAAAIA8AwUAAAAAAAAAAAAAAJBnoAAAAAAAAAAAAAAAAPIMFAAAAAAAAAAAAAAAQJ6BAgAAAAAAAAAAAAAAyDNQAAAAAAAAAAAAAAAAeQYKAAAAAAAAAAAAAAAgz0ABAAAAAAAAAAAAAADkGSgAAAAAAAAAAAAAAIA8AwUAAAAAAAAAAAAAAJBnoAAAAAAAAAAAAAAAAPIMFAAAAAAAAAAAAAAAQJ6BAgAAAAAAAAAAAAAAyDNQAAAAAAAAAAAAAAAAeQYKAAAAAAAAAAAAAAAgz0ABAAAAAAAAAAAAAADkGSgAAAAAAAAAAAAAAIA8AwUAAAAAAAAAAAAAAJBnoAAAAAAAAAAAAAAAAPIMFAAAAAAAAAAAAAAAQJ6BAgAAAAAAAAAAAAAAyDNQAAAAAAAAAAAAAAAAeQYKAAAAAAAAAAAAAAAgz0ABAAAAAAAAAAAAAADkGSgAAAAAAAAAAAAAAIA8AwUAAAAAAAAAAAAAAJBnoAAAAAAAAAAAAAAAAPIMFAAAAAAAAAAAAAAAQJ6BAgAAAAAAAAAAAAAAyDNQAAAAAAAAAAAAAAAAeQYKAAAAAAAAAAAAAAAgz0ABAAAAAAAAAAAAAADkGSgAAAAAAAAAAAAAAIA8AwUAAAAAAAAAAAAAAJBnoAAAAAAAAAAAAAAAAPIMFAAAAAAAAAAAAAAAQJ6BAgAAAAAAAAAAAAAAyDNQAAAAAAAAAAAAAAAAeQYKAAAAAAAAAAAAAAAgz0ABAAAAAAAAAAAAAADkGSgAAAAAAAAAAAAAAIA8AwUAAAAAAAAAAAAAAJBnoAAAAAAAAAAAAAAAAPIMFAAAAAAAAAAAAAAAQJ6BAgAAAAAAAAAAAAAAyDNQAAAAAAAAAAAAAAAAeQYKAAAAAAAAAAAAAAAgz0ABAAAAAAAAAAAAAADkGSgAAAAAAAAAAAAAAIA8AwUAAAAAAAAAAAAAAJBnoAAAAAAAAAAAAAAAAPIMFAAAAAAAAAAAAAAAQJ6BAgAAAAAAAAAAAAAAyDNQAAAAAAAAAAAAAAAAeQYKAAAAAAAAAAAAAAAgz0ABAAAAAAAAAAAAAADkGSgAAAAAAAAAAAAAAIA8AwUAAAAAAAAAAAAAAJBnoAAAAAAAAAAAAAAAAPIMFAAAAAAAAAAAAAAAQJ6BAgAAAAAAAAAAAAAAyDNQAAAAAAAAAAAAAAAAeQYKAAAAAAAAAAAAAAAgz0ABAAAAAAAAAAAAAADkGSgAAAAAAAAAAAAAAIA8AwUAAAAAAAAAAAAAAJBnoAAAAAAAAAAAAAAAAPIMFAAAAAAAAAAAAAAAQJ6BAgAAAAAAAAAAAAAAyDNQAAAAAAAAAAAAAAAAeQYKAAAAAAAAAAAAAAAgz0ABAAAAAAAAAAAAAADkGSgAAAAAAAAAAAAAAIA8AwUAAAAAAAAAAAAAAJBnoAAAAAAAAAAAAAAAAPIMFAAAAAAAAAAAAAAAQJ6BAgAAAAAAAAAAAAAAyDNQAAAAAAAAAAAAAAAAeQYKAAAAAAAAAAAAAAAgz0ABAAAAAAAAAAAAAADkGSgAAAAAAAAAAAAAAIA8AwUAAAAAAAAAAAAAAJBnoAAAAAAAAAAAAAAAAPIMFAAAAAAAAAAAAAAAQJ6BAgAAAAAAAAAAAAAAyDNQAAAAAAAAAAAAAAAAeQYKAAAAAAAAAAAAAAAgz0ABAAAAAAAAAAAAAADkGSgAAAAAAAAAAAAAAIA8AwUAAAAAAAAAAAAAAJBnoAAAAAAAAAAAAAAAAPIMFAAAAAAAAAAAAAAAQJ6BAgAAAAAAAAAAAAAAyDNQAAAAAAAAAAAAAAAAeQYKAAAAAAAAAAAAAAAgz0ABAAAAAAAAAAAAAADkGSgAAAAAAAAAAAAAAIA8AwUAAAAAAAAAAAAAAJBnoAAAAAAAAAAAAAAAAPIMFAAAAAAAAAAAAAAAQJ6BAgAAAAAAAAAAAAAAyDNQAAAAAAAAAAAAAAAAeQYKAAAAAAAAAAAAAAAgz0ABAAAAAAAAAAAAAADkGSgAAAAAAAAAAAAAAIA8AwUAAAAAAAAAAAAAAJBnoAAAAAAAAAAAAAAAAPIMFAAAAAAAAAAAAAAAQJ6BAgAAAAAAAAAAAAAAyDNQAAAAAAAAAAAAAAAAeQYKAAAAAAAAAAAAAAAgz0ABAAAAAAAAAAAAAADkGSgAAAAAAAAAAAAAAIA8AwUAAAAAAAAAAAAAAJBnoAAAAAAAAAAAAAAAAPIMFAAAAAAAAAAAAAAAQJ6BAgAAAAAAAAAAAAAAyDNQAAAAAAAAAAAAAAAAeQYKAAAAAAAAAAAAAAAgz0ABAAAAAAAAAAAAAADkGSgAAAAAAAAAAAAAAIA8AwUAAAAAAAAAAAAAAJBnoAAAAAAAAAAAAAAAAPIMFAAAAAAAAAAAAAAAQJ6BAgAAAAAAAAAAAAAAyDNQAAAAAAAAAAAAAAAAeQYKAAAAAAAAAAAAAAAgz0ABAAAAAAAAAAAAAADkGSgAAAAAAAAAAAAAAIA8AwUAAAAAAAAAAAAAAJBnoAAAAAAAAAAAAAAAAPIMFAAAAAAAAAAAAAAAQJ6BAgAAAAAAAAAAAAAAyDNQAAAAAAAAAAAAAAAAeQYKAAAAAAAAAAAAAAAgz0ABAAAAAAAAAAAAAADkGSgAAAAAAAAAAAAAAIA8AwUAAAAAAAAAAAAAAJBnoAAAAAAAAAAAAAAAAPIMFAAAAAAAAAAAAAAAQJ6BAgAAAAAAAAAAAAAAyDNQAAAAAAAAAAAAAAAAeQYKAAAAAAAAAAAAAAAgz0ABAAAAAAAAAAAAAADkGSgAAAAAAAAAAAAAAIA8AwUAAAAAAAAAAAAAAJBnoAAAAAAAAAAAAAAAAPIMFAAAAAAAAAAAAAAAQJ6BAgAAAAAAAAAAAAAAyDNQAAAAAAAAAAAAAADc7N3BUVxXGobhzy7vu8sBHMgAMpAmApQBLM4eZaDOwATgKnUG4wxMBiIElwM4NRl4FrQ8mhnLAgk4t//7PDsK6PsVGzb3rR8oT0ABAAAAAAAAAAAAAACUJ6AAAAAAAAAAAAAAAADKE1AAAAAAAAAAAAAAAADlCSgAAAAAAAAAAAAAAIDyBBQAAAAAAAAAAAAAAEB5AgoAAAAAAAAAAAAAAKC8H2YPAAAAAAB4gH2S28kbAAAAAAAAgCP23R9//DF7AwAAAAAAAAAAAAAAwLP6fvYAAAAAAAAAAAAAAACA5yagAAAAAAAAAAAAAAAAyhNQAAAAAAAAAAAAAAAA5QkoAAAAAAAAAAAAAACA8gQUAAAAAAAAAAAAAABAeQIKAAAAAAAAAAAAAACgPAEFAAAAAAAAAAAAAABQnoACAAAAAAAAAAAAAAAoT0ABAAAAAAAAAAAAAACUJ6AAAAAAAAAAAAAAAADKE1AAAAAAAAAAAAAAAADlCSgAAAAAAAAAAAAAAIDyBBQAAAAAAAAAAAAAAEB5AgoAAAAAAAAAAAAAAKA8AQUAAAAAAAAAAAAAAFCegAIAAAAAAAAAAAAAAChPQAEAAAAAAAAAAAAAAJQnoAAAAAAAAAAAAAAAAMoTUAAAAAAAAAAAAAAAAOUJKAAAAAAAAAAAAAAAgPIEFAAAAAAAAAAAAAAAQHkCCgAAAAAAAAAAAAAAoDwBBQAAAAAAAAAAAAAAUJ6AAgAAAAAAAAAAAAAAKE9AAQAAAAAAAAAAAAAAlCegAAAAAAAAAAAAAAAAyhNQAAAAAAAAAAAAAAAA5QkoAAAAAAAAAAAAAACA8gQUAAAAAAAAAAAAAABAeQIKAAAAAAAAAAAAAACgPAEFAAAAAAAAAAAAAABQnoACAAAAAAAAAAAAAAAoT0ABAAAAAAAAAAAAAACUJ6AAAAAAAAAAAAAAAADKE1AAAAAAAAAAAAAAAADlCSgAAAAAAAAAAAAAAIDyBBQAAAAAAAAAAAAAAEB5AgoAAAAAAAAAAAAAAKA8AQUAAAAAAAAAAAAAAFCegAIAAAAAAAAAAAAAAChPQAEAAAAAAAAAAAAAAJQnoAAAAAAAAAAAAAAAAMoTUAAAAAAAAAAAAAAAAOUJKAAAAAAAAAAAAAAAgPIEFAAAAAAAAAAAAAAAQHkCCgAAAAAAAAAAAAAAoDwBBQAAAAAAAAAAAAAAUJ6AAgAAAAAAAAAAAAAAKE9AAQAAAAAAAAAAAAAAlCegAAAAAAAAAAAAAAAAyhNQAAAAAAAAAAAAAAAA5QkoAAAAAAAAAAAAAACA8gQUAAAAAAAAAAAAAABAeQIKAAAAAAAAAAAAAACgPAEFAAAAAAAAAAAAAABQnoACAAAAAAAAAAAAAAAoT0ABAAAAAAAAAAAAAACUJ6AAAAAAAAAAAAAAAADKE1AAAAAAAAAAAAAAAADlCSgAAAAAAAAAAAAAAIDyBBQAAAAAAAAAAAAAAEB5AgoAAAAAAAAAAAAAAKA8AQUAAAAAAAAAAAAAAFCegAIAAAAAAAAAAAAAAChPQAEAAAAAAAAAAAAAAJQnoAAAAAAAAAAAAAAAAMoTUAAAAAAAAAAAAAAAAOUJKAAAAAAAAAAAAAAAgPIEFAAAAAAAAAAAAAAAQHkCCgAAAAAAAAAAAAAAoDwBBQAAAAAAAAAAAAAAUJ6AAgAAAAAAAAAAAAAAKE9AAQAAAAAAAAAAAAAAlCegAAAAAAAAAAAAAAAAyhNQAAAAAAAAAAAAAAAA5QkoAAAAAAAAAAAAAACA8gQUAAAAAAAAAAAAAABAeQIKAAAAAAAAAAAAAACgPAEFAAAAAAAAAAAAAABQnoACAAAAAAAAAAAAAAAoT0ABAAAAAAAAAAAAAACUJ6AAAAAAAAAAAAAAAADKE1AAAAAAAAAAAAAAAADlCSgAAAAAAAAAAAAAAIDyBBQAAAAAAAAAAAAAAEB5AgoAAAAAAAAAAAAAAKA8AQUAAAAAAAAAAAAAAFDeD7MHAMBMrY9tkvPZOwCKuPv95x//NXsESevjNMnp5BkAJfz+84+3szdwr/VxnmQ7ewdABf6/AQAAAACwVgIKANbuPMmvs0cAFPGPJLezR5AkuUrybvYIgCK+mz2AP90keTV7BEAR/r8BAAAAALBK388eAAAAAAAAAAAAAAAA8NwEFAAAAAAAAAAAAAAAQHkCCgAAAAAAAAAAAAAAoDwBBQAAAAAAAAAAAAAAUJ6AAgAAAAAAAAAAAAAAKE9AAQAAAAAAAAAAAAAAlCegAAAAAAAAAAAAAAAAyhNQAAAAAAAAAAAAAAAA5QkoAAAAAAAAAAAAAACA8gQUAAAAAAAAAAAAAABAeQIKAAAAAAAAAAAAAACgPAEFAAAAAAAAAAAAAABQnoACAAAAAAAAAAAAAAAoT0ABAAAAAAAAAAAAAACUJ6AAAAAAAAAAAAAAAADKE1AAAAAAAAAAAAAAAADlCSgAAAAAAAAAAAAAAIDyBBQAAAAAAAAAAAAAAEB5AgoAAAAAAAAAAAAAAKA8AQUAAAAAAAAAAAAAAFCegAIAAAAAAAAAAAAAAChPQAEAAAAAAAAAAAAAAJQnoAAAAAAAAAAAAAAAAMoTUAAAAAAAAAAAAAAAAOUJKAAAAAAAAAAAAAAAgPIEFAAAAAAAAAAAAAAAQHkCCgAAAAAAAAAAAAAAoDwBBQAAAAAAAAAAAAAAUJ6AAgAAAAAAAAAAAAAAKE9AAQAAAAAAAAAAAAAAlCegAAAAAAAAAAAAAAAAyhNQAAAAAAAAAAAAAAAA5QkoAAAAAAAAAAAAAACA8gQUAAAAAAAAAAAAAABAeQIKAAAAAAAAAAAAAACgPAEFAAAAAAAAAAAAAABQnoACAAAAAAAAAAAAAAAoT0ABAAAAAAAAAAAAAACUJ6AAAAAAAAAAAAAAAADKE1AAAAAAAAAAAAAAAADlCSgAAAAAAAAAAAAAAIDyBBQAAAAAAAAAAAAAAEB5AgoAAAAAAAAAAAAAAKA8AQUAAAAAAAAAAAAAAFCegAIAAAAAAAAAAAAAAChPQAEAAAAAAAAAAAAAAJQnoAAAAAAAAAAAAAAAAMoTUAAAAAAAAAAAAAAAAOUJKAAAAAAAAAAAAAAAgPIEFAAAAAAAAAAAAAAAQHkCCgAAAAAAAAAAAAAAoDwBBQAAAAAAAAAAAAAAUJ6AAgAAAAAAAAAAAAAAKE9AAQAAAAAAAAAAAAAAlCegAAAAAAAAAAAAAAAAyhNQAAAAAAAAAAAAAAAA5QkoAAAAAAAAAAAAAACA8gQUAAAAAAAAAAAAAABAeQIKAAAAAAAAAAAAAACgPAEFAAAAAAAAAAAAAABQnoACAAAAAAAAAAAAAAAoT0ABAAAAAAAAAAAAAACUJ6AAAAAAAAAAAAAAAADKE1AAAAAAAAAAAAAAAADlCSgAAAAAAAAAAAAAAIDyBBQAAAAAAAAAAAAAAEB5AgoAAAAAAAAAAAAAAKA8AQUAAAAAAAAAAAAAAFCegAIAAAAAAAAAAAAAAChPQAEAAAAAAAAAAAAAAJQnoAAAAAAAAAAAAAAAAMoTUAAAAAAAAAAAAAAAAOUJKAAAAAAAAAAAAAAAgPIEFAAAAAAAAAAAAAAAQHkCCgAAAAAAAAAAAAAAoDwBBQAAAAAAAAAAAAAAUJ6AAgAAAAAAAAAAAAAAKE9AAQAAAAAAAAAAAAAAlCegAAAAAAAAAAAAAAAAyhNQAAAAAAAAAAAAAAAA5QkoAAAAAAAAAAAAAACA8gQUAAAAAAAAAAAAAABAeQIKAAAAAAAAAAAAAACgPAEFAAAAAAAAAAAAAABQnoACAAAAAAAAAAAAAAAoT0ABAAAAAAAAAAAAAACUJ6AAAAAAAAAAAAAAAADKE1AAAAAAAAAAAAAAAADlCSgAAAAAAAAAAAAAAIDyBBQAAAAAAAAAAAAAAEB5AgoAAAAAAAAAAAAAAKA8AQUAAAAAAAAAAAAAAFCegAIAAAAAAAAAAAAAAChPQAEAAAAAAAAAAAAAAJQnoAAAAAAAAAAAAAAAAMoTUAAAAAAAAAAAAAAAAOUJKAAAAAAAAAAAAAAAgPIEFAAAAAAAAAAAAAAAQHkCCgAAAAAAAAAAAAAAoDwBBQAAAAAAAAAAAAAAUJ6AAgAAAAAAAAAAAAAAKE9AAQAAAAAAAAAAAAAAlCegAAAAAAAAAAAAAAAAyhNQAAAAAAAAAAAAAAAA5QkoAAAAAAAAAAAAAACA8gQUAAAAAAAAAAAAAABAeQIKAAAAAAAAAAAAAACgPAEFAAAAAAAAAAAAAABQnoACAAAAAAAAAAAAAAAoT0ABAAAAAAAAAAAAAACUJ6AAAAldt/cAACAASURBVAAAAAAAAAAAAADKE1AAAAAAAAAAAAAAAADlCSgAAAAAAAAAAAAAAIDyBBQAAAAAAAAAAAAAAEB5AgoAAAAAAAAAAAAAAKA8AQUAAAAAAAAAAAAAAFCegAIAAAAAAAAAAAAAAChPQAEAAAAAAAAAAAAAAJQnoAAAAAAAAAAAAAAAAMoTUAAAAAAAAAAAAAAAAOUJKAAAAAAAAAAAAAAAgPIEFAAAAAAAAAAAAAAAQHkCCgAAAAAAAAAAAAAAoDwBBQAAAAAAAAAAAAAAUJ6AAgAAAAAAAAAAAAAAKE9AAQAAAAAAAAAAAAAAlCegAAAAAAAAAAAAAAAAyhNQAAAAAAAAAAAAAAAA5QkoAAAAAAAAAAAAAACA8gQUAAAAAAAAAAAAAABAeQIKAAAAAAAAAAAAAACgPAEFAAAAAAAAAAAAAABQnoACAAAAAAAAAAAAAAAoT0ABAAAAAAAAAAAAAACUJ6AAAAAAAAAAAAAAAADKE1AAAAAAAAAAAAAAAADlCSgAAAAAAAAAAAAAAIDyBBQAAAAAAAAAAAAAAEB5AgoAAAAAAAAAAAAAAKA8AQUAAAAAAAAAAAAAAFCegAIAAAAAAAAAAAAAAChPQAEAAAAAAAAAAAAAAJQnoAAAAAAAAAAAAAAAAMoTUAAAAAAAAAAAADxS6+Nt6+O31sfr2VsAAICHEVAAAAAAAAAAAAA8QuvjNMkuyUmSX1sfN62P7dRRAADAFwkoAAAAAAAAAAAAHmefZPPJ19dJ7lyjAACAZRNQAAAAAAAAAAAAPFDr422SV3/xLdcoAABg4QQUAAAAAAAAAAAAD9D6OE2y+8KPuUYBAAALJaAAAAAAAAAAAAB4mH2SzQN+zjUKAABYIAEFAAAAAAAAAADAF7Q+rpK8euSvuUYBAAALIqAAAAAAAAAAAAD4G4crEjdf+euuUQAAwEIIKAAAAAAAAAAAAP7ePsnmGz/DNQoAAJhMQAEAAAAAAAAAAPAZrY83SS6e6ONcowAAgIkEFAAAAAAAAAAAAH/hEDnsn+GjXaMAAIAJBBQAAAAAAAAAAAB/bZ9k80yf7RoFAAC8MAEFAAAAAAAAAADA/2h9vEly8QKP+niN4vwFngUAAKsmoAAAAAAAAAAAAPjE4SLE/gUfeZLkQ+tj94LPBACA1RFQAAAAAAAAAAAA/Ld9ks2E575rfbhGAQAAz0RAAQAAAAAAAAAAcND6eJPkYuKEs7hGAQAAz0JAAQAAAAAAAAAAkKT1sc399YklcI0CAACemIACAAAAAAAAAADg3j7JZvaIT7hGAQAAT0hAAQAAAAAAAAAArF7r402Si9k7PsM1CgAAeAICCgAAAAAAAAAAYNVaH9vcX59YMtcoAADgGwkoAAAAAAAAAACAtdsn2cwe8UCuUQAAwFcSUAAAAAAAAAAAAKvV+niT5GL2jkdyjQIAAL6CgAIAAAAAAAAAAFil1sc299cnjpVrFAAA8AgCCgAAAAAAAAAAYK32STazR3wj1ygAAOCBBBQAAAAAAAAAAMDqtD7eJLmYveMJuUYBAABfIKAAAAAAAAAAAABWpfWxzf31iWrOkty2Pt7OHgIAAEskoAAAAAAAAAAAANZml2Qze8Qz2ST5qfVx2/o4nT0GAACWREABAAAAAAAAAACsRuvjdZLr2TtewKskd65RAADAfwgoAAAAAAAAAACAVWh9bJPsZ+94Qa5RAADAJwQUAAAAAAAAAADAWuySnMweMYFrFAAAEAEFAAAAAAAAAACwAq2P10muZ++YyDUKAABWT0ABAAAAAAAAAACU1vrYJtnP3rEQrlEAALBaAgoAAAAAAAAAAKC6XZKT2SMWxDUKAABWSUABAAAAAAAAAACU1fp4neR69o6Fco0CAIBVEVAAAAAAAAAAAAAltT62Sfazdyzcp9cotrPHAADAcxJQAAAAAAAAAAAAVe2SnMwecSQ+XqM4nz0EAACei4ACAAAAAAAAAAAop/XxOsn17B1H5iTJh9bH1ewhAADwHAQUAAAAAAAAAABAKa2PbZL97B1H7H3rYz97BAAAPDUBBQAAAAAAAAAAUM0u99cU+HqXrY+7Q4wCAAAlCCgAAAAAAAAAAIAyWh+vk1zP3lHEWZLfDn9TAAA4egIKAAAAAAAAAACghMO1hP3sHcVskvza+ng7ewgAAHwrAQUAAAAAAAAAAFDFLsnJ7BFF/dT62B8iFQAAOEoCCgAAAAAAAAAA4Oi1Pl4nuZ69o7jLJLetj9PZQwAA4GsIKAAAAAAAAAAAgKN2uIqwn71jJc6S3LU+zmcPAQCAxxJQAAAAAAAAAAAAx26X5GT2iBXZJPnQ+riaPQQAAB5DQAEAAAAAAAAAABytwyWE69k7Vup962M/ewQAADyUgAIAAAAAAAAAADhm+9kDVu6y9XHX+tjOHgIAAF8ioAAAAAAAAAAAAI5S62OX5Gz2DnKW5O5wDQQAABZLQAEAAAAAAAAAABydw8v672bv4E8nSW5bH1ezhwAAwOcIKAAAAAAAAAAAgGO0nz2A/7NJ8v5wGQQAABZHQAEAAAAAAAAAAByVwwv6Z7N38FnvWh+/tD62s4cAAMCnBBQAAAAAAAAAAMDRaH2cJ3k3ewdfdJHktvVxOnsIAAB8JKAAAAAAAAAAAACOyX72AB7sLMndIXoBAIDpBBQAAAAAAAAAAMBRaH3scv9SPsdjk+RD6+Nq9hAAABBQAAAAAAAAAAAAi3e4YvBu9g6+2vtDAAMAANMIKAAAAAAAAAAAgGNwM3sA3+xd62Pf+tjOHgIAwDoJKAAAAAAAAAAAgEVrfbxN8mr2Dp7EZZJbEQUAADMIKAAAAAAAAAAAgMVqfZwm2U2ewdM6S/Jb6+N89hAAANZFQAEAAAAAAAAAACzZTZLN7BE8uU3uL1G8mT0EAID1EFAAAAAAAAAAAACLdHi5/mL2Dp7NJsk/Wx9Xs4cAALAOAgoAAAAAAAAAAGBxWh/bJPvZO3gR71sf+9kjAACoT0ABAAAAAAAAAAAs0S73FwpYh8vWxy+HcAYAAJ6FgAIAAAAAAAAAAFiU1sd5kuvZO3hxF0luRRQAADwXAQUAAAAAAAAAALA0+9kDmOYsyd0hogEAgCcloAAAAAAAAAAAABaj9fE29y/Rs14nub9EIaIAAOBJCSgAAAAAAAAAAIBFaH1sk+xm72ARNkk+tD6uZg8BAKAOAQUAAAAAAAAAALAUN7l/cR4+en+4SgIAAN9MQAEAAAAAAAAAAEzX+nid5HL2Dhbpp9bHfvYIAACOn4ACAAAAAAAAAABYgpvZA1i0y9bHL62P7ewhAAAcLwEFAAAAAAAAAAAwVevjbZKz2TtYvIsktyIKAAC+loACAAAAAAAAAACY5vAy/G72Do7GWe4jitPZQwAAOD4CCgAAAAAAAAAAYKabJJvZIzgqZ0nuWh/ns4cAAHBcBBQAAAAAAAAAAMAUhxfgL2fv4Chtcn+JQkQBAMCDCSgAAAAAAAAAAIBZbmYP4KhtknxofVzNHgIAwHEQUAAAAAAAAAAAAC/u8NL7q9k7+Dd793LcVpalYXSrouZAyIADtAWAB7xlgdgWEIMzT3oglAVFAxQhmqCyoNUWdHpQGTLgVJYF7AGZT4kiSOLefR9rjTX4JgIipPNjz8JHIwoAAE5hQAEAAAAAAAAAAAyq1LaOiGN2B7PysdTmogkAAN9lQAEAAAAAAAAAAAztOiI22RHMzg+lttvsCAAAxsuAAgAAAAAAAAAAGEypbRv3Awrow5URBQAAjzGgAAAAAAAAAAAAhnSMiFV2BLN2VWr7sdS2zg4BAGBcDCgAAAAAAAAAAIBBlNq6iLjK7mARdhHx2YgCAIDfM6AAAAAAAAAAAACGcswOYFGMKAAA+AMDCgAAAAAAAAAAoHeltsuIuMjuYHF2EfFjqW2fHQIAQD4DCgAAAAAAAAAAYAg32QEs1ibuL1EYUQAALJwBBQAAAAAAAAAA0KtS2yHuH7FDllUYUQAALJ4BBQAAAAAAAAAA0JtS2zpcn2AcjCgAABbOgAIAAAAAAAAAAOjTddw/XIcx+GVEccgOAQBgeAYUAAAAAAAAAABALx6uT1xnd8CfrCLioxEFAMDyGFAAAAAAAAAAAAB9uQnXJxgvIwoAgIUxoAAAAAAAAAAAAM6u1LaNiKvsDniCEQUAwIIYUAAAAAAAAAAAAH04ZgfAiYwoAAAWwoACAAAAAAAAAAA4K9cnmCAjCgCABTCgAAAAAAAAAAAAzu02OwBe4GOp7SY7AgCA/hhQAAAAAAAAAAAAZ1Nq6yLiIrsDXuiHUtttdgQAAP0woAAAAAAAAAAAAM7pmB0Ar3RlRAEAME8GFAAAAAAAAAAAwFm4PsGMGFEAAMyQAQUAAAAAAAAAAHAux+wAOCMjCgCAmTGgAAAAAAAAAAAAXs31CWbKiAIAYEYMKAAAAAAAAAAAgHM4ZgdAT4woAABmwoACAAAAAAAAAAB4FdcnWAAjCgCAGTCgAAAAAAAAAAAAXuuYHQADMKIAAJg4AwoAAAAAAAAAAODFXJ9gYYwoAAAmzIACAAAAAAAAAAB4jWN2AAzMiAIAYKIMKAAAAAAAAAAAgBdxfYIFM6IAAJggAwoAAAAAAAAAAOCljtkBkMiIAgBgYgwoAAAAAAAAAACAZ3N9AiLCiAIAYFIMKAAAAAAAAAAAgJc4ZgfASFyV2o7ZEQAAPM2AAgAAAAAAAAAAeBbXJ+Ar70tth+wIAAC+z4ACAAAAAAAAAAB4rmN2AIzQRyMKAIBxM6AAAAAAAAAAAABOVmrbhusT8BgjCgCAETOgAAAAAAAAAAAAnuOYHQAjZ0QBADBSBhQAAAAAAAAAAMBJHq5PXGV3wAQYUQAAjJABBQAAAAAAAAAAcKpjdgBMyMdSW5cdAQDAbwwoAAAAAAAAAACAJ5Xa1uH6BDzXp1LbPjsCAIB7BhQAAAAAAAAAAMAprrMDYIJWEfHZiAIAYBwMKAAAAAAAAAAAgO96uD5hQAEvY0QBADASBhQAAAAAAAAAAMBTDnH/CBx4mV9GFOvsEACAJTOgAAAAAAAAAAAAnuL6BLyeEQUAQDIDCgAAAAAAAAAA4FGltkNEbLI7YCZ2YUQBAJDGgAIAAAAAAAAAAPge1yfgvHYR8Tk7AgBgiQwoAAAAAAAAAACAbyq1dXH/2Bs4r12p7TY7AgBgaQwoAAAAAAAAAACAx7g+Af25MqIAABiWAQUAAAAAAAAAAPCVUts2It5ld8DMXZXajtkRAABLYUABAAAAAAAAAAB8yzE7ABbifantkB0BALAEBhQAAAAAAAAAAMAflNrWEXGZ3QEL8tGIAgCgfwYUAAAAAAAAAADAnx0iYpUdAQvzsdS2z44AAJgzAwoAAAAAAAAAAODPrrMDYKE+G1EAAPTHgAIAAAAAAAAAAPhVqe0yIjbZHbBQq7gfUayzQwAA5siAAgAAAAAAAAAA+D3XJyCXEQUAQE8MKAAAAAAAAAAAgIiIKLVtI+IiuwOIXUR8yo4AAJgbAwoAAAAAAAAAAOAXx+wA4FcXpbbb7AgAgDkxoAAAAAAAAAAAAKLUto6Iy+wO4A+uSm3H7AgAgLkwoAAAAAAAAAAAACLuxxOr7AjgK+9LbYfsCACAOTCgAAAAAAAAAAAAIiKO2QHAoz6W2rrsCACAqTOgAAAAAAAAAACAhXt4mL3J7gC+61OpbZ8dAQAwZQYUAAAAAAAAAADAITsAeNIq7kcU6+wQAICpMqAAAAAAAAAAAIAFe3iMfZXdAZxkExGfjSgAAF7GgAIAAAAAAAAAAJbtOjsAeJZdRNxkRwAATJEBBQAAAAAAAAAALNshOwB4tqtS2zE7AgBgagwoAAAAAAAAAABgoUptlxGxye4AXuR9qe2QHQEAMCUGFAAAAAAAAAAAsFyH7ADgVT6W2vbZEQAAU2FAAQAAAAAAAAAAC1Rq20bEu+wO4NU+P/x9BgDgCQYUAAAAAAAAAACwTJfZAcBZrCLiU6ltnR0CADB2BhQAAAAAAAAAALBM19kBwNnsIuI2OwIAYOwMKAAAAAAAAAAAYGFKbV1EbLI7gLN6V2o7ZkcAAIyZAQUAAAAAAAAAACzPITsA6MX7UtshOwIAYKwMKAAAAAAAAAAAYEFKbeuIuMruAHpzU2rbZ0cAAIyRAQUAAAAAAAAAACzLZXYA0KtVRHx6GEsBAPA7BhQAAAAAAAAAALAs19kBQO82EfE5OwIAYGwMKAAAAAAAAAAAYCFKbfuI2GV3AIPYldpusyMAAMbEgAIAAAAAAAAAAJbjkB0ADOqq1HbIjgAAGAsDCgAAAAAAAAAAWI5DdgAwuI8P12cAABbPgAIAAAAAAAAAABag1HYZEavsDiDF51LbOjsCACCbAQUAAAAAAAAAACzDZXYAkGYVEZ+yIwAAshlQAAAAAAAAAADAzD388vxVdgeQ6qLUdpMdAQCQyYACAAAAAAAAAADmz/UJICLih1LbITsCACCLAQUAAAAAAAAAAMzfdXYAMBo3pbZ9dgQAQAYDCgAAAAAAAAAAmLFS2zYidtkdwGisIuK21LbODgEAGJoBBQAAAAAAAAAAzNtldgAwOruIuM2OAAAYmgEFAAAAAAAAAADM23V2ADBK70ptPh8AgEUxoAAAAAAAAAAAgJkqte0jYpPdAYzWPx4+JwAAFsGAAgAAAAAAAAAA5uuQHQCM3qdS2zo7AgBgCAYUAAAAAAAAAAAwX5fZAcDobSLiNjsCAGAIBhQAAAAAAAAAADBDpbYu7h9GAzzlXantmB0BANA3AwoAAAAAAAAAAJinQ3YAMCnvH4ZXAACzZUABAAAAAAAAAADzdJkdAEzOp1LbOjsCAKAvBhQAAAAAAAAAADAzpbbLiFhldwCTs4qI2+wIAIC+GFAAAAAAAAAAAMD8uD4BvNS7Utt1dgQAQB8MKAAAAAAAAAAAYH4MKIDX+EepbZ8dAQBwbgYUAAAAAAAAAAAwI6W2y4hYZXcAk/ep1LbOjgAAOCcDCgAAAAAAAAAAmBfXJ4Bz2ETEbXYEAMA5GVAAAAAAAAAAAMC8GFAA5/Ku1HbIjgAAOBcDCgAAAAAAAAAAmIlS22VErLI7gFm5KbVtsyMAAM7BgAIAAAAAAAAAAObD9Qng3FYR8Sk7AgDgHAwoAAAAAAAAAABgPgwogD7sSm032REAAK9lQAEAAAAAAAAAADNQaruM+1+KB+jDD6W2LjsCAOA1DCgAAAAAAAAAAGAeXJ8A+nZbaltnRwAAvJQBBQAAAAAAAAAAzEOXHQDM3iYibrMjAABeyoACAAAAAAAAAAAmrtS2j/uHzQB9e1dqc/EGAJgkAwoAAAAAAAAAAJi+Q3YAsCi3pbZtdgQAwHMZUAAAAAAAAAAAwPT5NXhgSKuIuM2OAAB4LgMKAAAAAAAAAACYsFLbPiI22R3A4lyU2q6zIwAAnsOAAgAAAAAAAAAApq3LDgAW6x8PIy4AgEkwoAAAAAAAAAAAgGk7ZAcAi3abHQAAcCoDCgAAAAAAAAAAmKhS2zYidtkdwKLtSm3H7AgAgFMYUAAAAAAAAAAAwHR12QEAEfG+1LbPjgAAeIoBBQAAAAAAAAAATNdldgDAg9vsAACApxhQAAAAAAAAAADAdL3LDgB4sCu1HbMjAAC+x4ACAAAAAAAAAAAmqNTm+gQwNu9LbfvsCACAxxhQAAAAAAAAAADANBlQAGN0mx0AAPAYAwoAAAAAAAAAAJimLjsA4Bt2pbZjdgQAwLcYUAAAAAAAAAAAwMSU2vYRscnuAHjE+4fPKQCAUTGgAAAAAAAAAACA6emyAwCecJsdAADwZwYUAAAAAAAAAAAwPZfZAQBP2JXajtkRAAC/Z0ABAAAAAAAAAAATUmpbR8RFdgfACa5LbdvsCACAXxhQAAAAAAAAAADAtHTZAQAnWkXEbXYEAMAvDCgAAAAAAAAAAGBaLrMDAJ7hotR2nR0BABAR8dfsAABI9lNE/D07AmAmfsoO4FefswMAoAe34TsOAAAAftFlBwA807HUdvvlw9ufs0MAgGV7c3d3l90AAAAAAAAAAACcoNS2j4j/y+4AeIF/fvnw1gUdACDVX7IDAAAAAAAAAACAk3XZAQAv9K7UZkABAKQyoAAAAAAAAAAAgOnosgMAXuGm1LbOjgAAlsuAAgAAAAAAAAAApuNddgDAK2wi4pgdAQAslwEFAAAAAAAAAABMQKmty24AOIMfSm377AgAYJkMKAAAAAAAAAAAYBouswMAzuQmOwAAWCYDCgAAAAAAAAAAmIYuOwDgTC5KbdfZEQDA8ry5u7vLbgAAAAAAAAAAAL6j1LaOiH9ndwCc0X8iYvvlw9ufs0MAgOVwgQIAAAAAAAAAAMavyw4AOLNVRNxkRwAAy2JAAQAAAAAAAAAA43eZHQDQg6tSW5cdAQAshwEFAAAAAAAAAACMX5cdANATVygAgMEYUAAAAAAAAAAAwIiV2rYRscnuAOjJrtR2nR0BACyDAQUAAAAAAAAAAIxblx0A0LNjqW2dHQEAzJ8BBQAAAAAAAAAAjFuXHQDQs1VE3GRHAADzZ0ABAAAAAAAAAADj1mUHAAzgqtS2z44AAObNgAIAAAAAAAAAAEaq1LaNiE12B8BAXKEAAHplQAEAAAAAAAAAAOPVZQcADOii1HbIjgAA5suAAgAAAAAAAAAAxqvLDgAY2LHUts6OAADmyYACAAAAAAAAAADGq8sOABjYJiKusyMAgHl6c3d3l90AAAAAAAAAAAD8SaltGxH/yu4ASPCfiNh/+fD2p+wQAGBeXKAAAAAAAAAAAIBx6rIDAJKsIuKYHQEAzI8BBQAAAAAAAAAAjNM+OwAg0VWprcuOAADmxYACAAAAAAAAAADGqcsOAEh2zA4AAOblzd3dXXYDAAAAAAAAAADwO6W2dUT8O7sDYAT++8uHt5+yIwCAeXCBAgAAAAAAAAAAxqfLDgAYiZvsAABgPgwoAAAAAAAAAABgfPbZAQAjsSm1XWdHAADzYEABAAAAAAAAAADj02UHAIzIsdS2zo4AAKbPgAIAAAAAAAAAAMbnIjsAYERWEeEKBQDwagYUAAAAAAAAAAAwIqW2LrsBYISuS23b7AgAYNoMKAAAAAAAAAAAYFz22QEAI7SKiGN2BAAwbQYUAAAAAAAAAAAwLl12AMBIXblCAQC8hgEFAAAAAAAAAACMiwsUAI+7yQ4AAKbrzd3dXXYDAAAAAAAAAAAQEQ+/rP6v7A6Akfvblw9vP2dHAADT4wIFAAAAAAAAAACMh+sTAE87ZgcAANNkQAEAAAAAAAAAAOPRZQcATMBFqa3LjgAApseAAgAAAAAAAAAAxsMFCoDTHLMDAIDpMaAAAAAAAAAAAIDxuMgOAJgIVygAgGczoAAAAAAAAAAAgBEotbk+AfA8t9kBAMC0GFAAAAAAAAAAAMA4dNkBABOzKbUdsiMAgOkwoAAAAAAAAAAAgHFwgQLg+Y7ZAQDAdBhQAAAAAAAAAADAOBhQADyfKxQAwMkMKAAAAAAAAAAAYBx22QEAE3XMDgAApsGAAgAAAAAAAAAAkpXauuwGgAlzhQIAOIkBBQAAAAAAAAAA5NtnBwBM3DE7AAAYPwMKAAAAAAAAAADIZ0AB8DquUAAATzKgAAAAAAAAAACAfAYUAK93zA4AAMbNgAIAAAAAAAAAAPLtsgMAZmBTarvMjgAAxsuAAgAAAAAAAAAAEpXauuwGgBm5zg4AAMbLgAIAAAAAAAAAAHLtswMAZuTCMA0AeIwBBQAAAAAAAAAA5DKgADivY3YAADBOBhQAAAAAAAAAAJBrmx0AMDOuUAAA32RAAQAAAAAAAAAAuS6yAwBm6JgdAACMjwEFAAAAAAAAAAAkKbXtsxsAZuqi1LbNjgAAxsWAAgAAAAAAAAAA8myzAwBm7JgdAACMiwEFAAAAAAAAAADkcYECoD9XrlAAAL9nQAEAAAAAAAAAAHm67ACAmbvODgAAxsOAAgAAAAAAAAAA8myzAwBm7lBqW2dHAADjYEABAAAAAAAAAAAJHh70brI7AGZuFa5QAAAPDCgAAAAAAAAAACDHPjsAYCEO2QEAwDgYUAAAAAAAAAAAQA4DCoBhbEpth+wIACCfAQUAAAAAAAAAAOTYZgcALMgxOwAAyGdAAQAAAAAAAAAAOVygABjOptTWZUcAALkMKAAAAAAAAAAAIIcBBcCwrrMDAIBcb+7u7rIbAAAAAAAAAABgUUpt64j4d3YHwAL915cPb3/KjgAAcrhAAQAAAAAAAAAAw3N9AiDHMTsAAMhjQAEAAAAAAAAAAMMzoADIcflwBQgAWCADCgAAAAAAAAAAGN42OwBgoVYRcciOAAByGFAAAAAAAAAAAMDwXKAAyHOdHQAA5DCgAAAAAAAAAACA4RlQAOTZlNousyMAgOEZUAAAAAAAAAAAwIBKbeuIWGV3ACzcITsAABieAQUAAAAAAAAAAAzL9QmAfO9KbdvsCABgWAYUAAAAAAAAAAAwrG12AAAREXGdHQAADMuAAgAAAAAAAAAAhrXNDgAgIiIO2QEAwLAMKAAAAAAAAAAAYFhddgAAERGxKrUdsiMAgOEYUAAAAAAAAAAAwLDW2QEA/OqQHQAADMeAAgAAAAAAAAAAhrXLDgDgVxeltm12BAAwDAMKAAAAAAAAAAAYiEe6AKN0nR0AAAzDgAIAAAAAAAAAAIazzQ4A4CuH7AAAYBgGFAAAAAAAAAAAMJx9dgAAX1mV2g7ZEQBA/wwoAAAAAAAAAABgOOvsAAC+6ZAdAAD0z4ACAAAAAAAAAACG02UHAPBNF6W2bXYEANAvAwoAAAAAAAAAABiOCxQA43XIDgAA+mVAAQAAAAAAAAAAw9llBwDwqEN2AADQLwMKAAAAAAAAAAAYQKltm90AwHdtSm2X2REAQH8MKAAAAAAAAAAAYBjb7AAAnmRAAQAzOVUmLAAAIABJREFUZkABAAAAAAAAAADD2GYHAPCkq1LbOjsCAOiHAQUAAAAAAAAAAAxjmx0AwElcoQCAmTKgAAAAAAAAAACAYWyzAwA4yXV2AADQj7+e+gcfTlLte2wBWJKfvnx4+1N2BL7fAM7sxy8f3v6cHUFEqW0b/hMO4Cy+fHj7ObuBe6W2fUSsszsA5sD323iU2rrsBoCZ+PnLh7c/ZkfAibbZAQCcZFdq23rfAwDzc/KAIu4fl/5PXyEAC/P3iDhmRxARvt8AzulvEfE5O4KIiDhExPvsCICZeJMdwK9uIuIiOwJgJny/jYd/mwQ4j/+NiC47Ak60zQ4A4GSH8L4HAGbnL9kBAAAAAAAAAACwEJvsAABOdsgOAADOz4ACAAAAAAAAAAB6VmrbZjcA8CybUts+OwIAOC8DCgAAAAAAAAAA6N82OwCAZztkBwAA52VAAQAAAAAAAAAA/dtmBwDwbIfsAADgvAwoAAAAAAAAAACgf9vsAACebVVqu8yOAADOx4ACAAAAAAAAAAD6t84OAOBFDCgAYEYMKAAAAAAAAAAAoH/77AAAXsSAAgBmxIACAAAAAAAAAAAA4NtWpTYjCgCYCQMKAAAAAAAAAADo30V2AAAvZkABADNhQAEAAAAAAAAAAADwOAMKAJgJAwoAAAAAAAAAAOhRqW2f3QDAq6xKbUYUADADBhQAAAAAAAAAANCvdXYAAK9mQAEAM2BAAQAAAAAAAAAA/dpmBwDwagYUADADBhQAAAAAAAAAANCvbXYAAK+2KrUZUQDAxBlQAAAAAAAAAAAAADzNgAIAJs6AAgAAAAAAAAAA+tVlBwBwFgYUADBxBhQAAAAAAAAAAAAAT1uV2rrsCADg5QwoAAAAAAAAAACgX9vsAADOxhUKAJgwAwoAAAAAAAAAAOjXJjsAgLMxoACACTOgAAAAAAAAAAAAADjNptS2z44AAF7GgAIAAAAAAAAAAHrikS3ALLlCAQATZUABAAAAAAAAAAD9WWcHAHB2BhQAMFEGFAAAAAAAAAAAAACn25XattkRAMDzGVAAAAAAAAAAAEB/9tkBAPSiyw4AAJ7PgAIAAAAAAAAAAPqzzg4AoBeX2QEAwPMZUAAAAAAAAAAAAAA8z7vsAADg+QwoAAAAAAAAAACgP112AAD9KLW5QgEAE2NAAQAAAAAAAAAAAPB8XXYAAPA8BhQAAAAAAAAAAAAAz+cCBQBMjAEFAAAAAAAAAAD0Z58dAEBvNqW2bXYEAHA6AwoAAAAAAAAAAOjPKjsAgF65QgEAE2JAAQAAAAAAAAAAAPAyXXYAAHA6AwoAAAAAAAAAAOhBqW2d3QBA77rsAADgdAYUAAAAAAAAAADQj312AAC9W5XauuwIAOA0BhQAAAAAAAAAAAAAL9dlBwAApzGgAAAAAAAAAAAAAHi5y+wAAOA0BhQAAAAAAAAAANCPfXYAAIPYldrW2REAwNMMKAAAAAAAAAAAoB8e0wIsR5cdAAA8zYACAAAAAAAAAAAA4HW67AAA4GkGFAAAAAAAAAAAAACv02UHAABPM6AAAAAAAAAAAIB+7LMDABjMrtS2zo4AAL7PgAIAAAAAAAAAAPrhIS3AsnTZAQDA9xlQAAAAAAAAAAAAALxelx0AAHyfAQUAAAAAAAAAAADA63XZAQDA9xlQAAAAAAAAAABAP9bZAQAMaldq89kPACNmQAEAAAAAAAAAAP3YZQcAMLguOwAAeJwBBQAAAAAAAAAAAMB5dNkBAMDjDCgAAAAAAAAAAAAAzqPLDgAAHmdAAQAAAAAAAAAAAHAeu+wAAOBxBhQAAAAAAAAAAAAAZ1Jq67IbAIBvM6AAAAAAAAAAAIAz83gWYNG67AAA4NsMKAAAAAAAAAAAAADOp8sOAAC+zYACAAAAAAAAAAAA4Hz22QEAwLcZUAAAAAAAAAAAAACcz6rUZkQBACNkQAEAAAAAAAAAAABwXgYUADBCBhQAAAAAAAAAAAAA59VlBwAAXzOgAAAAAAAAAACA89tmBwCQygUKABghAwoAAAAAAAAAADi/bXYAAKl22QEAwNcMKAAAAAAAAAAAAADOrNTWZTcAAH9kQAEAAAAAAAAAAABwfvvsAADgjwwoAAAAAAAAAAAAAM7PgAIARsaAAgAAAAAAAAAAAOD8uuwAAOCPDCgAAAAAAAAAAAAAzm9TaltnRwAAvzGgAAAAAAAAAAAAAOjHPjsAAPiNAQUAAAAAAAAAAABAPwwoAGBEDCgAAAAAAAAAAAAA+mFAAQAjYkABAAAAAAAAAADn58EsABG+DwBgVAwoAAAAAAAAAADg/NbZAQCMwi47AAD4jQEFAAAAAAAAAAAAQE9KbV12AwBwz4ACAAAAAAAAAAAAoD/b7AAA4J4BBQAAAAAAAAAAAEB/9tkBAMA9AwoAAAAAAAAAAACA/hhQAMBIGFAAAAAAAAAAAAAA9MeAAgBGwoACAAAAAAAAAAAAoD+rUts6OwIAMKAAAAAAAAAAAAAA6JsrFAAwAgYUAAAAAAAAAAAAAP0yoACAETCgAAAAAAAAAAAAAOjXNjsAADCgAAAAAAAAAAAAAOibCxQAMAIGFAAAAAAAAMD/s3d3N3EkWB+Hz47mHqsCKJOB/UZgMrAzMCvV/bARTE8Eg+9LmnYEiyOYJoJtItimAqiFCPxe0NgYg81HV536eB6phY0Z+q/Vrgav+tcHAACAbgkoAGAABBQAAAAAAAAAAAAA3dorq/ZF9ggAmDsBBQAAAAAAAAAAAED3XKEAgGQCCgAAAAAAAAAAAIDuCSgAIJmAAgAAAAAAAAAAAKB7L7IHAMDcCSgAAAAAAAAAAAAAuneQPQAA5k5AAQAAAAAAAAAAANA9FygAIJmAAgAAAAAAAAAAAKB7r7IHAMDcCSgAAAAAAAAAAAAAelBW7X72BgCYMwEFAAAAAAAAAAAAQD/2swcAwJwJKAAAAAAAAAAAYPc22QMAGKTX2QMAYM4EFAAAAAAAAAAAsHub7AEADNKL7AEAMGcCCgAAAAAAAAAAAIB+HGQPAIA5E1AAAAAAAAAAAAAAAACTJ6AAAAAAAAAAAAAA6Meb7AEAMGcCCgAAAAAAAAAAAICelFX7InsDAMyVgAIAAAAAAAAAAACgP6+zBwDAXAkoAAAAAAAAAAAAAACAyRNQAAAAAAAAAAAAAPTnIHsAAMyVgAIAAAAAAAAAAAAAAJg8AQUAAAAAAAAAAOzeOnsAAIN1kD0AAOZKQAEAAAAAAAAAALt3kT0AAACAbwkoAAAAAAAAAAAAAPrzOnsAAMyVgAIAAAAAAAAAAACgP3vZAwBgrgQUAAAAAAAAAAAAAD0qq3Y/ewMAzJGAAgAAAAAAAAAAAKBf+9kDAGCOBBQAAAAAAAAAALB7F9kDAAAA+JaAAgAAAAAAAAAAdqypi3X2BgAG7SB7AADM0a/ZAwAAAAAAAAAAAABgrsqqfR0RL259+kVEvL7nH7nr6+/6mr1nTtuVy4j4WVx68YOv2Wwf32jqYvWcUcA8CSgAAAAAAAAAAAAA+rWfPYDdKKv2duhwO264/fv9iHjZ/bJB2YuINw/4ureP+aZl1d716dNbv1/HVZxx5+9FGDA/AgoAAAAAAAAAAACAfu1nD+But65B/OjXQ7nuwLduhxo/DDduRRjn8fXSxc2LGN/8uqmLn13TAAZMQAEAAAAAAAAAAADApJVVe7D95c0Q4vpz+zG/qxB872V8+9+DOy9i3IgubgYXNy9brLYfN01dXP85MBACCgAAAAAAAAAA6MZp/ORdjwGYrdfZA6airNoX8fU/z4Ptx+tIYj+EEXTnZnBx82e+369/cSO2ON1+vA4tNtuHixbQMwEFAAAAAAAAAAAAQL/2sgeMxY1A4q6PrxKnwWO8ufXxizsii9X243VssW7q4iKAnRBQAAAAAAAAAAAAAJCmrNrbYcRBCCSYn59FFmdxFVSstp9ehQsW8GgCCgAAAAAAAAAAAICelVV70NTFKntHX8qq3Y+I/fg2ktiPiJdZm2BkroOi68Di94gvccVlXF2s2Gwf67iKK1Z9DoQxEFAAAAAAAAAAAEA31nHHOwgDwJRtr0nsx1UocR1L+PchdGsvrv539s3/1rZxxXnciCri6nLFpqmLTZ8DYSgEFAAAAAAAAAAA0I2L7AEA0JU7Qon9+PoO+cBwvNw+7rpccRZf44p1XIUV6/4nQn8EFAAAAAAAAAAAAAD9ex1X7wQ/aGXVvoirrQfxNZgQSsA0vNo+3l5/4p6wYu1iBVMhoAAAAAAAAAAAAADo34vsAbfduipxsP24lzgJyHFfWHEa34cVrq4xKgIKAAAAAAAAAADoxjp7AADcZxtL3Hy8yV0EjMCb7eP99SfKqj2PG0FFuFbBwAkoAAAAAAAAAACgG96NF4Af6e0CRVm1+/HtVQmxBLArL7ePm9cqLuMqpliFqIKBEVAAAAAAAAAAAAAA9O91F9+0rNoX8W0scRARe108F8A99uLrtYqI+C6qWMVVVCE4pncCCgAAAAAAAAAA6IYXhAHQue11iYP4Gku8SpwDcJ+bUcXvERFl1Z7HjUsVTV2sssYxHwIKAAAAAAAAAADoQFMX67Jqs2cAMDFl1V6HEtcP1yWAsXq5fbyNiNj+7Hwa30YVm6RtTJSAAgAAAAAAAAAAAKB/Lx7yRWXVHsTXWOJ1CCaAabu+UvFbxJcrFav4GlSs05YxCQIKAAAAAAAAAAAAgP69uuuTt4KJN/3NARiklxHxfvuIsmov42tQsRJU8FgCCgAAAAAAAAAA6M5pePErAD9QVu3r+BpMHIQLEwA/shcRb7cPQQWPJqAAAAAAAAAAAAAASFBW7UUIJgCe40dBxUlTF5usYQyTgAIAAAAAAAAAALpzkT0AgEETTwDs1s2g4s+yas/j26DCz+cz90v2AAAAAAAAAAAAmLB19gAAAJixlxHxPiL+ioj/lVW7Lqv2uKzag9xZZHGBAgAAAAAAAAAAAACAOXi1ffxWVu1lbC9TRMSqqYtN4i56IqAAAAAAAAAAAIDurCLi9+wRAADAd/Yi4u32EWXVnsXVz+/Lpi5ckpsoAQUAAAAAAAAAAAAAAHN3+zrFSUScNHVxkjuLXRJQAAAAAAAAAABAd7xzLQAAjM9eRLyPiPdl1UZEfIqvQcVF5jCe55fsAQAAAAAAAAAAMFVeXAUAAJPwNiL+ioj/lVW7Kqv2qKza/eRNPIELFAAAAAAAAAAA0K3ziHiZPQIAANiJN9vHn2XVnkXEMq4uU2wyR/EwLlAAAAAAAAAAAEC3NtkDAACATryKiD8j4r9l1a63lyleZI/ifgIKAAAAAAAAAADo1iZ7AAAA0LnrmOJ/ZdWelFV7KKYYHgEFAAAAAAAAAAB0a5M9AAAA6NXbiPgrrmKKZVm177IHceXX7AEAAAAAAAAAADBxm+wBAABAmvcR8b6s2suIWEbEsqmLde6k+RJQAAAAAAAAAABAtzbZAwAAgHR7EfFbRPxWVu1ZfI0pLlJXzcwv2QMAAAAAAAAAAGDiNtkDAACAQXkVEX9GxP/Kql2WVXuQvGc2BBQAAAAAAAAAANChpi422RsAAIDBeh8Rf5dVuymr9qis2hfZg6ZMQAEAAAAAAAAAAN07yx4AAAAM2stwlaJzv2YPAAAAAAAAAACAGbjIHgAAAIzG+4h4X1btWUQcR8RJUxf+TrEDLlAAAAAAAAAAAED3VtkDAACA0XkVEX9FxKas2kVZtfvJe0ZPQAEAAAAAAAAAAN3zbrEAAMBT7UXE7xHx37Jql2XVvs4eNFYCCgAAAAAAAAAA6N46ewAAADAJ7yPiP2XVrsqqPcgeMzYCCgAAAAAAAAAA6N4mewAAADApbyLi77JqN2XVHmaPGQsBBQAAAAAAAAAAdKypi032BgAAYJJeRsRfQoqHEVAAAAAAAAAAAEA/zrIHAAAAkyWkeAABBQAAAAAAAAAA9OMiewAAADB5QoofEFAAAAAAAAAAAEA/VtkDAACA2RBS3EFAAQAAAAAAAAAA/dhkDwAAAGbnZkhxkD0mm4ACAAAAAAAAAAD6sckeAAAAzNbLiPi7rNrVnEMKAQUAAAAAAAAAAPSgqYtV9gYAAGD23sRVSLEsq3Y/e0zfBBQAAAAAAAAAANCfy+wBAAAAEfE+ItZl1S6yh/RJQAEAAAAAAAAAAP1ZZw8AAADY2ouI38uq3ZRV+y57TB8EFAAAAAAAAAAA0B8BBQAAMDQvI+LfZdWelFW7nz2mSwIKAAAAAAAAAADozyZ7AAAAwD3eRsS6rNqj7CFdEVAAAAAAAAAAAEB/XKAAAACGbC8i/iyrdl1W7evsMbsmoAAAAAAAAAAAgP4IKAAAgDF4FRH/Kat2kT1klwQUAAAAAAAAAADQk6YuLiLiPHsHAADAA/0+pWsUAgoAAAAAAAAAAOjXJnsAAADAI0zmGoWAAgAAAAAAAAAA+rXKHgAAAPAEo79GIaAAAAAAAAAAAIB+bbIHAAAAPNGor1EIKAAAAAAAAAAAoF/r7AEAAADPNMprFAIKAAAAAAAAAADoUVMXAgoAAGAKXkXEqqzao+whDyWgAAAAAAAAAACA/p1lDwAAANiBvYj4s6zaVVm1+9ljfkZAAQAAAAAAAAAA/XOFAgAAmJI3EbEe+jUKAQUAAAAAAAAAAPRPQAEAAEzN4K9RCCgAAAAAAAAAAKB/AgoAAGCqBnuNQkABAAAAAAAAAAA9a+pilb0BAACgQ4O8RiGgAAAAAAAAAACAHGfZAwAAADo2qGsUAgoAAAAAAAAAAMixyR4AAADQg8FcoxBQAAAAAAAAAABAjnX2AAAAgB6lX6MQUAAAAAAAAAAAQI5V9gAAAICepV6jEFAAAAAAAAAAAECCpi5W2RsAAACSXF+jeNfnkwooAAAAAAAAAAAgz1n2AAAAgCR7EfHvsmpPyqp90ccTCigAAAAAAAAAACDPOnsAAABAsrcRsenjGoWAAgAAAAAAAAAA8ggoAAAAerpGIaAAAAAAAAAAAIA8AgoAAICvOr1GIaAAAAAAAAAAAIAkTV2ssjcAAAAMTGfXKAQUAAAAAAAAAACQ6zR7AAAAwADt/BqFgAIAAAAAAAAAAHKtswcAAAAM1E6vUQgoAAAAAAAAAAAg1yp7AAAAwMDt5BqFgAIAAAAAAAAAAHK5QAEAAPBzz75GIaAAAAAAAAAAAIBETV1sIuI8ewcAAMBIPPkahYACAAAAAAAAAADyuUIBAADwcNfXKI4fc41CQAEAAAAAAAAAAPlW2QMAAABG6LeIWJdVe/CQLxZQAAAAAAAAAABAvlX2AAAAgJF6GRF/P+QahYACAAAAAAAAAACSNXWxzt4AAAAwcj+9RiGgAAAAAAAAAACAYTjNHgAAADByP7xGIaAAAAAAAAAAAIBhWGUPAAAAmIg7r1EIKAAAAAAAAAAAYBhW2QMAAAAm5LtrFAIKAAAAAAAAAAAYgKYuVtkbAAAAJujLNQoBBQAAAAAAAAAADMdp9gAAAIAJehkRfwsoAAAAAAAAAABgOFbZAwAAACbqo4ACAAAAAAAAAACGY5U9AAAAYKIWAgoAAAAAAAAAABiIpi5W2RsAAAAm6GNTFxsBBQAAAAAAAAAADMtp9gAAAICJWURECCgAAAAAAAAAAGBYVtkDAAAAJuRjUxebCAEFAAAAAAAAAAAMzSp7AAAAwIQcX/9CQAEAAAAAAAAAAAPS1MUqewMAAMBEnDZ1sb7+jYACAAAAAAAAAACG51P2AAAAgAlY3PyNgAIAAAAAAAAAAIZnlT0AAABg5E5vX/gTUAAAAAAAAAAAwPCssgcAAACM3OL2JwQUAAAAAAAAAAAwME1drCPiMnsHAADASH13fSJCQAEAAAAAAAAAAEN1kj0AAABgpBZ3fVJAAQAAAAAAAAAAw7TKHgAAADBCZ3ddn4gQUAAAAAAAAAAAwFCtsgcAAACM0PF9fyCgAAAAAAAAAACAAWrqYhMRZ9k7AAAARuS8qYvlfX8ooAAAAAAAAAAAgOFaZQ8AAAAYkcWP/lBAAQAAAAAAAAAAw3WSPQAAAGAkfnh9IkJAAQAAAAAAAAAAg9XUxSoiLrN3AAAAjMDiZ18goAAAAAAAAAAAgGFbZQ8AAAAYuJ9en4gQUAAAAAAAAAAAwNCdZA8AAAAYuMVDvkhAAQAAAAAAAAAAw7bKHgAAADBglw+5PhEhoAAAAAAAAAAAgEFr6mITEWfZOwAAAAbq+KFfKKAAAAAAAAAAAIDhO8keAAAAMECXIaAAAAAAAAAAAIBJEVAAAAB877ipi4uHfrGAAgAAAAAAAAAABq6pi3VEnGfvAAAAGJBHXZ+IEFAAAAAAAAAAAMBYrLIHAAAADMijrk9ECCgAAAAAAAAAAGAsTrIHAAAADMSjr09ECCgAAAAAAAAAAGAUmroQUAAAAFx59PWJCAEFAAAAAAAAAACMyafsAQAAAMmedH0iQkABAAAAAAAAAABj4goFAAAwd8unXJ+IEFAAAAAAAAAAAMCYCCgAAIC5e9L1iQgBBQAAAAAAAAAAjMb2XVY/Ze8AAABI8rGpi81T/2EBBQAAAAAAAAAAjIsrFAAAwFwtnvMPCygAAAAAAAAAAGBcVtkDAAAAEjzr+kSEgAIAAAAAAAAAAEZl+4Khs+wdAAAAPVs89xsIKAAAAAAAAAAAYHyW2QMAAAB69OzrExECCgAAAAAAAAAAGKOT7AEAAAA9WuzimwgoAAAAAAAAAABgZLbvvHqWvQMAAKAHO7k+ESGgAAAAAAAAAACAsVpmDwAAAOjBYlffSEABAAAAAAAAAADjdJI9AAAAoGM7uz4RIaAAAAAAAAAAAIBR2r6I6DR7BwAAQIcWu/xmAgoAAAAAAAAAABivZfYAAACAjuz0+kSEgAIAAAAAAAAAAMbsJHsAAABAR5a7/oYCCgAAAAAAAAAAGKmmLi4i4lP2DgAAgB07bepitetvKqAAAAAAAAAAAIBxc4UCAACYmkUX31RAAQAAAAAAAAAA43YSEZfZIwAAAHakk+sTEQIKAAAAAAAAAAAYtaYuLsIVCgAAYDoWXX1jAQUAAAAAAAAAAIyfgAIAAJiCzq5PRAgoAAAAAAAAAABg9Jq6OImIy+wdAAAAz7To8psLKAAAAAAAAAAAYBqW2QMAAACeodPrExECCgAAAAAAAAAAmIpl9gAAAIBnWHT9BAIKAAAAAAAAAACYgKYu1hFxlr0DAADgCTq/PhEhoAAAAAAAAAAAgClZZg8AAAB4gkUfTyKgAAAAAAAAAACA6VhmDwAAAHikXq5PRAgoAAAAAAAAAABgMpq6uIiIT9k7AAAAHmHR1xMJKAAAAAAAAAAAYFqW2QMAAAAeqLfrExECCgAAAAAAAAAAmJSmLk4i4jJ7BwAAwAMs+nwyAQUAAAAAAAAAAEzPMnsAAADAT/R6fSJCQAEAAAAAAAAAAFN0nD0AAADgJxZ9P6GAAgAAAAAAAAAAJqapi01EnGbvAAAAuEfv1yciBBQAAAAAAAAAADBVy+wBAAAA9zjKeFIBBQAAAAAAAAAATFBTF8uIuMzeAQAAcMvHpi7WGU8soAAAAAAAAAAAgOlaZg8AAAC4ZZH1xAIKAAAAAAAAAACYruPsAQAAADd8bOpik/XkAgoAAAAAAAAAAJio7QuTTrN3AAAAbC0yn1xAAQAAAAAAAAAA07bMHgAAABARf2Ren4gQUAAAAAAAAAAAwKQ1dbGMiPPsHQAAwKxdRsRx9ggBBQAAAAAAAAAATN8yewAAADBri6YuLrJHCCgAAAAAAAAAAGD6ltkDAACA2Tpt6iL9+kSEgAIAAAAAAAAAACavqYtNRHzM3gEAAMzSInvANQEFAAAAAAAAAADMwzJ7AAAAMDunTV2sskdcE1AAAAAAAAAAAMAMbF+0dJa9AwAAmJVF9oCbBBQAAAAAAAAAADAfx9kDAACA2RjU9YkIAQUAAAAAAAAAAMxGUxfLiLjM3gEAAMzCYfaA2wQUAAAAAAAAAAAwL65QAAAAXfvY1MUme8RtAgoAAAAAAAAAAJgXAQUAANC1RfaAuwgoAAAAAAAAAABgRpq6uIiIj9k7AACAyfowxOsTEQIKAAAAAAAAAACYo0X2AAAAYJIuY8B/3xBQAAAAAAAAAADAzGzfDfY0ewcAADA5x9urd4MkoAAAAAAAAAAAgHlaZA8AAAAm5TwijrNH/IiAAgAAAAAAAAAAZqipi1VEnGXvAAAAJmMx5OsTEQIKAAAAAAAAAACYs0G/OywAADAaZ01dLLNH/IyAAgAAAAAAAAAAZmr7Aqfz7B0AAMDoHWUPeAgBBQAAAAAAAAAAzNsiewAAADBqp01drLJHPISAAgAAAAAAAAAAZmx7heIyewcAADBah9kDHkpAAQAAAAAAAAAAHGcPAAAARulDUxeb7BEPJaAAAAAAAAAAAACOwxUKAADgcS4jYpE94jEEFAAAAAAAAAAAMHNNXVyEKxQAAMDjLLZ/lxgNAQUAAAAAAAAAABDhCgUAAPBw501djC7CFlAAAAAAAAAAAACuUAAAAI9xmD3gKQQUAAAAAAAAAADANVcoAACAn/nU1MUqe8RTCCgAAAAAAAAAAICIcIUCAAB4kKPsAU8loAAAAAAAAAAAAG5yhQIAALjPH01dbLJHPJWAAgAAAAAAAAAA+MIVCgAA4B7nMfK/KwgoAAAAAAAAAACA21yhAAAAbjvaBtejJaAAAAAAAAAAAAC+4QoFAABwy2lTFyfZI55LQAEAAAAAAAAAANzFFQoAAODaYfaAXRBQAAAAAAAAAAAA33GFAgAA2PqjqYtN9ohdEFAAAAAAAAAAAAD3cYUCAADm7TwmFFYLKAAAAAAAAAAAgDttr1AssncAAABpjrZ/L5gEAQUAAAAAAAAAAHCvpi6O4+pdZwEAgHn51NTFSfaIXRJQAAAAAAAAAAAAP7PIHgAAAPRPRVR9AAAgAElEQVTqMiKOskfsmoACAAAAAAAAAAD4oaYuluEKBQAAzMmiqYtN9ohdE1AAAAAAAAAAAAAPcZg9AAAA6MVZUxfH2SO6IKAAAAAAAAAAAAB+qqmLVUScZu8AAAA6d5g9oCsCCgAAAAAAAAAA4KEW2QMAAIBOfWjqYp09oisCCgAAAAAAAAAA4EG2Vyg+Zu8AAAA6cR4Tj6YFFAAAAAAAAAAAwGMssgcAAACdOGzq4iJ7RJcEFAAAAAAAAAAAwIM1dbGJiD+ydwAAADv1cXtxbtIEFAAAAAAAAAAAwGMdR8Rl9ggAAGAnLiPiKHtEHwQUAAAAAAAAAADAozR1cREzeYEVAADMwOH2Z/zJE1AAAAAAAAAAAACP1tTFMiLOsncAAADP8qmpi5PsEX0RUAAAAAAAAAAAAE/lCgUAAIzXZUQcZo/ok4ACAAAAAAAAAAB4kqYuVhHxMXsHAADwJIdNXVxkj+iTgAIAAAAAAAAAAHiORVy9cy0AADAen5q6OMke0TcBBQAAAAAAAAAA8GRNXWwi4jh7BwAA8GCXEXGYPSKDgAIAAAAAAAAAAHiWpi4WEXGevQMAAHiQw6YuLrJHZBBQAAAAAAAAAAAAu3CYPQAAAPipT01dnGSPyCKgAAAAAAAAAAAAnq2pi1VEfMreAQAA3OsyZh4+CygAAAAAAAAAAIBdOYqrF2UBAADDc9jUxUX2iEwCCgAAAAAAAAAAYCeauthExCJ5BgAA8L0PTV2cZI/IJqAAAAAAAAAAAAB2pqmL44g4y94BAAB8cR5C54gQUAAAAAAAAAAAALt3mD0AAAD44rCpi4vsEUMgoAAAAAAAAAAAAHaqqYt1RHzI3gEAAMQfTV2sskcMhYACAAAAAAAAAADowiIizrNHAADAjJ01dbHIHjEkAgoAAAAAAAAAAGDnmrq4iIjD7B0AADBTlxHxLnvE0AgoAAAAAAAAAACATjR1sYqIj9k7AABgho6authkjxgaAQUAAAAAAAAAANClo7h691sAAKAfn5q6WGaPGCIBBQAAAAAAAAAA0JmmLi4i4jB7BwAAzMR5+Pn7XgIKAAAAAAAAAACgU01dnETEp+wdAAAwA++2ETN3EFAAAAAAAAAAAAB9OIyIy+wRAAAwYX80dbHOHjFkAgoAAAAAAAAAAKBz23fBPczeAQAAE3Xa1MUie8TQCSgAAAAAAAAAAIBeNHVxEhGfsncAAMDEXEbEu+wRYyCgAAAAAAAAAAAA+nQYEefZIwAAYELebS++8RMCCgAAAAAAAAAAoDfbF3YdZu8AAICJ+KOpi1X2iLEQUAAAAAAAAAAAAL3avsDrQ/YOAAAYudOmLhbZI8ZEQAEAAAAAAAAAAGRYRMRZ9ggAABipy4h4lz1ibAQUAAAAAAAAAABA75q6uIiIw+wdAAAwUu+2P1PzCAIKAAAAAAAAAAAgRVMX64j4V/YOAAAYmX81dbHKHjFGAgoAAAAAAAAAACBNUxfHEXGavQMAAEbi0/ZnaJ5AQAEAAAAAAAAAAGR7FxGX2SMAAGDgziPiMHvEmAkoAAAAAAAAAACAVE1dXMRVRAEAANztMiLebX925okEFAAAAAAAAAAAQLqmLlYR8SF7BwAADNRRUxfr7BFj9+sjvnYTEX90tANgblbZA/hiE/79BrArm+wBfLHKHgAAHViGf8cBMD3+v0mA3dhkDwB2p6mLo7JqDyLiVfYWAAAYkA9NXSyzR0zBPz5//py9AQAAAAAAAAAAICIiyqrdj4h1ROwlTwEAgCE4beriIHvEVPySPQAAAAAAAAAAAOBaUxebiDhMngEAAENwHhHvskdMiYACAAAAAAAAAAAYlKYuTiLiQ/YOAABIdBkR75q6uMgeMiX/+Pz5c/YGAAAAAAAAAACA75RVu4qIN9k7AAAgwT+bulhmj5gaFygAAAAAAAAAAIChehdX77wLAABz8kE80Q0XKAAAAAAAAAAAgMEqq/Z1RPwnewcAAPTkU1MX77JHTJULFAAAAAAAAAAAwGA1dbGOiH9m7wAAgB6cRcRh9ogpc4ECAAAAAAAAAAAYvLJqlxHxPnsHAAB05DIiXjd1sckeMmUCCgAAAAAAAAAAYBTKql1HxKvsHQAA0IH/215fo0O/ZA8AAAAAAAAAAAB4oIO4emdeAACYkn+KJ/ohoAAAAAAAAAAAAMbEC8sAAJiSD01dLLNHzIWAAgAAAAAAAAAAGLyyahcRsYmIN7lLAABgZz42dXGUPWJOfs0eAAAAAAAAAAAAcJ+yat9FxHFEvMzeAgAAO3QWEeKJnv3j8+fP2RsAAAAAAAAAAAC+UVbt67gKJ1ycAABgas4j4nVTFxfZQ+bGBQoAAAAAAAAAAGAwyqrdj4hFRLzPXQIAAJ24jIh34okcLlAAAAAAAAAAAADpyqp9ERFH28de8hwAAOjK/zV1sc4eMVcuUAAAAAAAAAAAAKnKqj2MiOMQTvw/e3d01MbhtXH4JON7M1uATAd2B6aD0EHIjArw1wHpQP/7vRAd4A6kDkQH0hagkSrgu1gRMBYggbRnd/U8MzsiRonfXCUz6OcDAEC//SOeyCWgAAAAAAAAAAAAUgyGy4uIGEfEl9wlAABwdP9UZTHOHnHqBBQAAAAAAAAAAECjNuHEdUR8z10CAACNuBFPtIOAAgAAAAAAAAAAaMRguDyPOpz4O3cJAAA05qYqi6vsEdT+uL+/z94AAAAAAAAAAAD02GC4PIuIUQgnAAA4LdOqLC6yR/DIBQoAAAAAAAAAAOAoNuHEj83zOXkOAAA06S4iLrNH8CsBBQAAAAAAAAAAcFDCCQAATtxdRFxUZbHKHsKv/ri/v8/eAAAAAAAAAAAA9MRguLyKiOuI+JK7BAAAUqwj4lw80U4uUAAAAAAAAAAAAB8mnAAAgFiHyxOtJqAAAAAAAAAAAADeTTgBAAAR8RhPzLKH8DIBBQAAAAAAAAAAsDfhBAAA/Ec80RECCgAAAAAAAAAAYGeD4fIiIkYR8TV5CgAAtMWVeKIbBBQAAAAAAAAAAMCbNuHEdUR8z10CAACt8k9VFrfZI9iNgAIAAAAAAAAAAHjRYLi8ijqc+JK7BAAAWuefqizG2SPYnYACAAAAAAAAAAD4jXACAABeJZ7oIAEFAAAAAAAAAADwH+EEAAC8STzRUQIKAAAAAAAAAABAOAEAALsRT3SYgAIAAAAAAAAAAE7UYLg8i4gfm+dz8hwAAGg78UTHCSgAAAAAAAAAAODECCcAAGBv4okeEFAAAAAAAAAAAMCJGAyX5xFxHRF/5y4BAIBOEU/0hIACAAAAAAAAAAB6bjBcXkTEVQgnAABgX+KJHhFQAAAAAAAAAABATw2Gy8uI+BER37O3AABAB4knekZAAQAAAAAAAAAAPTIYLs8i4jIiriPiS+4aAADoLPFEDwkoAAAAAAAAAACgBwbD5XlEXEV9ceJz6hgAAOg28URPCSgAAAAAAAAAAKDDBsPlRdThxN+5SwAAoBfEEz0moAAAAAAAAAAAgA4aDJdXUV+b+Jo8BQAA+kI80XMCCgAAAAAAAAAA6IjBcHke9bWJHxHxOXUMAAD0xzoirqqyuM0ewnEJKAAAAAAAAAAAoOUGw+VF1OHE37lLAACgd9YRcVGVxSx7CMcnoAAAAAAAAAAAgBYaDJdn8Xht4kvuGgAA6CXxxIkRUAAAAAAAAAAAQIsMhstvUUcTlxHxOXkOAAD0lXjiBAkoAAAAAAAAAAAg2ebaxGXU4cTX5DkAANB3dxFxWZXFPHsIzRJQAAAAAAAAAABAEtcmAACgcXdRX55YZQ+heQIKAAAAAAAAAABo0ObaxFXU4cSX3DUAAHBSxBMnTkABAAAAAAAAAAANGAyXl1Ffmvg7ewsAAJygm6osrrJHkEtAAQAAAAAAAAAARzIYLs+jvjRxGa5NAABAFvEEESGgAAAAAAAAAACAgxoMl2cRcbV5vqaOAQAA/qnKYpw9gnYQUAAAAAAAAAAAwAEMhsvLqKOJv5KnAAAANfEEvxBQAAAAAAAAAADAOw2Gy4uoo4nLiPicOgYAAHiwjoiLqixm2UNoFwEFAAAAAAAAAADsYTBcfovHaOJL7hoAAOCZRURciifYRkABAAAAAAAAAABvEE0AAEAn3EV9eWKVPYR2ElAAAAAAAAAAAMAWg+HyPOpg4ioivqaOAQAA3nITET/EE7xGQAEAAAAAAAAAABubSxMXIZoAAIAu+V9VFj+yR9B+AgoAAAAAAAAAAE7aJpq4ivraxJfcNQAAwJ7+qcpinD2CbhBQAAAAAAAAAABwckQTAADQeeuIuKjKYpY9hO4QUAAAAAAAAAAAcBIGw+Vl1MHEZUR8Tp4DAAC8311EXFZlMc8eQrcIKAAAAAAAAAAA6KXBcHkeERdRBxN/pY4BAAAO5WdEXFVlscoeQvcIKAAAAAAAAAAA6I3BcPktHq9MfE2eAwAAHNa/VVlcZ4+guwQUAAAAAAAAAAB01mC4PIvHKxMXEfElcw8AAHAU64j4UZXFOHsI3SagAAAAAAAAAACgUzZXJi6ijia+564BAACObBERl1VZzLKH0H0CCgAAAAAAAAAAWm1zZeLhwsRlRHxOHQQAADRlGnU8scoeQj8IKAAAAAAAAAAAaJ3BcPkQTFxExNfUMQAAQIb/VWXxI3sE/SKgAAAAAAAAAAAg3WC4vIjHYOJ75hYAACDVOiKuqrK4zR5C/wgoAAAAAAAAAABo3GC4/BaPwcRfqWMAAIC2uIs6nphlD6GfBBQAAAAAAAAAABzd5sLE02jic+IcAACgfW4i4kdVFqvsIfSXgAIAAAAAAAAAgIPbBBMPz/fMLQAAQOv9U5XFOHsE/SegAAAAAAAAAADgQwbD5Vk8xhLfQjABAADsZhERl1VZzLKHcBoEFAAAAAAAAAAA7GUwXH6Lx1jiIiK+ZO4BAAA66WdEXFVlscoewukQUAAAAAAAAAAA8KIn1yUeYgnXJQAAgI/6v6osRtkjOD0CCgAAAAAAAAAA/jMYLi/iMZj4Fq5LAAAAh7OIiMuqLGbZQzhNAgoAAAAAAAAAgBO1iSW+PXm+pg4CAAD67CYiflRlscoewukSUAAAAAAAAAAA9NxguDyLX0MJsQQAANCUddThxDh7CAgoAAAAAAAAAAB6ZDBcnkfEeURcxGMs8SVvEQAAcMLuIuKyKot59hCIEFAAAAAAAAAAAHTWYLi8iDqWeHpZ4nPiJAAAgAf/VmVxnT0CnhJQAAAAAAAAAAC03GC4/Ba/hxKuSgAAAG20iIirqiwm2UPgOQEFAAAAAAAAAEBLbAklziPia+IkAACAfdxExI+qLFbZQ2AbAQUAAAAAAAAAQIMGw+VZPMYR5xFxERFnIZQAAAC6ax311Ynb7CHwGgEFAAAAAAAAAMARbK5JnEUdSJzH42WJz2mjAAAADu9n1PGEqxO0noACAAAAAAAAAOCdnkUSTy9LfMlbBQAA0Ih1RFxXZTHKHgK7ElAAAAAAAAAAALxgMFw+jSKePi5JAAAAp2wa9dWJefYQ2IeAAgAAAAAAAAA4WU8CiW2vXxOnAQAAtJGrE3SagAIAAAAAAAAA6K3BcPkQQ5xvHoEEAADA+7g6QecJKAAAAAAAAACATtoSR0REXGxev0XE58ZHAQAA9I+rE/SGgAIAAAAAAAAAaJXBcHkevwcRT3/te5N7AAAATtjPiPjh6gR9IaAAAAAAAAAAAI5uMFyeRX0VIuLXGOLhikSEMAIAAKAt1hFxVZXFbfYQOCQBBQAAAAAAAADwLoPh8mn88NLXoggAAIBuuYn66sQqewgcmoACAAAAAAAAAHgeQzy9FhERcfHk628R8bmhWQAAADRnEfXViUn2EDgWAQUAAAAAAAAA9MhguLx48pfPQ4inkUSE6xAAAADU/q3K4jp7BBybgAIAAAAAAAAAWuLZFYiI3wOIiF+vQUSIIAAAAHi/adRXJ+bZQ6AJAgoAAAAAAAAA+IBnFx8ePA8hIn4PH84i4usRJgEAAMBb1lGHE7fZQ6BJAgoAAAAAAAAAem0wXJ5HxPkL377Y49fPI+LLR/cAAABAsv9FxHVVFqvsIdC0TxERg+FykrwDAAAAAHjdfPPQvEn2gAbM/JAEAGjCYLjcdpXhqbOoLze85DxeDiFccwAAAIDXTSPiR1UWs+whkOWP+/v7GAyX99lDAAAAAADgHabZA3awioi2/jCqrdtWfoAH8LbBcPlWbPCSiz3eu8/v8X3/KQAAAEADFlFfnBhnD4FsAgoAAAAAAIDdLaL9F4HaGsbsaxb1vwtsc5H0+751PWFfLiYAAAAAx/ZvRIxcoobap+wBAAAAAAAAHfJl87TdX9kDAAAAAIBUPyPiR1UW8+wh0CYCCgAAAAAAAAAAAACAfriLOpyYZA+BNhJQAAAAAAAAAAAAAAB02zrqcGKcPQTaTEABAAAAAAAAAAAAANBN64gYRcSoKotV9hhoOwEFAAAAAAAAAAAAAED33ETEdVUW8+wh0BUCCgAAAAAAAAAAAACA7phGxI+qLGbZQ6BrBBQAAAAAAAAAAAAAAO03jfrixCR7CHTVp8FweZY9AgAAAAAAAAAAAACArRZRhxPj7CHQdZ8i4lv2CAAAAAAAAAAAAAAAfiGcgAP7lD0AAAAAAAAAAAAAAID/rCNiVJXFdfYQ6BsBBQAAAAAAAAAAAABAvnVEjKKOJ1bZY6CPBBQAAAAAAAAAAAAAAHmEE9AQAQUAAAAAAAAAAAAAQPOEE9AwAQUAAAAAAAAAAAAAQHOEE5BEQAEAAAAAAAAAAAAAcHzCCUgmoAAAAAAAAAAAAAAAOB7hBLSEgAIAAAAAAAAAAAAA4PAWEXFdlcU4ewhQE1AAAAAAAAAAAAAAAByOcAJaSkABAAAAAAAAAAAAAPBx06jDiUn2EGA7AQUAAAAAAAAAAAAAwPvdRMRYOAHtJ6AAAAAAAAAAAAAAANjPOiLGETGqymKeOwXYlYACAAAAAAAAAAAAAGA3i4gYRX1xYpU9BtiPgAIAAAAAAAAAAAAA4HXTqKOJcfYQ4P0EFAAAAAAAAAAAAAAA291ExKgqi1n2EODjBBQAAAAAAAAAAAAAAI8WETGOOpxYJW8BDkhAAQAAAAAAAAAAAAAQMY06mrjNHgIch4ACAAAAAAAAAAAAADhV63i8NjHPnQIcm4ACAAAAAAAAAAAAADg104gYV2Uxzh4CNEdAAQAAAAAAAAAAAACcAtcm4MQJKAAAAAAAAAAAAACAPnNtAogIAQUAAAAAAAAAAAAA0D+LqK9NjF2bAB4IKAAAAAAAAAAAAACAPlhHxG3U0cQkeQvQQgIKAAAAAAAAAAAAAKDLplFfm7itymKVvAVoMQEFAAAAAAAAAAAAANA1d/EYTcxzpwBdIaAAAAAAAAAAAAAAALpgERG3ETGuymKWPQboHgEFAAAAAAAAAAAAANBW66ijiZFoAvgoAQUAAAAAAAAAAAAA0CYP0cRtVRa32WOA/hBQAAAAAAAAAAAAAADZRBPA0QkoAAAAAAAAAAAAAIAMogmgUQIKAAAAAAAAAAAAAKApi3iMJibJW4ATI6AAAAAAAAAAAAAAAI7pLh6jiVn2GOB0CSgAAAAAAAAAAAAAgEP7GRGTqKOJee4UgNof9/f3MRgu77OHAAAAAAAAAAAAAACdtY7NlYmImFRlsUreA/AbFygAAAAAAAAAAAAAgPe4i000UZXFLHsMwFsEFAAAAAAAAAAAAADALh6uTEyijiZcmQA6RUABAAAAAAAAAAAAALxkGptowpUJoOsEFAAAAAAAAAAAAADAg7t4vDAxyZ0CcFgCCgAAAAAAAAAAAAA4XQ/BxCTqKxOr1DUARySgAAAAAAAAAAAAAIDTIZgATpaAAgAAAAAAAAAAAAD6SzABsCGgAAAAAAAAAAAAAID+mMZjMDETTAA8ElAAAAAAAAAAAAAAQDctYhNKRH1dYpY7B6DdBBQAAAAAAAAAAAAA0H7r2IQS8RhMuC4BsAcBBQAAAAAAAAAAAAC0zzTqUGIWETPXJQA+TkABAAAAAAAAAAAAALnEEgANEFAAAAAAAAAAAAAAQDPWUUcSk4iYh1gCoFEPAcUiIr5kDgEAAAAAAAAAAACAHrmLOpaYRx1MzKqyWGUOAjh1DwHFPAQUAAAAAAAAAAAAALCvu9hck9g8c1clANrp09tvAQAAAAAAAAAAAICTN406lJiHUAKgkwQUAAAAAAAAAAAAAFC7i4hVREw2r7OImFVlscocBcBhCCgAAAAAAAAAAAAAOCXTeIwjHl7nVVnMM0cBcHwCCgAAAAAAAAAAAAD6ZLp5nTx9rcpisuW9AJwQAQUAAAAAAAAAAAAAXXEX9dWI+eZ5uCAhkADgTQIKAAAAAAAAAAAAALI9hBH/BRGb11VErKqymL30NwLArgQUAAAAAAAAAAAAABzaQxAR8Xgt4revq7KYBwA0REABAAAAAAAAAAAAwDZPI4iIX+OHiMcLERGuRADQAQ8BxSwivmcOAQAAAAAAAAAAAHptGhGTF753FhHf9vhnnUXE148O6oF11J8BfcnTwOGtX3cNAoDeewgotv3HEQAAAAAAAAAAAOBQrrI/oD8YLvcNNbLMqrLw2U4AOLBPb78FAAAAAAAAAAAA4EPusuOJiIhNlDDJ3gEA5PgzewAAAAAAAAAAAADQe6PsAQAAAgoAAAAAAAAAAADgmNYRcZs9AgBAQAEAAAAAAAAAAAAc07gqi1X2CAAAAQUAAAAAAAAAAABwTKPsAQAAEQIKAAAAAAAAAAAA4HimVVnMs0cAAEQ8BhSz1BUAAAAAAAAAAABAH42zBwAAPHgIKFapKwAAAAAAAAAAAIC+WVdlMc4eAQDw4M+33wIAAAAAAAAAAACwt3H2AACApwQUAAAAAAAAAAAAwDGMsgcAADwloAAAAAAAAAAAAAAObVqVxTx7BADAUwIKAAAAAAAAAAAA4NDG2QMAAJ4TUAAAAAAAAAAAAACHtK7KYpw9AgDguT8jIqqymCTvAAAAAAAAAAAAAPphnD0AAGAbFygAAAAAAAAAAACAQxplDwAA2EZAAQAAAAAAAAAAABzKtCqLefYIAIBtBBQAAAAAAAAAAADAoYyzBwAAvERAAQAAAAAAAAAAABzCoiqLcfYIAICXCCgAAAAAAAAAAACAQxhnDwAAeM3TgOIubQUAAAAAAAAAAADQdePsAQAAr3kaUKzSVgAAAAAAAAAAAABd9rMqi3n2CACA1/z59lsAAAAAAAAAAAAAXjXOHgAA8BYBBQAAAAAAAAAAAPARi6osbrNHAAC8RUABAAAAAAAAAAAAfMQ4ewAAwC6eBhSrtBUAAAAAAAAAAABAV42yBwAA7OJpQDFLWwEAAAAAAAAAAAB00U1VFv4AZwCgE/58+y0AAAAAAAAAAAAAW42zBwAA7EpAAQAAAAAAAAAAALzHoiqLSfYIAIBdCSgAAAAAAAAAAACA97jOHgAAsA8BBQAAAAAAAAAAALCvdUTcZo8AANjH04BikjUCAAAAAAAAAAAA6JTbqixW2SMAAPbhAgUAAAAAAAAAAACwr1H2AACAfQkoAAAAAAAAAAAAgH1Mq7KYZY8AANiXgAIAAAAAAAAAAADYxzh7AADAezwNKFZpKwAAAAAAAAAAAIAuWFdlMc4eAQDwHv8FFM5pAQAAAAAAAAAAAG8YZw8AAHivP99+CwAAAAAAAAAAAEBERIyyBwAAvJeAAgAAAAAAAAAAANjFz6os5tkjAADeS0ABAAAAAAAAAAAA7GKcPQAA4COeBxR3KSsAAAAAAAAAAACANltUZXGbPQIA4COeBxSrlBUAAAAAAAAAAABAm42yBwAAfNTzgAIAAAAAAAAAAADguXH2AACAjxJQAAAAAAAAAAAAAK+5qcpilT0CAOCjngcU84wRAAAAAAAAAAAAQGuNsgcAAByCgAIAAAAAAAAAAAB4yV1VFrPsEQAAh/A8oAAAAAAAAAAAAAB44PoEANAbAgoAAAAAAAAAAABgm3VVFuPsEQAAh/I8oJhnjAAAAAAAAAAAAABax/UJAKBXBBQAAAAAAAAAAADANuPsAQAAh/Q8oAAAAAAAAAAAAAD4WZXFPHsEAMAhCSgAAAAAAAAAAACA50bZAwAADu15QDHPGAEAAAAAAAAAAAC0xqIqi0n2CACAQ/sloHBuCwAAAAAAAAAAAE7edfYAAIBjeH6BAgAAAAAAAAAAADhd64i4zR4BAHAMAgoAAAAAAAAAAADgwW1VFqvsEQAAx7AtoLhrfAUAAAAAAAAAAADQBtfZAwAAjmVbQKEcBQAAAAAAAAAAgNMzrcpinj0CAOBYtgUUAAAAAAAAAAAAwOkZZQ8AADgmAQUAAAAAAAAAAACwqMriNnsEAMAxbQsoJk2PAAAAAAAAAAAAAFK5PgEA9J4LFAAAAAAAAAAAAHDa1hExzh4BAHBsAgoAAAAAAAAAAAA4bbdVWayyRwAAHNu2gGLe9AgAAAAAAAAAAAAgzSh7AABAEwQUAAAAAAAAAAAAcLqmVVnMskcAADRhW0ABAAAAAAAAAAAAnIZx9gAAgKZsCyhWja8AAAAAAAAAAAAAmraoymKcPQIAoCm/BRROcQEAAAAAAAAAAMBJGGcPAABo0rYLFAAAAAAAAAAAAED/jbIHAAA0SUABAAAAAAAAAAAAp+emKotV9ggAgCa9FFDcNboCAAAAAAAAAAAAaJLrEwDAyXkpoFCVAgAAAAAAAAAAQD9Nq7KYZY8AAGjaSwEFAAAAAAAAAAAA0E/j7AEAABleCiiUpQAAAAAAAAAAANA/i6osxtkjAAAyvBRQrBpdAQAAAAAAAAAAADRhnD0AACDLSwEFAAAAAAAAAAAA0C/riBhljwAAyPJSQDFvcgQAAAAAAAAAAABwdLdVWayyRwAAZBFQAAAAAAAAAAAAwGm4zh4AAJDppYACADgeQccAACAASURBVAAAAAAAAAAA6I9pVRbz7BEAAJlcoAAAAAAAAAAAAID+G2UPAADI9sf9/f3WbwyGy+3fAAAAAAAAAAAAALpkUZXFefYIAIBsL12gAAAAAAAAAAAAAPrB9QkAgHg9oFg0tgIAAAAAAAAAAAA4hnVEjLNHAAC0wWsBxbypEQAAAAAAAAAAAMBRjKuyWGWPAABog9cCCgAAAAAAAAAAAKDbRtkDAADa4rWAYtbYCgAAAAAAAAAAAODQflZlMc8eAQDQFq8FFE52AQAAAAAAAAAAQHe5PgEA8MRrAQUAAAAAAAAAAADQTYuqLCbZIwAA2uS1gGLW2AoAAAAAAAAAAADgkK6zBwAAtM1rAcWqsRUAAAAAAAAAAADAoayrshhnjwAAaJvXAgoAAAAAAAAAAACge0bZAwAA2ujFgKIqi0mDOwAAAAAAAAAAAIDDEFAAAGzhAgUAAAAAAAAAAAD0x01VFqvsEQAAbfRWQLFuZAUAAAAAAAAAAABwCK5PAAC84K2AYtbICgAAAAAAAAAAAOCjplVZ+NwfAMAL3gooAAAAAAAAAAAAgG5wfQIA4BUuUAAAAAAAAAAAAED3LaqyuM0eAQDQZm8FFKtGVgAAAAAAAAAAAAAfcZ09AACg7d4KKAAAAAAAAAAAAIB2W0eE6xMAAG94K6CYNDECAAAAAAAAAAAAeLdRVRar7BEAAG3nAgUAAAAAAAAAAAB02zh7AABAF7wVUMybGAEAAAAAAAAAAAC8y01VFvPsEQAAXfBqQOF/qgAAAAAAAAAAAKDVRtkDAAC64q0LFAAAAAAAAAAAAEA7TauymGWPAADoil0CiunRVwAAAAAAAAAAAAD7cn0CAGAPLlAAAAAAAAAAAABA9yyqsrjNHgEA0CW7BBTzY48AAAAAAAAAAAAA9nKdPQAAoGsEFAAAAAAAAAAAANAt64hwfQIAYE+7BBQAAAAAAAAAAABAe4yqslhljwAA6JpdAorJsUcAAAAAAAAAAAAAOxtnDwAA6CIXKAAAAAAAAAAAAKA7bqqymGePAADool0CitnRVwAAAAAAAAAAAAC7GGUPAADoqjcDiqosVk0MAQAAAAAAAAAAAF41rcrCH4oMAPBOu1ygiIhYH3UFAAAAAAAAAAAA8Jbr7AEAAF22a0ChWAUAAAAAAAAAAIA8i6osJtkjAAC6bNeAAgAAAAAAAAAAAMhznT0AAKDrdg0oJsccAQAAAAAAAAAAALxoXZXFOHsEAEDXuUABAAAAAAAAAAAA7TbKHgAA0Ae7BhSzo64AAAAAAAAAAAAAtlmHgAIA4CB2DShWR10BAAAAAAAAAAAAbHNblYXP8AEAHMCuAcX8mCMAAAAAAAAAAACAra6zBwAA9MVOAUVVFvMj7wAAAAAAAAAAAAB+dePzewAAh7PrBYqIiPXRVgAAAAAAAAAAAADPjbMHAAD0yT4BxexoKwAAAAAAAAAAAICnplVZTLJHAAD0yT4BBQAAAAAAAAAAANCMUfYAAIC+2SegmBxrBAAAAAAAAAAAAPCfRVUWt9kjAAD6xgUKAAAAAAAAAAAAaJfr7AEAAH20T0AxO9oKAAAAAAAAAAAAICJiXZXFOHsEAEAf7RNQrI62AgAAAAAAAAAAAIiIGGUPAADoKxcoAAAAAAAAAAAAoB3WIaAAADianQOKqixcoAAAAAAAAAAAAIDjufVZPQCA49nnAkVExOIoKwAAAAAAAAAAAIDr7AEAAH22b0AxP8YIAAAAAAAAAAAAOHE3VVnMs0cAAPSZgAIAAAAAAAAAAADyjbMHAAD0nYACAAAAAP6fvbs5biPL2jW6ZUFHHAN05cG9JrQHnwscyACakOUBan4GpAekBwkPQA+AY4ACsADfQOhbpWpKIsFM7PxZa14nn5pJEXqxAQAAAABybVstfXYEAMDSGVAAAAAAAAAAAABAri47AABgDQwoAAAAAAAAAAAAIM/B9QkAgNswoAAAAAAAAAAAAIA8XXYAAMBafDqfz+/6Dz5//fa+/wAAAAAAAAAAAAB4zaHV8iU7AgBgLd57gSIi4jB4BQAAAAAAAAAAAKzPJjsAAGBNrhlQ7IeOAAAAAAAAAAAAgJU5RcRDdgQAwJoYUAAAAAAAAAAAAMDtbVotx+wIAIA1MaAAAAAAAAAAAACA29tkBwAArI0BBQAAAAAAAAAAANzWo+sTAAC3Z0ABAAAAAAAAAAAAt9VlBwAArJEBBQAAAAAAAAAAANzOY6tlnx0BALBG7x5Q+IMbAAAAAAAAAAAAXG2THQAAsFbXXKCIiDgMWgEAAAAAAAAAAADLt2217LIjAADW6toBxX7ICAAAAAAAAAAAAFiBLjsAAGDNrh1QWMACAAAAAAAAAADA221bLX12BADAml07oDgOWgEAAAAAAAAAAADL9pAdAACwdi5QAAAAAAAAAAAAwLgOrZaH7AgAgLVzgQIAAAAAAAAAAADG1WUHAADgAgUAAAAAAAAAAACMyfUJAICJuGpA0WpxgQIAAAAAAAAAAAB+b5MdAADAd9deoIiI2A5WAQAAAAAAAAAAAMtzioiH7AgAAL77yIDCFQoAAAAAAAAAAAD4uU2rxb+1AwCYiI8MKHaDVQAAAAAAAAAAAMCynCJikx0BAMBfXKAAAAAAAAAAAACA4T24PgEAMC0uUAAAAAAAAAAAAMDwXJ8AAJiYjwwo9kNFAAAAAAAAAAAAwII8tlr22REAAPzo6gGFP9wBAAAAAAAAAADAq7rsAAAA/ttHLlBERLwMUgEAAAAAAAAAAADL4PoEAMBEfXRAcRykAgAAAAAAAAAAAJZhkx0AAMDrPjqg6IeIAAAAAAAAAAAAgAXYtlp22REAALzOBQoAAAAAAAAAAAAYRpcdAADAz310QGEpCwAAAAAAAAAAAN+vT/TZEQAA/NxHBxT7ISIAAAAAAAAAAABg5rrsAAAAfu3T+Xz+0AOfv3772AMAAAAAAAAAAAAwb4dWy5fsCAAAfu2jFygiIl4GeAMAAAAAAAAAAADmqssOAADg94YYUBwHeAMAAAAAAAAAAADm6NBqeciOAADg94YYUPQDvAEAAAAAAAAAAABz1GUHAADwNkMMKPYDvAEAAAAAAAAAAABz4/oEAMCMGFAAAAAAAAAAAADAdbrsAAAA3m6IAcVugDcAAAAAAAAAAABgTk6uTwAAzMuHBxStluMQIQAAAAAAAAAAADAjm+wAAADeZ4gLFBER24HeAQAAAAAAAAAAgKk7hQEFAMDsDDWg2A/0DgAAAAAAAAAAAEzdptVyzI4AAOB9DCgAAAAAAAAAAADg7VyfAACYqaEGFLuB3gEAAAAAAAAAAIApc30CAGCmhhpQ+MMgAAAAAAAAAAAAS+f6BADAjA0yoGi19EO8AwAAAAAAAAAAABP25PoEAMB8DXWBIiLiMOBbAAAAAAAAAAAAMDVddgAAANcbckCxH/AtAAAAAAAAAAAAmJLHVss+OwIAgOsNOaDoB3wLAAAAAAAAAAAApqTLDgAA4GOGHFAcB3wLAAAAAAAAAAAApsL1CQCABRhyQLEb8C0AAAAAAAAAAACYii47AACAjzOgAAAAAAAAAAAAgJ9zfQIAYCEGG1C0Wo4RcRrqPQAAAAAAAAAAAJiALjsAAIBhDHmBIsIVCgAAAAAAAAAAAJbD9QkAgAUZekCxH/g9AAAAAAAAAAAAyLLJDgAAYDgGFAAAAAAAAAAAAPDftq2WXXYEAADDGXpA0Q/8HgAAAAAAAAAAAGTosgMAABiWCxQAAAAAAAAAAADwo22rpc+OAABgWIMOKFot+yHfAwAAAAAAAAAAgARddgAAAMMb+gJFRMR2hDcBAAAAAAAAAADgFlyfAABYqDEGFPsR3gQAAAAAAAAAAIBb6LIDAAAYhwEFAAAAAAAAAAAAfOf6BADAgo0xoOhHeBMAAAAAAAAAAADG1mUHAAAwHhcoAAAAAAAAAAAAwPUJAIDFG3xA0WrZD/0mAAAAAAAAAAAAjKzLDgAAYFxjXKCIiNiO9C4AAAAAAAAAAAAMzfUJAIAVGGtAsR/pXQAAAAAAAAAAABhalx0AAMD4DCgAAAAAAAAAAABYM9cnAABWYqwBRT/SuwAAAAAAAAAAADCkLjsAAIDbcIECAAAAAAAAAACAtXJ9AgBgRUYZULRa9hFxGuNtAAAAAAAAAAAAGEiXHQAAwO2MdYEiImI34tsAAAAAAAAAAADwEa5PAACsjAEFAAAAAAAAAAAAa9RlBwAAcFtjDij2I74NAAAAAAAAAAAA13J9AgBghVygAAAAAAAAAAAAYG267AAAAG7PgAIAAAAAAAAAAIA1cX0CAGClRhtQtFqOEXEY630AAAAAAAAAAAC4QpcdAABAjjEvUERE7Ed+HwAAAAAAAAAAAN7K9QkAgBUbe0DRj/w+AAAAAAAAAAAAvFWXHQAAQJ6xBxS7kd8HAAAAAAAAAACAt3B9AgBg5cYeUOxHfh8AAAAAAAAAAADeossOAAAg16fz+TzqBz5//TbuBwAAAAAAAAAAAODXtq2Wf2dHAACQa+wLFBERLzf4BgAAAAAAAAAAAPxMlx0AAEC+Wwwodjf4BgAAAAAAAAAAALxm22rpsyMAAMh3iwHF/gbfAAAAAAAAAAAAgNd02QEAAEzDLQYU/Q2+AQAAAAAAAAAAAP/k+gQAAP/fLQYUuxt8AwAAAAAAAAAAAP6pyw4AAGA6Rh9QtFqOEXEY+zsAAAAAAAAAAADwN65PAADwg1tcoIiI2N/oOwAAAAAAAAAAABDh+gQAAP9wqwFFf6PvAAAAAAAAAAAAgOsTAAD8l1sNKHY3+g4AAAAAAAAAAAB02QEAAEyPAQUAAAAAAAAAAABL4voEAACvusmAotWyv8V3AAAAAAAAAAAAWL0uOwAAgGm61QWKiIjtDb8FAAAAAAAAAADA+rg+AQDAT91yQLG74bcAAAAAAAAAAABYny47AACA6TKgAAAAAAAAAAAAYAkeXZ8AAOBXDCgAAAAAAAAAAABYgi47AACAabvZgKLVYkABAAAAAAAAAADAGB5bLfvsCAAApu2WFygiIl5u/D0AAAAAAAAAAACWr8sOAABg+m49oHCFAgAAAAAAAAAAgCG5PgEAwJsYUAAAAAAAAAAAADBnXXYAAADzYEABAAAAAAAAAADAXLk+AQDAm910QNFq6W/5PQAAAAAAAAAAABatyw4AAGA+bn2BIiLiJeGbAAAAAAAAAAAALIvrEwAAvEvGgGKX8E0AAAAAAAAAAACW4xQR99kRAADMiwEFAAAAAAAAAAAAc7NptRyzIwAAmBcDCgAAAAAAAAAAAObkFBGb7AgAAObn5gOKVkt/628CAAAAAAAAAACwGK5PAABwlYwLFBERL0nfBQAAAAAAAAAAYL5cnwAA4GpZA4pd0ncBAAAAAAAAAACYL9cnAAC4mgEFAAAAAAAAAAAAc3AI1ycAAPgAAwoAAAAAAAAAAADmoHN9AgCAj/h0Pp9TPvz567ecDwMAAAAAAAAAADA3h1bLl+wIAADmLesCRUTES+K3AQAAAAAAAAAAmI8uOwAAgPnLHFDsEr8NAAAAAAAAAADAPBxaLQ/ZEQAAzF/mgKJP/DYAAAAAAAAAAADz0GUHAACwDC5QAAAAAAAAAAAAMFVb1ycAABhK2oCi1WJAAQAAAAAAAAAAwK902QEAACxH5gWKiIht8vcBAAAAAAAAAACYpm2rpc+OAABgObIHFK5QAAAAAAAAAAAA8JouOwAAgGUxoAAAAAAAAAAAAGBqXJ8AAGBw2QOKPvn7AAAAAAAAAAAATM99dgAAAMuTOqBotewj4pTZAAAAAAAAAAAAwKQ8tlp22REAACxP9gWKiAh/0AUAAAAAAAAAAOA/uuwAAACWaQoDij47AAAAAAAAAAAAgEl4bLXssyMAAFgmAwoAAAAAAAAAAACm4BSuTwAAMKIpDCh22QEAAAAAAAAAAACk27g+AQDAmNIHFK2WY0QcsjsAAAAAAAAAAABIc4qITXYEAADLlj6guOizAwAAAAAAAAAAAEizufwYLwAAjGYqA4pddgAAAAAAAAAAAAApDuH6BAAAN2BAAQAAAAAAAAAAQKbO9QkAAG7h0/l8zm6IiIjPX79NIwQAAAAAAAAAAIBbObRavmRHAACwDlO5QBERsc0OAAAAAAAAAAAA4Ka67AAAANZjSgOKXXYAAAAAAAAAAAAAN/PSannIjgAAYD2mNKDoswMAAAAAAAAAAAC4mfvsAAAA1mVKAwoXKAAAAAAAAAAAANZh22rpsyMAAFiXyQwoWi37iDhkdwAAAAAAAAAAADC6LjsAAID1mcyA4sIVCgAAAAAAAAAAgGV7dH0CAIAMUxtQ9NkBAAAAAAAAAAAAjKrLDgAAYJ0MKAAAAAAAAAAAALiVx1bLPjsCAIB1mtSAotWyy24AAAAAAAAAAABgFKeIuM+OAABgvSY1oLjYZgcAAAAAAAAAAAAwuE2r5ZgdAQDAek1xQNFnBwAAAAAAAAAAADCoU0RssiMAAFi3KQ4odtkBAAAAAAAAAAAADKpzfQIAgGxTHFD02QEAAAAAAAAAAAAM5tBqcX0CAIB0kxtQXFbGL9kdAAAAAAAAAAAADKLLDgAAgIgJDigudtkBAAAAAAAAAAAAfNhLq+UhOwIAACKmO6DoswMAAAAAAAAAAAD4sPvsAAAA+A8DCgAAAAAAAAAAAMawbbX02REAAPAfkxxQtFr2EXHK7gAAAAAAAAAAAOBqrk8AADApkxxQXPTZAQAAAAAAAAAAAFzlsdWyy44AAIC/M6AAAAAAAAAAAABgaF12AAAA/JMBBQAAAAAAAAAAAEP6o9Wyz44AAIB/muyAwvk2AAAAAAAAAACA2TlFxCY7AgAAXjPZAcXFNjsAAAAAAAAAAACAN9u0Wo7ZEQAA8JqpDyj67AAAAAAAAAAAAADe5NBq6bIjAADgZwwoAAAAAAAAAAAAGEKXHQAAAL/y6Xw+Zzf80uev36YdCAAAAAAAAAAAwLbV8u/sCAAA+JWpX6CIiNhmBwAAAAAAAAAAAPBLXXYAAAD8zhwGFH12AAAAAAAAAAAAAD+1bbX02REAAPA7cxhQ7LIDAAAAAAAAAAAA+Km77AAAAHiLOQwo+uwAAAAAAAAAAAAAXvXYatlnRwAAwFtMfkDRajlGxEt2BwAAAAAAAAAAAD84RcR9dgQAALzV5AcUF312AAAAAAAAAAAAAD/YXH4gFwAAZsGAAgAAAAAAAAAAgPc6RMQmOwIAAN7DgAIAAAAAAAAAAID36lyfAABgbj6dz+fshjf5/PXbLiL+b3YHAAAAAAAAAADAyr20Wv5fdgQAALzXXC5QRLhCAQAAAAAAAAAAMAX32QEAAHANAwoAAAAAAAAAAADeattq6bMjAADgGgYUAAAAAAAAAAAAvNVddgAAAFxrNgOKVssxIl6yOwAAAAAAAAAAAFbqsdWyz44AAIBrzWZAcdFnBwAAAAAAAAAAAKzQKSLusyMAAOAjDCgAAAAAAAAAAAD4nU2r5ZgdAQAAH2FAAQAAAAAAAAAAwK8cImKTHQEAAB81qwHFZcH8kt0BAAAAAAAAAACwIp3rEwAALMGsBhQXfXYAAAAAAAAAAADASmxbLQ/ZEQAAMAQDCgAAAAAAAAAAAH6myw4AAIChGFAAAAAAAAAAAADwmudWS58dAQAAQ5ndgKLVcoyIl+wOAAAAAAAAAACAhbvPDgAAgCHNbkBx0WcHAAAAAAAAAAAALNgfrZZ9dgQAAAxprgOKp+wAAAAAAAAAAACAhTpFxCY7AgAAhjbLAUWrpc9uAAAAAAAAAAAAWKiu1XLMjgAAgKHNckBxsc0OAAAAAAAAAAAAWJhDq8X1CQAAFmnOA4o+OwAAAAAAAAAAAGBh7rIDAABgLAYUAAAAAAAAAAAARERsWy19dgQAAIxltgOKyx/UT9kdAAAAAAAAAAAAC3GXHQAAAGOa7YDios8OAAAAAAAAAAAAWIDHVss+OwIAAMZkQAEAAAAAAAAAALBup4i4z44AAICxGVAAAAAAAAAAAACs26bVcsyOAACAsX06n8/ZDR/y+eu3fUT8n+wOAAAAAAAAAACAGTq0Wr5kRwAAwC3M/QJFhCsUAAAAAAAAAAAA17rPDgAAgFsxoAAAAAAAAAAAAFinbavlKTsCAABuxYACAAAAAAAAAABgnVyfAABgVWY/oGi17CPiJbsDAAAAAAAAAABgRh5bLbvsCAAAuKXZDygu+uwAAAAAAAAAAACAmTiF6xMAAKyQAQUAAAAAAAAAAMC6dK2WY3YEAADc2qfz+ZzdMIjPX78t438EAAAAAAAAAABgPIdWy5fsCAAAyLCUCxQREdvsAAAAAAAAAAAAgIm7yw4AAIAsSxpQPGUHAAAAAAAAAAAATNi21dJnRwAAQJYlDSj67AAAAAAAAAAAAIAJu8sOAACATIsZULRadhFxyu4AAAAAAAAAAACYoD9bLfvsCAAAyLSYAcXFU3YAAAAAAAAAAADAxJwiosuOAACAbEsbUPTZAQAAAAAAAAAAABNz32o5ZkcAAEC2pQ0oXKAAAAAAAAAAAAD4y0ur5SE7AgAApmBRA4rLSvoluwMAAAAAAAAAAGAi7rMDAABgKhY1oLjoswMAAAAAAAAAAAAm4LnV0mdHAADAVCxxQPGUHQAAAAAAAAAAAJDsFK5PAADADxY3oLgspk/ZHQAAAAAAAAAAAIk2rZZ9dgQAAEzJ4gYUF312AAAAAAAAAAAAQJJDRGyyIwAAYGqWOqB4yg4AAAAAAAAAAABIct9qOWZHAADA1Cx1QNFnBwAAAAAAAAAAACTYtlr8AC0AALxikQOKVss+Il6yOwAAAAAAAAAAAG7sPjsAAACmapEDios+OwAAAAAAAAAAAOCG/my17LIjAABgqpY8oHCGDgAAAAAAAAAAWItTRHTZEQAAMGWLHVC0Wvr4/pcCAAAAAAAAAACApbtvtRyzIwAAYMoWO6C46LMDAAAAAAAAAAAARvbSannIjgAAgKlb+oDiKTsAAAAAAAAAAABgZPfZAQAAMAdLH1D02QEAAAAAAAAAAAAjemy19NkRAAAwB4seULRa9hHxkt0BAAAAAAAAAAAwglO4PgEAAG+26AHFxVN2AAAAAAAAAAAAwAi6VssxOwIAAObCgAIAAAAAAAAAAGB+Dq2WTXYEAADMyeIHFK2WXXw/VQcAAAAAAAAAALAUd9kBAAAwN4sfUFy4QgEAAAAAAAAAACzFc6ulz44AAIC5MaAAAAAAAAAAAACYj1NE3GdHAADAHK1lQNFnBwAAAAAAAAAAAAxg02rZZ0cAAMAcfTqfz9kNN/H567eniPif7A4AAAAAAAAAAIArHVotX7IjAABgrtZygSLCFQoAAAAAAAAAAGDe7rIDAABgztY0oHjKDgAAAAAAAAAAALjSc6ulz44AAIA5W82AotWyj4iX7A4AAAAAAAAAAIB3OkXEfXYEAADM3WoGFBd9dgAAAAAAAAAAAMA7bS4/IAsAAHzA2gYUD9kBAAAAAAAAAAAA73BotXTZEQAAsASrGlC0Wnbx/ZwdAAAAAAAAAADAHNxlBwAAwFKsakBx8ZQdAAAAAAAAAAAA8AbPrZY+OwIAAJbCgAIAAAAAAAAAAGB6ThFxnx0BAABLssYBRZ8dAAAAAAAAAAAA8BubVss+OwIAAJbk0/l8zm64uc9fvz1FxP9kdwAAAAAAAAAAALzi0Gr5kh0BAABLs8YLFBERT9kBAAAAAAAAAAAAP3GXHQAAAEu01gFFnx0AAAAAAAAAAADwiudWS58dAQAAS7TKAUWrZR8RL9kdAAAAAAAAAAAAf3OKiPvsCAAAWKpVDiguHrIDAAAAAAAAAAAA/mZz+XFYAABgBGseUDxlBwAAAAAAAAAAAFwcWi1ddgQAACzZagcUl6X2IbsDAAAAAAAAAAAgIu6yAwAAYOlWO6C4cIUCAAAAAAAAAADI9thq6bMjAABg6dY+oHjIDgAAAAAAAAAAAFbtFBH32REAALAGqx5QtFp2EXHI7gAAAAAAAAAAAFara7UcsyMAAGANVj2guOizAwAAAAAAAAAAgFV6abVssiMAAGAtDCginrIDAAAAAAAAAACAVbrPDgAAgDX5dD6fsxvSff767RgR/8ruAAAAAAAAAAAAVuPPVosBBQAA3JALFN+5QgEAAAAAAAAAANzKKSK67AgAAFgbA4rvDCgAAAAAAAAAAIBbuW+1HLMjAABgbT6dz+fshkn4/PXbMSL+ld0BAAAAAAAAAAAs2rbV8u/sCAAAWCMXKP7SZwcAAAAAAAAAAACLd5cdAAAAa2VA8Zen7AAAAAAAAAAAAGDR/mi17LMjAABgrQwo/mJAAQAAAAAAAAAAjOUQEZvsCAAAWDMDiotWyzEinrM7AAAAAAAAAACARbq7/BslAAAgiQHFj1yhAAAAAAAAAAAAhvbcaumzIwAAYO0MKH5kQAEAAAAAAAAAAAzpFBH32REAAIABxQ8uJ/KeszsAAAAAAAAAAIDF6Fot++wIAADAgOI1rlAAAAAAAAAAAABDeGm1bLIjAACA7wwo/psBBQAAAAAAAAAAMIS77AAAAOAvBhT/0Go5RsRzdgcAAAAAAAAAADBrf7ZadtkRAADAXwwoXucKBQAAAAAAAAAAcK1DRHTZEQAAwI8MKF5nQAEAAAAAAAAAAFzrvtVyzI4AAAB+ZEDxistfXp6zOwAAAAAAAAAAgNl5brX4AVcAAJggA4qf85cYAAAAAAAAAADgPU4RcZ8dAQAAvM6A4ucMKAAAAAAAAAAAgPfoWi377AgAAOB1BhQ/0Wo5RsRzdgcAAAAAAAAAADALL62WTXYEAADwcwYUv+YKBQAAAAAAAAAA8BZ32QEAAMCvGVD8mgEFAAAAAAAAAADwO3+2WnbZEQAAwK8ZUPxCq+UYEc/ZHQAAAAAA+Mze2QAAIABJREFUAAAAwGQdIqLLjgAAAH7PgOL3XKEAAAAAAAAAAAB+5v7yQ60AAMDEGVD8ngEFAAAAAAAAAADwmudWi39fBAAAM2FA8RuXdfhzdgcAAAAAAAAAADApp4i4y44AAADezoDibazEAQAAAAAAAACAv+suP84KAADMhAHF2xhQAAAAAAAAAAAA/7FttWyyIwAAgPcxoHiDy1L8ObsDAAAAAAAAAACYhPvsAAAA4P0MKN7uITsAAAAAAAAAAABI90erZZcdAQAAvN+n8/mc3TAbn79+O0bEv7I7AAAAAAAAAACAFIdWy5fsCAAA4DouULzPU3YAAAAAAAAAAACQ5i47AAAAuJ4BxfsYUAAAAAAAAAAAwDr92WrpsyMAAIDrGVC8Q6vlKSJO2R0AAAAAAAAAAMBNnSKiy44AAAA+xoDi/VyhAAAAAAAAAACAdblrtRyzIwAAgI8xoHi/TXYAAAAAAAAAAABwM8+tFj+6CgAAC2BA8U6tll1EHLI7AAAAAAAAAACA0Z0i4i47AgAAGIYBxXUsygEAAAAAAAAAYPm6VssxOwIAABiGAcV1HrIDAAAAAAAAAACAUW1bLZvsCAAAYDgGFFdotewi4iW7AwAAAAAAAAAAGM1ddgAAADAsA4rrPWQHAAAAAAAAAAAAo/ij1bLPjgAAAIZlQHG9p+wAAAAAAAAAAABgcC+tli47AgAAGJ4BxZUuC/NtdgcAAAAAAAAAADCou+yA/2Xv3o7byLI0jG5a0BHHAGg8UJUFYlvQbAsGioABlAegB9T7eQA9oDwgPQA9AI8BCMCCnAeierqqdKMIYOdlLQu+1wTyzw0AAJyGAcXbrLIDAAAAAAAAAACAo7lptayzIwAAgNMwoHib++wAAAAAAAAAAADgKJ4j4jY7AgAAOB0Dijdotewi4i67AwAAAAAAAAAAeLP54X0gAABgpAwo3s4VCgAAAAAAAAAAGLbPrZaH7AgAAOC0DCjeqNVyHxH77A4AAAAAAAAAAOCXPEfEMjsCAAA4PQOK41hlBwAAAAAAAAAAAL/kutWyy44AAABOz4DiOFbZAQAAAAAAAAAAwKt9abXcZ0cAAADnYUBxBK2Wdbyc8gMAAAAAAAAAAIZhHxHz7AgAAOB8DCiO5zY7AAAAAAAAAAAA+GnzVssuOwIAADgfA4rjccoPAAAAAAAAAACG4Uurxfs+AAAwMQYUR9Jq2UTEY3YHAAAAAAAAAADwXfuImGdHAAAA52dAcVyr7AAAAAAAAAAAAOC7rlstu+wIAADg/Awojus+XhbqAAAAAAAAAABA/zy2WlbZEQAAQA4DiiM6LNPvszsAAAAAAAAAAIC/2UfEPDsCAADIY0BxfKvsAAAAAAAAAAAA4G+WrZZNdgQAAJDnouu67IbRmS22m4h4l90BAAAAAAAAAABERMRjq+UyOwIAAMjlAsVprLIDAAAAAAAAAACAiIjYR8Q8OwIAAMhnQHEaq+wAAAAAAAAAAAAgIiKWrZZNdgQAAJDvouu67IZRmi22DxHxIbsDAAAAAAAAAAAm7LHVcpkdAQAA9IMLFKezyg4AAAAAAAAAAIAJ20fEPDsCAADoDwOK07mPl4cwAAAAAAAAAADg/Jatlk12BAAA0B8GFCfSatnFy4gCAAAAAAAAAAA4r8dWy212BAAA0C8GFKflIQwAAAAAAAAAAM5rHxHz7AgAAKB/DChOqNWyjojn7A4AAAAAAAAAAJiQZatlkx0BAAD0jwHF6blCAQAAAAAAAAAA5/HYavG+DgAA8FUGFKe3yg4AAAAAAAAAAIAJ2EfEPDsCAADoLwOKE2u17CLiS3YHAAAAAAAAAACM3LLVssmOAAAA+suA4jxW2QEAAAAAAAAAADBij62W2+wIAACg3wwozqDVch8Rz9kdAAAAAAAAAAAwQvuImGdHAAAA/WdAcT732QEAAAAAAAAAADBCy1bLJjsCAADoPwOK83EiEAAAAAAAAAAAjuux1eK9HAAA4KcYUJzJYeX+mN0BAAAAAAAAAAAjsY+IeXYEAAAwHAYU57XKDgAAAAAAAAAAgJFYHj5qCgAA8FMuuq7LbpiU2WK7i4h/ZHcAAAAAAAAAAMCAPbZaLrMjAACAYXGB4vxW2QEAAAAAAAAAADBg+4iYZ0cAAADDY0BxfrfZAQAAAAAAAAAAMGDLVssmOwIAABiei67rshsmZ7bYriPifXYHAAAAAAAAAAAMzGOr5TI7AgAAGCYXKHK4QgEAAAAAAAAAAK+zj4ir7AgAAGC4DChy3MfLAx0AAAAAAAAAAPBz5q2WXXYEAAAwXAYUCQ4PcvfZHQAAAAAAAAAAMBBfWi3etwEAAN7EgCLPbXYAAAAAAAAAAAAMwD4i5tkRAADA8BlQJGm1rCPiKbsDAAAAAAAAAAB6bt5q2WVHAAAAw2dAkcsVCgAAAAAAAAAA+LYvrZb77AgAAGAcDCgStVpW8XJiEAAAAAAAAAAA+LPniJhnRwAAAONhQJFvlR0AAAAAAAAAAAA9NG+17LIjAACA8TCgyHebHQAAAAAAAAAAAD3zudXykB0BAACMiwFFslbLJiIeszsAAAAAAAAAAKAnniNimR0BAACMjwFFP6yyAwAAAAAAAAAAoCeuWi277AgAAGB8DCh6oNWyioh9dgcAAAAAAAAAACS7abWssyMAAIBxMqDoj9vsAAAAAAAAAAAASPTUallmRwAAAONlQNEfq+wAAAAAAAAAAABINM8OAAAAxs2AoidaLZuI+JLdAQAAAAAAAAAACT61WtbZEQAAwLgZUPTLKjsAAAAAAAAAAADO7LHVcpsdAQAAjJ8BRY+0Wu4j4jm7AwAAAAAAAAAAzmQfEfPsCAAAYBoMKPrHmh4AAAAAAAAAgKm4brVssiMAAIBpMKDon1V2AAAAAAAAAAAAnMGXVssqOwIAAJgOA4qeabXsIuIuuwMAAAAAAAAAAE5oHxHz7AgAAGBaDCj66TY7AAAAAAAAAAAATujq8KFRAACAszGg6KFWyzoinrI7AAAAAAAAAADgBD63Wh6yIwAAgOkxoOgvVygAAAAAAAAAABib54hYZkcAAADTdNF1XXYD3zBbbHcR8Y/sDgAAAAAAAAAAOJLfWy3r7AgAAGCaXKDoN1coAAAAAAAAAAAYixvjCQAAIJMBRb+tsgMAAAAAAAAAAOAInloty+wIAABg2gwoeqzVsomIu+wOAAAAAAAAAAB4g31EXGVHAAAAGFD03yo7AAAAAAAAAAAA3uD68CFRAACAVBdd12U38AOzxXYdEe+zOwAAAAAAAAAA4JW+tFpcnwAAAHrBBYphuM0OAAAAAAAAAACAV9pHxDw7AgAA4A8uUAzEbLHdRcQ/sjsAAAAAAAAAAOAn/bPV8pAdAQAA8AcXKIbDFQoAAAAAAAAAAIbis/EEAADQNwYUw7HKDgAAAAAAAAAAgJ/w1Gq5zo4AAAD4KwOKgWi1bCLiLrsDAAAAAAAAAAB+YJ4dAAAA8DUGFMOyyg4AAAAAAAAAAIDv+NRqWWdHAAAAfM1F13XZDbzCbLF9iIgP2R0AAAAAAAAAAPAXj62Wy+wIAACAb3GBYnhW2QEAAAAAAAAAAPAX+4i4yo4AAAD4HhcoBmi22G4i4l12BwAAAAAAAAAAHPy71XKfHQEAAPA9LlAM0yo7AAAAAAAAAAAADj4bTwAAAENgQDFMt/Fy9hAAAAAAAAAAADI9RcQyOwIAAOBnGFAMUKtlFxFW+wAAAAAAAAAAZJsf3mUBAADoPQOK4VpmBwAAAAAAAAAAMGmfWi3r7AgAAICfZUAxUK2WTUR8ye4AAAAAAAAAAGCSHlstt9kRAAAAr2FAMWweQgEAAAAAAAAAOLd9RFxlRwAAALyWAcWAtVoeIuIpuwMAAAAAAAAAgEm5arXssiMAAABey4Bi+FyhAAAAAAAAAADgXD4fPvoJAAAwOBdd12U38EazxXYTEe+yOwAAAAAAAAAAGLWnVstv2REAAAC/ygWKcVhlBwAAAAAAAAAAMGr7iJhnRwAAALyFAcU43MbLQyoAAAAAAAAAAJzCstWyzo4AAAB4CwOKEWi17MIVCgAAAAAAAAAATuNLq+U2OwIAAOCtDCjGw0MqAAAAAAAAAADH9hwR8+wIAACAYzCgGIlWyyYi7rI7AAAAAAAAAAAYlXmrZZcdAQAAcAwGFOPiCgUAAAAAAAAAAMdy02p5yI4AAAA4louu67IbOKLZYvsQER+yOwAAAAAAAAAAGLTHVstldgQAAMAxuUAxPsvsAAAAAAAAAAAABm0fEfPsCAAAgGMzoBiZw9nE5+wOAAAAAAAAAAAGa95q2WRHAAAAHJsBxTgtswMAAAAAAAAAABikz62W++wIAACAU7joui67gROYLbabiHiX3QEAAAAAAAAAwGA8tVp+y44AAAA4FRcoxus2OwAAAAAAAAAAgMHYR8Q8OwIAAOCUDCjGaxUvD7YAAAAAAAAAAPAj162WdXYEAADAKRlQjFSrZReuUAAAAAAAAAAA8GN3rZZVdgQAAMCpGVCM2224QgEAAAAAAAAAwLc9RcR1dgQAAMA5GFCM2OEKxX12BwAAAAAAAAAAvTU/vGMCAAAwegYU47fMDgAAAAAAAAAAoJc+tVrW2REAAADnYkAxcq2WTUTcZXcAAAAAAAAAANArX1ott9kRAAAA52RAMQ3L7AAAAAAAAAAAAHrjOSLm2REAAADnZkAxAYcrFF+yOwAAAAAAAAAA6IWrVssuOwIAAODcDCimw8lFAAAAAAAAAAA+tVrW2REAAAAZLrquy27gTGaL7UNEfMjuAAAAAAAAAAAgxZdWy1V2BAAAQBYXKKZlmR0AAAAAAAAAAECK54iYZ0cAAABkMqCYkFbLQ0Q8ZncAAAAAAAAAAHB281bLLjsCAAAgkwHF9KyyAwAAAAAAAAAAOKubw4c3AQAAJu2i67rsBs5stthuIuJddgcAAAAAAAAAACf32Gq5zI4AAADoAxcopmmZHQAAAAAAAAAAwMntI+IqOwIAAKAvXKCYKFcoAAAAAAAAAABG75+tlofsCAAAgL5wgWK6ltkBAAAAAAAAAACczI3xBAAAwJ+5QDFhrlAAAAAAAAAAAIzSY6vlMjsCAACgb1ygmLZldgAAAAAAAAAAAEf1HBFX2REAAAB95ALFxLlCAQAAAAAAAAAwKr+3WtbZEQAAAH3kAgWr7AAAAAAAAAAAAI7ik/EEAADAtxlQcBsR++wIAAAAAAAAAADe5Eur5TY7AgAAoM8MKCau1bKLlxEFAAAAAAAAAADD9BwR8+wIAACAvjOgIMIVCgAAAAAAAACAIbs6fEQTAACA7zCgwBUKAAAAAAAAAIDh+tRqWWdHAAAADIEBBX9whQIAAAAAAAAAYFjuWi0+mgkAAPCTDCiICFcoAAAAAAAAAAAG5ikirrMjAAAAhsSAgv/mCgUAAAAAAAAAQP/tI2J++GAmAAAAP8mAgv9whQIAAAAAAAAAYBCuWy3r7AgAAIChMaDgr1yhAAAAAAAAAADor7tWyyo7AgAAYIgMKPgTVygAAAAAAAAAAHrrqdUyz44AAAAYKgMKvsYVCgAAAAAAAACAftlHxFV2BAAAwJAZUPA3rlAAAAAAAAAAAPTOvNWyyY4AAAAYMgMKvsUVCgAAAAAAAACAfvjcarnPjgAAABg6Awq+yhUKAAAAAAAAAIBeeGy1XGdHAAAAjIEBBd/jCgUAAAAAAAAAQJ59RFxlRwAAAIyFAQXf5AoFAAAAAAAAAECqy8P7GwAAAByBAQU/4goFAAAAAAAAAMD5fWq1rLMjAAAAxsSAgu86fMVgmd0BAAAAAAAAADAhd62W2+wIAACAsTGg4IcOD+TP2R0AAAAAAAAAABPwFBHX2REAAABjZEDBz1pmBwAAAAAAAAAAjNw+Iuatll12CAAAwBhddF2X3cBAzBbbTUS8y+4AAAAAAAAAABipf7da7rMjAAAAxsoFCl5jmR0AAAAAAAAAADBSn40nAAAATssFCl7FFQoAAAAAAAAAgKN7bLVcZkcAAACMnQsUvNYyOwAAAAAAAAAAYET2EXGVHQEAADAFLlDwarPFdh0R77M7AAAAAAAAAABG4PdWyzo7AgAAYApcoOBXXGcHAAAAAAAAAACMwEfjCQAAgPMxoODVWi0PEfGY3QEAAAAAAAAAMGB3rZZVdgQAAMCUGFDwq5bZAQAAAAAAAAAAA/UUEdfZEQAAAFNz0XVddgMDNVtsHyLiQ3YHAAAAAAAAAMCA7CPit1bLJjsEAABgalyg4C2W2QEAAAAAAAAAAANzZTwBAACQw4CCX9ZqeYiIu+wOAAAAAAAAAICB+HR43wIAAIAEBhS81TI7AAAAAAAAAABgAL60Wm6zIwAAAKbMgII3OZyUdIUCAAAAAAAAAODbniJinh0BAAAwdQYUHMMyIvbZEQAAAAAAAAAAPbSPiHmrZZcdAgAAMHUGFLzZ4QqFE5MAAAAAAAAAAH83b7WssyMAAAAwoOB4bsMVCgAAAAAAAACA/3bTarnPjgAAAOCFAQVHcTgz6QoFAAAAAAAAAMCLL62WZXYEAAAA/8+AgmO6jYjn7AgAAAAAAAAAgGRPETHPjgAAAODPDCg4msMVimV2BwAAAAAAAABAon1EzA/vUQAAANAjF13XZTcwMrPFdhMR77I7AAAAAAAAAAAS/LvVcp8dAQAAwN+5QMEpzLMDAAAAAAAAAAAS3BhPAAAA9JcLFJzEbLF9iIgP2R0AAAAAAAAAAGfypdVylR0BAADAt7lAwaksswMAAAAAAAAAAM7kKSLm2REAAAB8nwEFJ9FqeYiIL9kdAAAAAAAAAAAnto+Ieatllx0CAADA9xlQcErX2QEAAAAAAAAAACc2b7WssyMAAAD4MQMKTqbVsomIz9kdAAAAAAAAAAAn8qnVcp8dAQAAwM8xoODUlvFyqhIAAAAAAAAAYEzuWi232REAAAD8PAMKTqrVsosIPxYAAAAAAAAAAGPyFBHX2REAAAC8zkXXddkNTMBssd1ExLvsDgAAAAAAAACAN9pHxG+tlk12CAAAAK/jAgXnsswOAAAAAAAAAAA4gkvjCQAAgGEyoOAsWi2reDlfCQAAAAAAAAAwVB9bLevsCAAAAH6NAQXndJ0dAAAAAAAAAADwi+4OH5AEAABgoC66rstuYEJmi+19RPwruwMAAAAAAAAA4BUeWy2X2REAAAC8jQsUnJsrFAAAAAAAAADAkDxHxFV2BAAAAG9nQMFZtVo2EfE5uwMAAAAAAAAA4CfsI+Kq1bLLDgEAAODtDCjIsIyXHxgAAAAAAAAAAPps3mpZZ0cAAABwHAYUnN3hqwzL7A4AAAAAAAAAgO+4abXcZ0cAAABwPBdd12U3MFGzxXYTEe+yOwAAAAAAAAAA/uKu1TLPjgAAAOC4XKAg03V2AAAAAAAAAADAXzyFdxoAAABGyQUKUs0W24eI+JDdAQAAAAAAAAAQEfuI+J9Wyy47BAAAgONzgYJsvtgAAAAAAAAAAPTBPiIujScAAADGy4CCVK2WdUTcZXcAAAAAAAAAAJN3fXiPAQAAgJEyoKAPruPlKw4AAAAAAAAAABk+t1pW2REAAACclgEF6Q6nL5fZHQAAAAAAAADAJH1ptVxnRwAAAHB6BhT0QqvlNiKeszsAAAAAAAAAgEl5ioh5dgQAAADnYUBBn8yzAwAAAAAAAACAydhHxFWrZZcdAgAAwHkYUNAbrZaHiHjM7gAAAAAAAAAAJuGy1bLJjgAAAOB8DCjom3l2AAAAAAAAAAAweh9bLevsCAAAAM7LgIJeOXzZ4Sa7AwAAAAAAAAAYrZtWyyo7AgAAgPMzoKCPbiNinx0BAAAAAAAAAIzOXatlmR0BAABADgMKeqfVsouI6+wOAAAAAAAAAGBUnsL7CAAAAJN20XVddgN81WyxfYiID9kdAAAAAAAAAMDg7SPifw4fdQQAAGCiXKCgz5bZAQAAAAAAAADA4O0j4tJ4AgAAAAMKeqvV8hARd9kdAAAAAAAAAMCgXbda1tkRAAAA5DOgoO+u4+VLEAAAAAAAAAAAr/Wp1bLKjgAAAKAfDCjotcP5zGV2BwAAAAAAAAAwOHetltvsCAAAAPrjouu67Ab4odliu46I99kdAAAAAAAAAMAgPLZaLrMjAAAA6BcXKBiK6+wAAAAAAAAAAGAQniLiKjsCAACA/jGgYBBaLQ8RcZfdAQAAAAAAAAD02j4i5q2WXXYIAAAA/WNAwZBcx8sPHQAAAAAAAAAAX3PZallnRwAAANBPBhQMxuHrEMvsDgAAAAAAAACglz4aTwAAAPA9F13XZTfAq8wW23VEvM/uAAAAAAAAAAB646bVssyOAAAAoN9coGCIrrMDAAAAAAAAAIDeuDOeAAAA4Ge4QMEgzRbbVUT8b3YHAAAAAAAAAJDqqdXyW3YEAAAAw+ACBUN1HRH77AgAAAAAAAAAIM1TRFxmRwAAADAcBhQMUqtlFxHL7A4AAAAAAAAAIMU+IuaH9wcAAADgp1x0XZfdAL9sttiuI+J9dgcAAAAAAAAAcFa/t1rW2REAAAAMiwsUDN11dgAAAAAAAAAAcFYfjScAAAD4FQYUDFqr5SEiPmd3AAAAAAAAAABn8anVssqOAAAAYJgMKBiDZUTssyMAAAAAAAAAgJO6a7XcZkcAAAAwXAYUDF6rZRcR19kdAAAAAAAAAMDJPLZa5tkRAAAADJsBBaNwOM/5mN0BAAAAAAAAABzdU0RcZUcAAAAwfAYUjMk8OwAAAAAAAAAAOKp9RFy2WnbZIQAAAAyfAQWj0WrZRMRNdgcAAAAAAAAAcBTGEwAAABzVRdd12Q1wVLPFdhMR77I7AAAAAAAAAIA3+Wer5SE7AgAAgPFwgYIxmmcHAAAAAAAAAABv8tF4AgAAgGMzoGB0Dj+g3GV3AAAAAAAAAAC/5KbVssqOAAAAYHwMKBir64jYZ0cAAAAAAAAAAK9y12pZZkcAAAAwTgYUjFKrZRcvIwoAAAAAAAAAYBgeWy3z7AgAAADGy4CC0Tqc83zM7gAAAAAAAAAAfugpIq6yIwAAABg3AwrGbp4dAAAAAAAAAAB81z4iLlstu+wQAAAAxs2AglFrtWwi4ia7AwAAAAAAAAD4KuMJAAAAzuai67rsBji52WK7joj32R0AAAAAAAAAwJ/83mpZZ0cAAAAwDS5QMBXX2QEAAAAAAAAAwJ98NJ4AAADgnAwomIRWy0NEfM7uAAAAAAAAAAAi4mU8scqOAAAAYFoMKJiSZUQ8Z0cAAAAAAAAAwMTdGU8AAACQwYCCyWi17CLiOrsDAAAAAAAAACbsrtUyz44AAABgmi66rstugLOaLbb3EfGv7A4AAAAAAAAAmJinVstv2REAAABMlwsUTNE8IvbZEQAAAAAAAAAwIU8RcZkdAQAAwLQZUDA5rZZdvIwoAAAAAAAAAIDT20fE5eH/egAAAEhjQMEktVruI+IxuwMAAAAAAAAARs54AgAAgN4woGDK5vHyQw0AAAAAAAAAcHx/jCfW2SEAAAAQYUDBhLVaNhGxTM4AAAAAAAAAgLG6Np4AAACgTy66rstugFSzxfYhIj5kdwAAAAAAAADAiHxstayyIwAAAOC/uUABEfN4ORsKAAAAAAAAALzdjfEEAAAAfWRAweS1WjYRsUzOAAAAAAAAAIAxuGu1LLMjAAAA4Gsuuq7LboBemC2264h4n90BAAAAAAAAAAN112qZZ0cAAADAt7hAAf9vnh0AAAAAAAAAAAP1ZDwBAABA3xlQwEGrZR0RN9kdAAAAAAAAADAwTxFxmR0BAAAAP3LRdV12A/TKbLFdR8T77A4AAAAAAAAAGICniLhsteyyQwAAAOBHXKCAv5tnBwAAAAAAAADAAOwjYm48AQAAwFAYUMBftFrWEXGT3QEAAAAAAAAAPbaPl8sT6+wQAAAA+FkXXddlN0AvzRbbdUS8z+4AAAAAAAAAgB763XgCAACAoXGBAr5tnh0AAAAAAAAAAD300XgCAACAITKggG84/Nhzk90BAAAAAAAAAD3ysdWyyo4AAACAX3HRdV12A/TabLFdR8T77A4AAAAAAAAASPap1XKbHQEAAAC/ygUK+LF5ROyzIwAAAAAAAAAg0Z3xBAAAAENnQAE/0GpZR8QyuwMAAAAAAAAAkty1WubZEQAAAPBWF13XZTfAIMwW24eI+JDdAQAAAAAAAABnZDwBAADAaLhAAT9vHhH77AgAAAAAAAAAOJOniLjOjgAAAIBjMaCAn9Rq2UTEMjkDAAAAAAAAAM7hKSIuWy277BAAAAA4louu67IbYFBmi+1DRHzI7gAAAAAAAACAEzGeAAAAYJRcoIDXm0fEPjsCAAAAAAAAAE5gH8YTAAAAjJQBBbxSq2UTLyMKAAAAAAAAABgT4wkAAABGzYACfkGr5T4ivmR3AAAAAAAAAMCR/DGeWGeHAAAAwKkYUMCvm8fLD0gAAAAAAAAAMGTGEwAAAEyCAQX8osPJ0qvsDgAAAAAAAAB4oyvjCQAAAKbAgALeoNXyEBGfszsAAAAAAAAA4Bd9PPz3DQAAAKNnQAFvt4yI5+wIAAAAAAAAAHilj62WVXYEAAAAnIsBBbxRq2UXEVfZHQAAAAAAAADwCsYTAAAATI4BBRxBq2UdETfZHQAAAAAAAADwE26MJwAAAJiii67rshtgNGaL7Toi3md3AAAAAAAAAMA33LVa5tkRAAAAkMEFCjiuq4jYZ0cAAAAAAAAAwFcYTwAAADBpBhRwRK2WTURcZ3cAAAAAAAAAwF8YTwAAADB5F13XZTfA6MwW2/uI+Fd2BwAAAAAAAACE8QQAAABEhAsUcCrziNhnRwAAAAAAAAAweY/GEwAAAPDCgAJOoNWyi4ir7A4AAAAAAAAAJu0p/HcNAAAA/2FAASfSanmIiM/ZHQAAAAAAAABM0lOVuw3TAAAgAElEQVREXB4+AAgAAABExEXXddkNMGqzxXYdEe+zOwAAAAAAAACYDOMJAAAA+AoXKOD05hGxz44AAAAAAAAAYBKMJwAAAOAbDCjgxFot64hYZncAAAAAAAAAMHrGEwAAAPAdF13XZTfAJMwW2/uI+Fd2BwAAAAAAAACjtI+I31otm+wQAAAA6CsXKOB85hHxnB0BAAAAAAAAwOjs4+XyxCY7BAAAAPrMgALO5HAidZ7dAQAAAAAAAMCo/DGeWGeHAAAAQN8ZUMAZtVoeIuImuwMAAAAAAACAUTCeAAAAgFe46LouuwEmZ7bYriPifXYHAAAAAAAAwP+xdzfHcaPpmoYfKWZPBQxA0QNxLKgcC0rHAiUjsC+WBUVZcKg9Ior0gGVBkxYM6QEFAxBMC3IWmX2mq7v0RzH5ApnXZcG9BuL5XmbLeAIAAAC+kwsUUONdNh+zAAAAAAAAAOB7GU8AAADAExhQQIGhbx6SLIszAAAAAAAAAJgf4wkAAAB4IgMKKDL0zXWSj9UdAAAAAAAAAMyG8QQAAAD8AAMKqHWe5L46AgAAAAAAAIBZODOeAAAAgKczoIBCQ988Jllm80oIAAAAAAAAAHzO6dA3l9URAAAAMGcGFFBs+zrIWXUHAAAAAAAAAJNlPAEAAADPwIACJmD7oeuqugMAAAAAAACAyTGeAAAAgGdiQAHTcZbkvjoCAAAAAAAAgMkwngAAAIBn9Gq9Xlc3AFttN54k+b/VHQAAAAAAAACUM54AAACAZ+YCBUzI0Dd3SX6r7gAAAAAAAACglPEEAAAA7IALFDBBbTdeJ/mlugMAAAAAAACAF2c8AQAAADviAgVM0zLJp+oIAAAAAAAAAF6U8QQAAADskAEFTNDQN49J3lV3AAAAAAAAAPBijCcAAABgxwwoYKKGvrlL8lt1BwAAAAAAAAA7ZzwBAAAAL+DVer2ubgC+oO3GyyTvqzsAAAAAAAAA2AnjCQAAAHghLlDA9J0lua+OAAAAAAAAAODZGU8AAADACzKggIkb+uYxyTLJqjgFAAAAAAAAgOdjPAEAAAAvzIACZmDom7tsLlEAAAAAAAAAMH/GEwAAAFDAgAJmYvvx7Kq6AwAAAAAAAIAfYjwBAAAARQwoYF7OktxXRwAAAAAAAADwJMYTAAAAUOjVer2ubgC+Q9uNx0nukhwVpwAAAAAAAADw7YwnAAAAoJgLFDAzQ988JFkWZwAAAAAAAADw7YwnAAAAYAIMKGCGhr65TvKxugMAAAAAAACArzKeAAAAgIl4tV6vqxuAJ2q78SbJz9UdAAAAAAAAAPwt4wkAAACYEBcoYN7eJVlVRwAAAAAAAADwH4wnAAAAYGIMKGDGhr55TLKo7gAAAAAAAADgL4wnAAAAYIIMKGDmhr65S/JbdQcAAAAAAAAASYwnAAAAYLJerdfr6gbgGbTdeJnkfXUHAAAAAAAAwAEzngAAAIAJc4EC9sdZkvvqCAAAAAAAAIADZTwBAAAAE+cCBeyRthuPk9wlOSpOAQAAAAAAADgkxhMAAAAwAy5QwB4Z+uYhybI4AwAAAAAAAOBQrJL8l/EEAAAAzIMBBeyZoW+uk3yo7gAAAAAAAADYc6ski+0/WgAAAGAGXq3X6+oGYAfabrxO8kt1BwAAAAAAAMAe+ud44q46BAAAAPh2LlDA/lomua+OAAAAAAAAANgzxhMAAAAwUwYUsKeGvnnMZkSxKk4BAAAAAAAA2BfGEwAAADBjBhSwx7Yf7ZbVHQAAAAAAAAB7wHgCAAAAZs6AAvbc0DfXST5UdwAAAAAAAADMmPEEAAAA7IFX6/W6ugF4AW03Xif5pboDAAAAAAAAYGaMJwAAAGBPuEABh2OZ5L46AgAAAAAAAGBG7pOcGE8AAADAfnCBAg5I240nSW6SHBWnAAAAAAAAAEzdfTaXJx6rQwAAAIDn4QIFHJDtqyjvqjsAAAAAAAAAJs54AgAAAPaQAQUcmKFvbpL8Vt0BAAAAAAAAMFHGEwAAALCnXq3X6+oGoEDbjZdJ3ld3AAAAAAAAAEyI8QQAAADsMRco4HCdZfPxDwAAAAAAAIDkzxhPAAAAwF5zgQIOWNuNb5I8JDkqTgEAAAAAAACodDX0zbI6AgAAANgtFyjggG1fTlkkWRWnAAAAAAAAAFQxngAAAIADYUABB27om7skZ9UdAAAAAAAAAAWMJwAAAOCAGFAAGfrmMsnH6g4AAAAAAACAF2Q8AQAAAAfm1Xq9rm4AJqLtxuskv1R3AAAAAAAAAOzY6fahOQAAAOCAuEAB/KtlkvvqCAAAAAAAAIAdMp4AAACAA+UCBfAXbTceJ7lLclScAgAAAAAAAPDcjCcAAADggLlAAfzF0DcPSRbFGQAAAAAAAADPzXgCAAAADpwBBfAfhr65S3Ja3QEAAAAAAADwDFZJ/rfxBAAAAGBAAfyt7cfDD9UdAAAAAAAAAD9glWSxfUQOAAAAOHCv1ut1dQMwYW03XiZ5X90BAAAAAAAA8J2MJwAAAIC/cIEC+JqzJPfVEQAAAAAAAADf4T7GEwAAAMC/cYEC+Kq2G98kuUvyU3ULAAAAAAAAwFf8czzxWB0CAAAATIsLFMBXbT8svsvmxC0AAAAAAADAVBlPAAAAAJ9lQAF8k+1p22V1BwAAAAAAAMBn/BnjCQAAAOALXq3X6+oGYEbablwm+aO6AwAAAAAAAOBfXA19s6yOAAAAAKbNBQrguwx9c5nkqroDAAAAAAAAYMt4AgAAAPgmBhTAd9t+fPyzugMAAAAAAAA4eB+MJwAAAIBvZUABPNUyyX11BAAAAAAAAHCwToe+Oa+OAAAAAObj1Xq9rm4AZqrtxjdJ7pL8VN0CAAAAAAAAHJTToW8uqyMAAACAeXGBAniyoW8ek7xLsqpuAQAAAAAAAA7CKsn/MZ4AAAAAnsIFCuCHtd24SPKP6g4AAAAAAABgr62SLIa+uasOAQAAAObJBQrghw19c5PktLoDAAAAAAAA2FufYjwBAAAA/CADCuBZbE/kfqjuAAAAAAAAAPbOfZIT4wkAAADgR71ar9fVDcAeabvxMsn76g4AAAAAAABgL9xnc3nisToEAAAAmD8XKIBnNfTNMsltdQcAAAAAAAAwe1cxngAAAACe0f+qDgD20rskN0neFncAAAAAAAAA83S1fbwNAAAA4Nm4QAE8u+0LMIskn4pTAAAAAAAAgPn5YDwBAAAA7MKr9Xpd3QDsqbYbT7K5RHFUnAIAAAAAAADMw+nQN5fVEQAAAMB+coEC2Jmhb+6yuUSxKk4BAAAAAAAApm0V4wkAAABgx1ygAHau7cZlkj+qOwAAAAAAAIBJWiVZbB9oAwAAANgZFyiAndu+EnNa3QEAAAAAAABMzqcYTwAAAAAvxIACeBHbEcXH6g4AAAAAAABgMu6TnBhPAAAAAC/FgAJ4MUPfnCW5qu4AAAAAAAAAyt1mc3nisToEAAAAOByv1ut1dQNwYNpuvE7yS3UHAAAAAAAAUOJq6JtldQQAAABweFygACossznHCwAAAAAAAByWj8YTAAAAQBUXKIASbTe+SXKT5G1xCgAAAAAAAPAyToe+uayOAAAAAA6XAQVQZjuieEhyVJwCAAAAAAAA7M4qyXLom+vqEAAAAOCwva4OAA7X0DePSRbZfDAFAAAAAAAA9s8qycJ4AgAAAJgCAwqg1NA3dzGiAAAAAAAAgH10n8144q46BAAAACBJXq3X6+oGgLTduEjyj+oOAAAAAAAA4Fn8czzxWB0CAAAA8E8uUACTMPTNTZLT6g4AAAAAAADgh13FeAIAAACYIBcogElpu3GZ5I/qDgAAAAAAAOBJroa+WVZHAAAAAPwdFyiASRn65jLJh+oOAAAAAAAA4LudGk8AAAAAU+YCBTBJbTdeJnlf3QEAAAAAAAB81SrJcuib6+oQAAAAgC8xoAAmy4gCAAAAAAAAJm+VZDH0zV11CAAAAMDXvK4OAPic7Xnfq+oOAAAAAAAA4G/dJzkxngAAAADmwoACmLqzbD68AgAAAAAAANNxm83liYfqEAAAAIBv9Wq9Xlc3AHxR241vktwkeVucAgAAAAAAACRX22vyAAAAALPiAgUweUPfPCZZxCUKAAAAAAAAqPab8QQAAAAwVwYUwCwYUQAAAAAAAECpVZLToW8uqkMAAAAAnurVer2ubgD4Zm03Hie5S3JUnAIAAAAAAACHYpVkMfTNXXUIAAAAwI9wgQKYlaFvHrK5RLGqLQEAAAAAAICDcJ/kxHgCAAAA2AcGFMDsbD/OLmJEAQAAAAAAALt0m83liYfqEAAAAIDn8Gq9Xlc3ADxJ240nSW6SHBWnAAAAAAAAwL65GvpmWR0BAAAA8JxcoABmyyUKAAAAAAAA2InfjCcAAACAfeQCBTB7bTcukvyjugMAAAAAAABmbpVkOfTNdXUIAAAAwC64QAHM3tA3N0lOqzsAAAAAAABgxlZJFsYTAAAAwD4zoAD2wtA3lzGiAAAAAAAAgKe4T3I89M1ddQgAAADALhlQAHvDiAIAAAAAAAC+21U2lyceq0MAAAAAdu3Ver2ubgB4Vm03LpP8Ud0BAAAAAAAAE/dh6Jvz6ggAAACAl2JAAewlIwoAAAAAAAD4otPthXcAAACAg2FAAewtIwoAAAAAAAD4D6ski6Fv7qpDAAAAAF7a6+oAgF3ZvphzWt0BAAAAAAAAE3Gf5MR4AgAAADhUBhTAXtuOKH6r7gAAAAAAAIBif2ZzeeKhOgQAAACgyqv1el3dALBzbTdeJnlf3QEAAAAAAAAFPg59c1YdAQAAAFDNBQrgIAx9s0xyVd0BAAAAAAAAL2iV5NR4AgAAAGDDBQrgoLhEAQAAAAAAwIFYJVkMfXNXHQIAAAAwFS5QAAfFJQoAAAAAAAAOwH2SY+MJAAAAgL8yoAAOjhEFAAAAAAAAe+wqm8sTj9UhAAAAAFPzar1eVzcAlGi78TLJ++oOAAAAAAAAeCa/DX1zUR0BAAAAMFUGFMBBM6IAAAAAAABgD6ySLIe+ua4OAQAAAJiy19UBAJWGvllmc8YYAAAAAAAA5ug+ycJ4AgAAAODrXKAAiEsUAAAAAAAAzNJtkndD3zxWhwAAAADMgQEFwJYRBQAAAAAAADPyceibs+oIAAAAgDl5XR0AMBVD3yyTXFV3AAAAAAAAwBeskpwaTwAAAAB8PxcoAP6NSxQAAAAAAABM1CrJYuibu+oQAAAAgDlygQLg37hEAQAAAAAAwATdJzk2ngAAAAB4OhcoAD6j7cazJP9d3QEAAAAAAMDBu9o+AgYAAADADzCgAPiCthuXSf6o7gAAAAAAAOBgnQ59c1kdAQAAALAPDCgAvsKIAgAAAAAAgAKrJIuhb+6qQwAAAAD2xevqAICp277oc1rdAQAAAAAAwMG4T3JsPAEAAADwvFygAPhGLlEAAAAAAADwAq6GvllWRwAAAADsIxcoAL6RSxQAAAAAAADs2KnxBAAAAMDuuEAB8J1cogAAAAAAAOCZrZIshr65qw4BAAAA2GcuUAB8J5coAAAAAAAAeEb3SY6NJwAAAAB2zwUKgCdqu3GR5DrJUXEKAAAAAAAA83Q19M2yOgIAAADgULhAAfBEQ9/cJFlkc1IZAAAAAAAAvtUqyanxBAAAAMDLcoEC4Ae13XiS5CYuUQAAAAAAAPB1n5K8G/rmrjoEAAAA4NC4QAHwg7YftxdxiQIAAAAAAIAvu01yYjwBAAAAUMMFCoBn4hIFAAAAAAAAX/Bh6Jvz6ggAAACAQ2ZAAfCM2m58k82I4m1xCgAAAAAAANOwSrIc+ua6OgQAAADg0BlQADwzIwoAAAAAAAC27pO8G/rmoToEAAAAgOR1dQDAvhn65jHJIpsP4gAAAAAAABymqyQL4wkAAACA6XCBAmBHtpcorpP8XN0CAAAAAADAizod+uayOgIAAACAvzKgANixthsvk7yv7gAAAAAAAGDnPiV5N/TNXXUIAAAAAP/pdXUAwL4b+maZzYlmAAAAAAAA9tdtkhPjCQAAAIDpcoEC4IW4RAEAAAAAALC3Pgx9c14dAQAAAMCXGVAAvKC2G5dJ/qjuAAAAAAAA4Fmskrwb+uamOgQAAACAr3tdHQBwSIa+uUxyWt0BAAAAAADAD7tPcmI8AQAAADAfLlAAFNheorhIclScAgAAAAAAwPf7OPTNWXUEAAAAAN/HgAKgSNuNJ0luYkQBAAAAAAAwF6sky6FvrqtDAAAAAPh+r6sDAA7V0Dd3SRbZfGgHAAAAAABg2u6TLIwnAAAAAObLgAKg0L+MKO6LUwAAAAAAAPi8q2zGE3fVIQAAAAA83av1el3dAHDw2m58k+QmydviFAAAAAAAAP6/VZKzoW8uq0MAAAAA+HEuUABMwNA3j9lcorgtTgEAAAAAAGDjPpurE5fVIQAAAAA8DxcoACam7cbLJO+rOwAAAAAAAA7YVTaXJx6rQwAAAAB4PgYUABNkRAEAAAAAAFBilc1w4rI6BAAAAIDnZ0ABMFFtNy6T/FHdAQAAAAAAcCDukyyHvrmrDgEAAABgN15XBwDw97YvG51WdwAAAAAAAByAqyQL4wkAAACA/eYCBcDEtd14kuQmyVFxCgAAAAAAwL5ZJTnbPmwFAAAAwJ4zoACYASMKAAAAAACAZ3efZOnqBAAAAMDheF0dAMDXbT/cH2fzIR8AAAAAAIAfc5VkYTwBAAAAcFhcoACYkbYb32RzieJtcQoAAAAAAMAcrZKcDX1zWR0CAAAAwMszoACYobYbL5O8r+4AAAAAAACYkfsk74a+eagOAQAAAKCGAQXATLXdeJHk1+oOAAAAAACAGfg49M1ZdQQAAAAAtQwoAGas7cZlkj+qOwAAAAAAACZqlWQ59M11dQgAAAAA9QwoAGau7cZFkuskR8UpAAAAAAAAU3KbzXjioToEAAAAgGkwoADYA203niS5iREFAAAAAABAknwY+ua8OgIAAACAaTGgANgTbTe+yWZE8bY4BQAAAAAAoMqnbK5O3FSHAAAAADA9r6sDAHgeQ988Jlkk+bM4BQAAAAAAoMKfSU6MJwAAAAD4HBcoAPZQ242XSd5XdwAAAAAAALyAVZLzoW8uqkMAAAAAmDYDCoA91XbjMskf1R0AAAAAAAA7dJ9kOfTNXXUIAAAAANP3ujoAgN0Y+uYyyX9l8+oSAAAAAADAvvmYZGE8AQAAAMC3coECYM+13XiS5CbJUXEKAAAAAADAc1hlc3XiujoEAAAAgHkxoAA4AG03vslmRPG2OAUAAAAAAOBH3CZ5N/TNY3UIAAAAAPNjQAFwILYjiosk76tbAAAAAAAAnuC3oW8uqiMAAAAAmC8DCoAD03bjeZLfqzsAAAAAAAC+0X2S5dA3d9UhAAAAAMzb6+oAAF7W0DfnSU6rOwAAAAAAAL7BxyQL4wkAAAAAnoMLFAAHqu3GkyQ3SY6KUwAAAAAAAP7dKpurE9fVIQAAAADsDxcoAA7U9qWmk2zOXgMAAAAAAEzFbZJj4wkAAAAAnpsLFAAHru3GN0kuk/xSnAIAAAAAABy2VZLzoW8uqkMAAAAA2E8GFAAkSdpuPE/ye3UHAAAAAABwkO6TLLcXtAEAAABgJwwoAPgfbTcuk1wkOSpOAQAAAAAADsfHoW/OqiMAAAAA2H8GFAD8RduNJ0luYkQBAAAAAADs1qdsrk7cVIcAAAAAcBheVwcAMC3b09jH2ZzKBgAAAAAA2IU/k5wYTwAAAADwklygAOCz2m68TPK+ugMAAAAAANgbq2yuTlxXhwAAAABweFygAOCzhr5ZJvmtugMAAAAAANgLt0mOjScAAAAAqOICBQBf1XbjIsl1kqPiFAAAAAAAYH5WSc6HvrmoDgEAAADgsBlQAPBN2m48zmZE8bY4BQAAAAAAmI/7JO+GvnmoDgEAAAAAAwoAvlnbjW+SXCR5X90CAAAAAABM3oehb86rIwAAAADgnwwoAPhubTeeJfnv6g4AAAAAAGCS7pMsh765qw4BAAAAgH9lQAHAk7TduEhyneSoOAUAAAAAAJiOj0PfnFVHAAAAAMDfMaAA4MnabjzOZkTxtjgFAAAAAACo9SmbqxM31SEAAAAA8DmvqwMAmK+hbx6SLJJc1ZYAAAAAAACFPiY5MZ4AAAAAYOpcoADgWbTdeJbkv6s7AAAAAACAF+PqBAAAAACzYkABwLNpu3GR5DrJUXEKAAAAAACwW39mM554rA4BAAAAgG9lQAHAs2q78TibEcXb4hQAAAAAAOD5rbIZTlxXhwAAAADA9zKgAGAn2m68TPK+ugMAAAAAAHg2rk4AAAAAMGsGFADsTNuNyyQXSY6KUwAAAAAAgKdzdQIAAACAvWBAAcBOtd14kuQ6yU/VLQAAAAAAwHdzdQIAAACAvWFAAcDOtd34Jsllkl+KUwAAAAAAgG/j6gQAAAAAe8eAAoAX03bjeZLfqzsAAAAAAIAvcnUCAAAAgL1kQAHAi2q7cZHkOslRcQoAAAAAAPBXrk4AAAAAsNcMKAB4cW03vklyk+RtcQoAAAAAALDh6gQAAAAAe8+AAoAybTdeJPm1ugMAAAAAAA6YqxMAAAAAHAwDCgBKtd34LsllkqPiFAAAAAAAODSuTgAAAABwUAwoACjXduNxkuskb4tTAAAAAADgEHxKcubqBAAAAACHxoACgMlou/Eiya/VHQAAAAAAsMc+Jjl3dQIAAACAQ2RAAcCktN34LsllkqPiFAAAAAAA2CefkiyHvrmpDgEAAACAKq+rAwDgX23PhZ8kua9uAQAAAACAPfExyYnxBAAAAACHzgUKACar7caLJL9WdwAAAAAAwEzdJzkznAAAAACADQMKACat7cZ3SS6THBWnAAAAAADAnHwY+ua8OgIAAAAApsSAAoDJa7vxOMl1krfFKQAAAAAAMHW32VyduKsOAQAAAICpMaAAYDbabrxI8mt1BwAAAAAATNAqyfnQNxfVIQAAAAAwVQYUAMxK243vklwmOSpOAQAAAACAqbhNshz65qE6BAAAAACmzIACgNlpu/FNkuskP1e3AAAAAABAoVU2w4nr6hAAAAAAmAMDCgBmq+3G8yS/V3cAAAAAAECBqyRnQ988VocAAAAAwFwYUAAwa203LpJcJvmptgQAAAAAAF7Ep2yuTtxUhwAAAADA3LyuDgCAH7H9QXSS5M/iFAAAAAAA2LUPSU6MJwAAAADgaVygAGBvtN14luQ8yVFxCgAAAAAAPKfbJGdD39xVhwAAAADAnBlQALBX2m48SXKZ5G1xCgAAAAAA/KhVkvOhby6qQwAAAABgHxhQALCX2m68SPJrdQcAAAAAADzRn9lcnXioDgEAAACAfWFAAcDeartxkeQ6yVFxCgAAAAAAfKtP2QwnrqtDAAAAAGDfvK4OAIBdGfrmJslxNq90AQAAAADA1H1IcmI8AQAAAAC74QIFAAeh7cazJOdxjQIAAAAAgOm5zebqxF11CAAAAADsMwMKAA5G240nSS6TvC1OAQAAAACAJFklOR/65qI6BAAAAAAOgQEFAAen7cbzJL9XdwAAAAAAcNCusrk68VgdAgAAAACHwoACgIPUduMim2sUP9WWAAAAAABwYD4lWQ59c1MdAgAAAACHxoACgIPVduObJBdJ3le3AAAAAACw91ZJLoa+Oa8OAQAAAIBDZUABwMFru/FdNtcojopTAAAAAADYT7fZXJ14qA4BAAAAgENmQAEA+Z9rFJdJfilOAQAAAABgf3xKcjb0zXV1CAAAAABgQAEAf9F241mS87hGAQAAAADAj/mQ5GLom8fqEAAAAABgw4ACAP5N243H2Vyj+Lm2BAAAAACAGbpNshz65qE6BAAAAAD4KwMKAPiMthvPk/xe3QEAAAAAwCx8SnI29M11dQgAAAAA8PcMKADgC9puPMnmGsXb4hQAAAAAAKbrQ5KLoW8eq0MAAAAAgM8zoACAb+AaBQAAAAAAf+M2yXLom4fqEAAAAADg6wwoAOAbuUYBAAAAAMDWpyRnQ99cV4cAAAAAAN/OgAIAvpNrFAAAAAAAB+1Dkouhbx6rQwAAAACA72NAAQBPsL1GcZ3kp+oWAAAAAABexG2S5dA3D9UhAAAAAMDTGFAAwBO13fgmyXmSX4tTAAAAAADYnU9Jzoa+ua4OAQAAAAB+jAEFAPygthsXSS7jGgUAAAAAwD5ZJbkY+ua8OgQAAAAAeB6vqwMAYO6GvrlJcpLkY3EKAAAAAADP488kJ8YTAAAAALBfXKAAgGfUduNJNtco3hanAAAAAADw/e6TnG0fzgEAAAAA9owBBQDsQNuN50l+r+4AAAAAAOCbrJKcD31zUR0CAAAAAOyOAQUA7IhrFAAAAAAAs/Axm/HEY3UIAAAAALBbBhQAsGOuUQAAAAAATNJtkrOhb+6qQwAAAACAl2FAAQAvYHuN4iLJz9UtAAAAAAAH7lM2w4nr6hAAAAAA4GUZUADAC2q78SzJeZKj4hQAAAAAgEOzSnIx9M15dQgAAAAAUMOAAgBeWNuNx0ku4xoFAAAAAMBLucrm6sRjdQgAAAAAUMeAAgCKtN24THIR1ygAAAAAAHblNpvhxF11CAAAAABQz4ACAAq13fgmm2sUvxSnAAAAAADsk0/ZDCeuq0MAAAAAgOkwoACACWi7cZHNkOKn2hIAAAAAgFlbJbkY+ua8OgQAAAAAmJ7X1QEAQDL0zU2SkyQfi1MAAAAAAObqKsmx8QQAAAAA8DkuUADAxLTdeJLNNYq3xSkAAAAAAHNwm2Q59M1DdQgAAAAAMG0GFAAwUW03niU5T3JUnAIAAAAAMEWfshlO3FSHAAAAAADzYEABABPWduNxkoskvxSnAAAAAABMxSrJ2dA3l9UhAAAAAMC8GFAAwAy03fgumyHFT9UtAAAAAABFVtl8J70Y+uaxOgYAAAAAmB8DCgCYiaaRYJwAABbySURBVLYb3yQ5T/JrcQoAAAAAwEu7SnI+9M1DdQgAAAAAMF8GFAAwM203nmTzytrP1S0AAAAAADt2m+Rs6Ju76hAAAAAAYP4MKABgptpuPMvmIsVRcQoAAAAAwHO7z2Y4cVMdAgAAAADsDwMKAJixthvfZHON4n11CwAAAADAM/iU5Hzom8vqEAAAAABg/xhQAMAeaLtxkeQyyU+1JQAAAAAAT7LK5rGYi6FvHqtjAAAAAID9ZEABAHuk7cbzJGdJjopTAAAAAAC+1YcYTgAAAAAAL8CAAgD2TNuNx9m81PZLcQoAAAAAwJdcJTkf+uahOgQAAAAAOAwGFACwp/5fe3dw1MbWtmv4yQCVAmiUAWSAMthkYAY9P2TwOwQC0EDOAGcgMoAMJAXQBRmcwRKfgG1vGxBaavV1VXW1wNj1zKnbb9N20yTzJKd1lwAAAAAAvHKX5Ho9G9/XHgIAAAAADIuAAgCOXNN235NcJzmpPAUAAAAAGLa7lIsTi9pDAAAAAIBhElAAwAA0bTdJcpPkn8pTAAAAAIDhWaWEE/PaQwAAAACAYRNQAMCANG03TTJPclp3CQAAAAAwAMIJAAAAAOCgCCgAYICatrtO8j3JSeUpAAAAAMDxeUq5iHuzno0fa48BAAAAAHgmoACAgWrabpTyS8xvtbcAAAAAAEdBOAEAAAAAHDQBBQAMXNN205RrFBd1lwAAAAAAPfYjybVwAgAAAAA4ZAIKACBJ0rTdVcr/DndSeQoAAAAA0B8/knxfz8bL2kMAAAAAAP5EQAEA/E/TdqMk10n+r/YWAAAAAOCgCScAAAAAgN4RUAAA/9K03STlGsU/lacAAAAAAIflLiWcWNQeAgAAAADwXgIKAOC3mrabpoQUZ5WnAAAAAAB1CScAAAAAgN4TUAAAf9S03VVKSHFSeQoAAAAAsF/CCQAAAADgaAgoAIC/0rTdKMl1kv+rvQUAAAAA+HKrJFfCCQAAAADgmAgoAIB3adpuknKN4p/KUwAAAACA3VulXJyY1x4CAAAAALBrAgoA4EOatpsm+Z7kou4SAAAAAGAHhBMAAAAAwNETUAAAn9K03VVKSHFadwkAAAAA8AHCCQAAAABgMAQUAMCnNW03SnK9eU4qzwEAAAAA/kw4AQAAAAAMjoACANiZTUhxk+Rb7S0AAAAAwC8JJwAAAACAwRJQAAA717TdJMk8yUXdJQAAAADAhnACAAAAABg8AQUA8GWatpsm+R4hBQAAAADUIpwAAAAAANgQUAAAX65pu6uUkOK07hIAAAAAGAzhBAAAAADAGwIKAGBvmra7TgkpTipPAQAAAIBjJZwAAAAAAPgNAQUAsFdN242SXG8eIQUAAAAA7IZwAgAAAADgDwQUAEAVTdtNUq5RfKu7BAAAAAB6TTgBAAAAAPCXBBQAQFVCCgAAAAD4EOEEAAAAAMA7CSgAgIPQtN00JaS4qLsEAAAAAA7aQ5Ib4QQAAAAAwPsJKACAgyKkAAAAAIBfuku5OLGoPQQAAAAAoK8EFADAQWra7iolpDituwQAAAAAqhJOAAAAAADsiIACADhoQgoAAAAABko4AQAAAACwYwIKAKAXmra7TgkpTipPAQAAAICv9CPJzXo2vq89BAAAAADg2AgoAIDeaNpulOR68wgpAAAAADgmP1IuTixrDwEAAAAAOFYCCgCgd4QUAAAAAByJpyTzlIsTy7pTAAAAAACOn4ACAOgtIQUAAAAAPfWU5CYlnHisPQYAAAAAYCgEFABA721Ciu9J/l/lKQAAAADwX1Yp4cRcOAEAAAAAsH8CCgDgaDRtN0kJKb7VXQIAAAAAr6ySfF/PxvPaQwAAAAAAhkxAAQAcHSEFAAAAAAfiLsnNeja+rT0EAAAAAAABBQBwxIQUAAAAAFRyl3JxYlF7CAAAAAAAWwIKAODoCSkAAAAA2JMfKeHEsvYQAAAAAAD+TUABAAyGkAIAAACAL/CU5CbJXDgBAAAAAHDYBBQAwOAIKQAAAADYgVWSeZKb9Wz8WHkLAAAAAAB/QUABAAyWkAIAAACAD1gl+b6ejee1hwAAAAAA8D4CCgBg8DYhxVWS6yQnVccAAAAAcKjuUsKJRe0hAAAAAAB8jIACAGCjabtRSkQhpAAAAADg2Y+UcGJZewgAAAAAAJ8joAAAeENIAQAAADB4T0luksyFEwAAAAAAx0NAAQDwG0IKAAAAgMFZJfme5HY9Gz9W3gIAAAAAwI4JKAAA/kLTdlcpvzw/rbsEAAAAgC9wl+RmPRvf1h4CAAAAAMDXEVAAALyDkAIAAADgqPxI8n09Gy9rDwEAAAAA4OsJKAAAPmATUlwluai7BAAAAIB3ekpyk3Jx4rH2GAAAAAAA9kdAAQDwCU3bTVMuUggpAAAAAA7bQ0o0Ma89BAAAAACAOgQUAAA7sAkprpJ8q7sEAAAAgDd+JJmvZ+NF7SEAAAAAANQloAAA2KGm7SYpFymEFAAAAAD1PCW5SQknlpW3AAAAAABwIAQUAABfoGm7UZLrzXNSeQ4AAADAUKySfF/PxvPaQwAAAAAAODwCCgCAL7QJKa5SQorTumsAAAAAjtaPlGsTi9pDAAAAAAA4XAIKAIA9adruKiWkOKs8BQAAAOAYPCW5SQknlpW3AAAAAADQAwIKAIA9a9pumuR7kou6SwAAAAB66SHJzXo2ntceAgAAAABAvwgoAAAqadpukhJSfKu7BAAAAKAXfqSEE/e1hwAAAAAA0E8CCgCAyjYhxVWS6yQnVccAAAAAHJZVkpsk8/Vs/Fh7DAAAAAAA/SagAAA4EE3bjZJcplylOK27BgAAAKCqnynRxG3tIQAAAAAAHA8BBQDAAWra7jLlIsVF7S0AAAAAe/KUZJ7kZj0bL+tOAQAAAADgGAkoAAAOWNN25ykhxbfaWwAAAAC+yF3KtYl57SEAAAAAABw3AQUAQA80bTdKCSmukpzWXQMAAADwaU9JblOuTdzXHgMAAAAAwDAIKAAAeqZpu6uUmOKs8hQAAACA93pIcpPkdj0bP9YeAwAAAADAsAgoAAB6qmm7acpFim91lwAAAAD8J9cmAAAAAAA4CAIKAICea9pukhJSXCc5qToGAAAAYMu1CQAAAAAADoqAAgDgiDRtd5USUpxVngIAAAAMk2sTAAAAAAAcLAEFAMARatruPCWk+FZ7CwAAADAIrk0AAAAAAHDwBBQAAEesabtRSkhxleS07hoAAADgyLg2AQAAAABArwgoAAAGomm7y5SY4qL2FgAAAKDX7pLM17PxvPYQAAAAAAB4DwEFAMDANG03yfYqxUnVMQAAAEBfPCWZp1ybWNadAgAAAAAAHyOgAAAYsKbtrlJiirPKUwAAAIDD9DPl2sRt7SEAAAAAAPBZAgoAANK03XlKSHEZVykAAABg6FZJbpLcujYBAAAAAMAxEVAAAPA/TduNUiIKVykAAABgWJ6S3Ca5Wc/G97XHAAAAAADAVxBQAADwS65SAAAAwCDcJZmnXJt4rLwFAAAAAAC+lIACAID/5CoFAAAAHJ1VSjQxX8/Gy7pTAAAAAABgfwQUAAD8NVcpAAAAoLeektymRBOLylsAAAAAAKAKAQUAAO/mKgUAAAD0xl3KtYnb9Wz8WHkLAAAAAABUJaAAAOBTNlcprjaPqxQAAABQ3yrJTUo0say8BQAAAAAADoaAAgCAnWna7iolpLiouwQAAAAG5ynJbZKb9Wx8X3sMAAAAAAAcIgEFAAA717TdJNurFKc1twAAAMCR+5lkvp6Nb2sPAQAAAACAQyegAADgSzVtd5nkMsm32lsAAADgSDwkuUlyu56NH2uPAQAAAACAvhBQAACwF03bjVJCiuskZ5XnAAAAQN+sso0mlpW3AAAAAABALwkoAADYu6btJikhxWWS07prAAAA4GCtktwmma9n4/vaYwAAAAAAoO8EFAAAVNW03WVKSPGt9hYAAAA4AE8p0cTteja+rT0GAAAAAACOiYACAICD0LTdKCWkuE5yVnkOAAAA7NvPlEsTogkAAAAAAPgiAgoAAA5O03aTJFeb57TmFgAAAPhCP7O9NvFYewwAAAAAABw7AQUAAAetabvzlKsUl0lOKs8BAACAz3pIchPRBAAAAAAA7J2AAgCA3mja7jLlKsU/lacAAADAezwkmadEE8u6UwAAAAAAYLgEFAAA9E7TdqOUixTXSc4qzwEAAIBfEU0AAAAAAMCBEVAAANBrTdtNUmKKq4gpAAAAqEs0AQAAAAAAB0xAAQDA0Wja7jwlpLhMclp3DQAAAAMhmgAAAAAAgJ4QUAAAcJRexBRXSU6qjgEAAODYiCYAAAAAAKCHBBQAABy9pu0uU65SXEZMAQAAwMeIJgAAAAAAoOcEFAAADIqYAgAAgHcQTQAAAAAAwBERUAAAMFhiCgAAAH5BNAEAAAAAAEdKQAEAwOA1bTfKNqT4p/IcAAAA9u9nkkVEEwAAAAAAcNQEFAAA8IKYAgAAYDB+JrlNiSYea48BAAAAAAC+noACAAB+401MMU1yUnUQAAAAn/GUEkwsIpoAAAAAAIBBElAAAMBfatruOaa4jJgCAACgD1bZBhO3lbcAAAAAAACVCSgAAOADxBQAAAAHa5VyaWK+no3va48BAAAAAAAOh4ACAAA+6UVMMU1yWncNAADAID0kmadcmljWnQIAAAAAABwqAQUAAOxQ03bnSa5SggoxBQAAwNf5mXJp4nY9Gz/WHgMAAAAAABw+AQUAAHyRTUwxTQkqzqqOAQAA6L9VkkVKMHFbeQsAAAAAANBDAgoAANiDpu0mKVcppkn+qToGAACgPx6yvTJxX3sMAAAAAADQbwIKAADYs6btRtnGFJdJTqoOAgAAOCw/U6KJxXo2XlbeAgAAAAAAHBEBBQAAVNa03cuY4rTuGgAAgL1bZRtM3NYeAwAAAAAAHC8BBQAAHJCm7c5TYoqrJGdVxwAAAHydu2yjifvaYwAAAAAAgGEQUAAAwIFq2m6UcpXi+ULFSdVBAAAAH7dKssg2mnisOwcAAAAAABgiAQUAAPRE03bPIcVlktO6awAAAP7IlQkAAAAAAOCgCCgAAKCHmrabZHud4qLuGgAAgCSuTAAAAAAAAAdOQAEAAD3XtN0o28sU07hOAQAA7I8rEwAAAAAAQG8IKAAA4Mg0bXeebVDhOgUAALBLDylXJhbr2fi28hYAAAAAAIB3EVAAAMARc50CAAD4pKeUYOL5ysSy6hoAAAAAAIBPEFAAAMCANG03yTam+KfqGAAA4FDdZRtM3NceAwAAAAAAsCsCCgAAGLCm7abZBhVnVccAAAC1PKRcmVisZ+PbylsAAAAAAAC+jIACAABIkjRtN8o2ppgmOa25BwAA+DKrbIKJJLfr2fix6hoAAAAAAIA9EVAAAAC/1LTdebYxxTTJScU5AADAxz1lE0ukXJlYVl0DAAAAAABQiYACAAD4K03bTbONKS5qbgEAAP7TczCxSAkm7quuAQAAAAAAOBACCgAA4N2athvl9XWKs4pzAACA5GcEEwAAAAAAAP9JQAEAAHzam6DiMslpzT0AADAAd9kGE4u6UwAAAAAAAPpBQAEAAOxc03aTvL5QIagAAIDPEUwAAAAAAAB8koACAAD4coIKAAB4l6eUWOI+ggkAAAAAAICdEVAAAAB7J6gAAIBXnoOJRUowcV91DQAAAAAAwJESUAAAANW9CCrON++zinMAAOCrrbINJu4FEwAAAAAAAPshoAAAAA5O03ajvL5QIagAAKDPHrKJJVIuTCyrrgEAAAAAABgoAQUAANALTdtNsw0qLmpuAQCAP7jL62Dise4cAAAAAAAAEgEFAADQU03bnef1lYqTinMAABiuVTahRJL79Wy8qLoGAAAAAACA3xJQAAAAR6Fpu0lKSPEcVpxVnAMAwPF6yOvrEsuqawAAAAAAAPhrAgoAAOAoNW03yjammG4+u1IBAMB7POV1LLGougYAAAAAAIBPEVAAAACD0bTdebZRxXlcqQAA4LW7lFjCdQkAAAAAAIAjJKAAAAAGy5UKAIBBW2V7XeLedQkAAAAAAIDjJ6AAAAB4oWm7SbYxxXmSi5p7AADYiadsrkpsnvv1bPxYcxAAAAAAAAD7J6AAAAD4g6btnq9UPEcVZ1UHAQDwJ3d5fV1iWXUNAAAAAAAAB0FAAQAA8AFN203zOqo4rbkHAGDA7rIJJVJiifvKewAAAAAAADhQAgoAAIAdaNpulBJSTCOqAAD4KmIJAAAAAAAAPkxAAQAA8EVEFQAAnyKWAAAAAAAAYKcEFAAAAHv0JqqYbD6fVZwEAFDbU0oksdi8l2IJAAAAAAAAvoKAAgAA4AA0bTdNiSkmm/dFzT0AAF9kle1ViUVKLLGsOQgAAAAAAIDhEFAAAAAcqKbtXgYV0837pOIkAID3uEuyzCaYWM/Gi6prAAAAAAAAGDwBBQAAQI80bTfKNqiYbB7XKgCAmlYpocQiJZZYrmfj+5qDAAAAAAAA4FcEFAAAAEfgF9cqJklO6y0CAI7QUzbXJLK5LOGqBAAAAAAAAH0ioAAAADhiTdtNsw0rnp+TipMAgH64S4kklimXJZbr2XhZbw4AAAAAAAB8noACAABgYJq2G2UbU0wirACAIRNKAAAAAAAAMBgCCgAAAJL8NqyYJDmttwoA2BGhBAAAAAAAAIMnoAAAAOCPmrabpsQUkyTTJKMkZ9UGAQC/8pTkfvM8RigBAAAAAAAArwgoAAAA+LCm7c5TYopptoHFeZKTaqMA4Pg95EUgsXnu17PxY71JAAAAAAAAcPgEFAAAAOxc03ajlJBikm1UMYmrFQDwt1bZhBFxTQIAAAAAAAB2QkABAADAXjVtN8k2qni+XjGKuAKA4XlKCSSWeRFLrGfjRb1JAAAAAAAAcLwEFAAAAByMX8QVz++LeqsA4FOeL0k8PyIJAAAAAAAAqERAAQAAQC80bfcyqDhPCS2en9NauwAgyUOSxySLzdeLlEjivtYgAAAAAAAA4N8EFAAAAByFpu3eXq14+T6pOA2A/nt7ReL5uV/Pxo+VNgEAAAAAAADvJKAAAABgEAQWAPyH3wUSy/VsvKwzCQAAAAAAANg1AQUAAAAkadpukuTl8zKyOKs0C4DduNu875M8vngLJAAAAAAAAGBABBQAAADwl5q2m24+PocVk2xjC5EFQB0P2cQQm+c5kMh6Nl7UGgUAAAAAAAAcHgEFAAAA7FDTdm/jiiSZbt7nSU72Pgqgv95ejhBHAAAAAAAAAB8moAAAAIA9a9pulBJTJNtrFsk2tJgkOd3vKoC9eg4jlpsnSRbP31vPxssAAAAAAAAA7JiAAgAAAA7Yi4sWL6OLSbbXLSYRWwCH4SHlQkSyjSH+dzEiyf16Nn58+5cAAAAAAAAA9kVAAQAAAEfiRWyRvL5s8fbzyZ6nAf20yvY6xMsQYvni+65FAAAAAAAAAL0hoAAAAICBatpuku0li5cXLpJk+uLzJK5cQN89ZRtAZPP5+RrEMoIIAAAAAAAAYAAEFAAAAMC7NG03ffHlJNsII3l97eL5axcvYHcesg0fktchxMsrEYkYAgAAAAAAAOAVAQUAAACwN03bvQ0sJnkdYCSvr19k8/NnXzYK9meV7aWHZ4s3X78MIhIRBAAAAAAAAMDOCCgAAACA3mnabpRy3eKt6S++N8m/I41EmMF/e3vp4dnbwCH59+WHJHlcz8ZvvwcAAAAAAABARQIKAAAAgDeatpvk19HFs+kf/onfBR6/c/GOnx2C38ULv7L4w58v8++rD89EDgAAAAAAAAADIqAAAAAAOAJ/EX3sy3I9Gy9rjwAAAAAAAACAt/4/xaA+Cnpbyv8AAAAASUVORK5CYII=;" vertex="1" parent="1">
          <mxGeometry x="543.94" y="344" width="104.76" height="82.69" as="geometry" />
        </mxCell>
        <mxCell id="pTRy4IFYy6zHv_2fNpIq-61" style="edgeStyle=orthogonalEdgeStyle;shape=connector;rounded=0;orthogonalLoop=1;jettySize=auto;html=1;strokeColor=#2D9BF0;strokeWidth=2;align=center;verticalAlign=middle;fontFamily=Helvetica;fontSize=11;fontColor=default;labelBackgroundColor=default;endArrow=classic;flowAnimation=1;" edge="1" parent="1">
          <mxGeometry relative="1" as="geometry">
            <mxPoint x="669.0033113386824" y="635.2" as="targetPoint" />
            <mxPoint x="777" y="635" as="sourcePoint" />
          </mxGeometry>
        </mxCell>
        <mxCell id="pTRy4IFYy6zHv_2fNpIq-8" value="" style="shape=image;verticalLabelPosition=bottom;labelBackgroundColor=default;verticalAlign=top;aspect=fixed;imageAspect=0;image=https://logos-world.net/wp-content/uploads/2021/08/Amazon-Web-Services-AWS-Logo.png;" vertex="1" parent="1">
          <mxGeometry x="503.76" y="581" width="167.11" height="94" as="geometry" />
        </mxCell>
        <mxCell id="pTRy4IFYy6zHv_2fNpIq-9" value="" style="shape=image;verticalLabelPosition=bottom;labelBackgroundColor=default;verticalAlign=top;aspect=fixed;imageAspect=0;image=https://static-00.iconduck.com/assets.00/sqlite-icon-2048x909-7nkrc3bm.png;" vertex="1" parent="1">
          <mxGeometry x="218" y="597" width="155.34" height="69" as="geometry" />
        </mxCell>
        <mxCell id="pTRy4IFYy6zHv_2fNpIq-12" value="" style="shape=image;verticalLabelPosition=bottom;labelBackgroundColor=default;verticalAlign=top;aspect=fixed;imageAspect=0;image=https://upload.wikimedia.org/wikipedia/commons/thumb/d/d5/Slack_icon_2019.svg/2048px-Slack_icon_2019.svg.png;" vertex="1" parent="1">
          <mxGeometry x="545.97" y="834" width="82.69" height="82.69" as="geometry" />
        </mxCell>
        <mxCell id="pTRy4IFYy6zHv_2fNpIq-15" value="" style="sketch=0;aspect=fixed;pointerEvents=1;shadow=0;dashed=0;html=1;strokeColor=none;labelPosition=center;verticalLabelPosition=bottom;verticalAlign=top;align=center;fillColor=#2361A8;shape=mxgraph.azure.user" vertex="1" parent="1">
          <mxGeometry x="550.0000000000001" y="1078" width="69.56" height="74" as="geometry" />
        </mxCell>
        <mxCell id="pTRy4IFYy6zHv_2fNpIq-20" value="" style="shape=image;verticalLabelPosition=bottom;labelBackgroundColor=default;verticalAlign=top;aspect=fixed;imageAspect=0;image=https://static.vecteezy.com/system/resources/previews/022/227/365/non_2x/openai-chatgpt-logo-icon-free-png.png;clipPath=inset(20.67% 21.67% 20.67% 22%);" vertex="1" parent="1">
          <mxGeometry x="1769.85" y="541" width="32.65" height="34" as="geometry" />
        </mxCell>
        <mxCell id="pTRy4IFYy6zHv_2fNpIq-23" value="" style="shape=image;verticalLabelPosition=bottom;labelBackgroundColor=default;verticalAlign=top;aspect=fixed;imageAspect=0;image=https://www.brenomachado.dev/assets/portfolio/binarytodecimal.png;clipPath=inset(10.33% 10.67% 10.67% 10.67%);" vertex="1" parent="1">
          <mxGeometry x="1770.37" y="581.63" width="31.61" height="31.74" as="geometry" />
        </mxCell>
        <mxCell id="pTRy4IFYy6zHv_2fNpIq-25" value="" style="shape=image;html=1;verticalAlign=top;verticalLabelPosition=bottom;labelBackgroundColor=#ffffff;imageAspect=0;aspect=fixed;image=https://cdn4.iconfinder.com/data/icons/evil-icons-user-interface/64/statistics-128.png;clipPath=inset(17.97% 10.94% 18.75% 10.94%);" vertex="1" parent="1">
          <mxGeometry x="1397.55" y="739" width="58.9" height="47.71" as="geometry" />
        </mxCell>
        <mxCell id="pTRy4IFYy6zHv_2fNpIq-40" style="edgeStyle=orthogonalEdgeStyle;rounded=0;orthogonalLoop=1;jettySize=auto;html=1;strokeWidth=2;flowAnimation=1;strokeColor=#2D9BF0;startArrow=classic;startFill=1;endArrow=classic;endFill=1;" edge="1" parent="1">
          <mxGeometry relative="1" as="geometry">
            <mxPoint x="586.88" y="682" as="sourcePoint" />
            <mxPoint x="586" y="821" as="targetPoint" />
          </mxGeometry>
        </mxCell>
        <mxCell id="pTRy4IFYy6zHv_2fNpIq-42" value="&lt;font color=&quot;#333333&quot; style=&quot;font-size: 14px;&quot;&gt;&lt;b&gt;Question Embedding&lt;/b&gt;&lt;/font&gt;" style="rounded=1;whiteSpace=wrap;html=1;fontFamily=Helvetica;fontSize=11;fontColor=default;labelBackgroundColor=default;strokeWidth=2;strokeColor=#333333;" vertex="1" parent="1">
          <mxGeometry x="787" y="614" width="175" height="44" as="geometry" />
        </mxCell>
        <mxCell id="pTRy4IFYy6zHv_2fNpIq-44" value="&lt;font color=&quot;#333333&quot;&gt;&lt;span style=&quot;font-size: 14px;&quot;&gt;&lt;b&gt;Semantic Search&lt;/b&gt;&lt;/span&gt;&lt;/font&gt;" style="rounded=1;whiteSpace=wrap;html=1;fontFamily=Helvetica;fontSize=11;fontColor=default;labelBackgroundColor=default;strokeWidth=2;strokeColor=#333333;" vertex="1" parent="1">
          <mxGeometry x="1090" y="614" width="175" height="44" as="geometry" />
        </mxCell>
        <mxCell id="pTRy4IFYy6zHv_2fNpIq-45" style="edgeStyle=orthogonalEdgeStyle;shape=connector;rounded=0;orthogonalLoop=1;jettySize=auto;html=1;strokeColor=#2D9BF0;strokeWidth=2;align=center;verticalAlign=middle;fontFamily=Helvetica;fontSize=11;fontColor=default;labelBackgroundColor=default;endArrow=classic;flowAnimation=1;startArrow=none;startFill=0;" edge="1" parent="1">
          <mxGeometry relative="1" as="geometry">
            <mxPoint x="973" y="635" as="sourcePoint" />
            <mxPoint x="1080" y="635.37" as="targetPoint" />
          </mxGeometry>
        </mxCell>
        <mxCell id="pTRy4IFYy6zHv_2fNpIq-46" value="" style="shape=image;verticalLabelPosition=bottom;labelBackgroundColor=default;verticalAlign=top;aspect=fixed;imageAspect=0;image=https://static.vecteezy.com/system/resources/previews/022/227/365/non_2x/openai-chatgpt-logo-icon-free-png.png;clipPath=inset(20.67% 21.67% 20.67% 22%);" vertex="1" parent="1">
          <mxGeometry x="818" y="565.9040074906367" width="41.00588728375245" height="42.70599250936329" as="geometry" />
        </mxCell>
        <mxCell id="pTRy4IFYy6zHv_2fNpIq-47" value="" style="shape=image;verticalLabelPosition=bottom;labelBackgroundColor=default;verticalAlign=top;aspect=fixed;imageAspect=0;image=https://www.brenomachado.dev/assets/portfolio/binarytodecimal.png;" vertex="1" parent="1">
          <mxGeometry x="881.9998009869752" y="563" width="45.608550449340406" height="45.608550449340406" as="geometry" />
        </mxCell>
        <mxCell id="pTRy4IFYy6zHv_2fNpIq-88" style="edgeStyle=orthogonalEdgeStyle;shape=connector;rounded=0;orthogonalLoop=1;jettySize=auto;html=1;strokeColor=#2D9BF0;strokeWidth=2;align=center;verticalAlign=middle;fontFamily=Helvetica;fontSize=11;fontColor=default;labelBackgroundColor=default;endArrow=classic;flowAnimation=1;" edge="1" parent="1">
          <mxGeometry relative="1" as="geometry">
            <mxPoint x="1426.93" y="726" as="targetPoint" />
            <mxPoint x="1426.93" y="676" as="sourcePoint" />
          </mxGeometry>
        </mxCell>
        <mxCell id="pTRy4IFYy6zHv_2fNpIq-50" value="" style="shape=image;verticalLabelPosition=bottom;labelBackgroundColor=default;verticalAlign=top;aspect=fixed;imageAspect=0;image=https://static.vecteezy.com/system/resources/previews/029/345/981/non_2x/database-icon-data-analytics-icon-monitoring-big-data-analysis-containing-database-free-png.png;clipPath=inset(13% 19.67% 13.67% 19.33%);" vertex="1" parent="1">
          <mxGeometry x="1397.93" y="596.1" width="58.14" height="69.9" as="geometry" />
        </mxCell>
        <mxCell id="pTRy4IFYy6zHv_2fNpIq-51" style="edgeStyle=orthogonalEdgeStyle;shape=connector;rounded=0;orthogonalLoop=1;jettySize=auto;html=1;strokeColor=#2D9BF0;strokeWidth=2;align=center;verticalAlign=middle;fontFamily=Helvetica;fontSize=11;fontColor=default;labelBackgroundColor=default;endArrow=classic;flowAnimation=1;startArrow=none;startFill=0;" edge="1" parent="1">
          <mxGeometry relative="1" as="geometry">
            <mxPoint x="1278" y="635.44" as="sourcePoint" />
            <mxPoint x="1385" y="635.8100000000001" as="targetPoint" />
            <Array as="points">
              <mxPoint x="1332" y="636.44" />
            </Array>
          </mxGeometry>
        </mxCell>
        <mxCell id="pTRy4IFYy6zHv_2fNpIq-65" style="edgeStyle=orthogonalEdgeStyle;shape=connector;rounded=0;orthogonalLoop=1;jettySize=auto;html=1;strokeColor=#8FD14F;strokeWidth=2;align=center;verticalAlign=middle;fontFamily=Helvetica;fontSize=11;fontColor=default;labelBackgroundColor=default;endArrow=none;flowAnimation=1;endFill=0;" edge="1" parent="1">
          <mxGeometry relative="1" as="geometry">
            <mxPoint x="1527.37" y="637" as="targetPoint" />
            <mxPoint x="1576.37" y="598" as="sourcePoint" />
          </mxGeometry>
        </mxCell>
        <mxCell id="pTRy4IFYy6zHv_2fNpIq-52" value="&lt;font color=&quot;#333333&quot;&gt;&lt;span style=&quot;font-size: 14px;&quot;&gt;&lt;b&gt;Embedding&lt;/b&gt;&lt;/span&gt;&lt;/font&gt;" style="rounded=1;whiteSpace=wrap;html=1;fontFamily=Helvetica;fontSize=11;fontColor=default;labelBackgroundColor=default;strokeWidth=2;strokeColor=#333333;" vertex="1" parent="1">
          <mxGeometry x="1588.37" y="584" width="175" height="27" as="geometry" />
        </mxCell>
        <mxCell id="pTRy4IFYy6zHv_2fNpIq-63" style="edgeStyle=orthogonalEdgeStyle;shape=connector;rounded=0;orthogonalLoop=1;jettySize=auto;html=1;strokeColor=#8FD14F;strokeWidth=2;align=center;verticalAlign=middle;fontFamily=Helvetica;fontSize=11;fontColor=default;labelBackgroundColor=default;endArrow=classic;flowAnimation=1;" edge="1" parent="1">
          <mxGeometry relative="1" as="geometry">
            <mxPoint x="1469.9995844184027" y="635.5" as="targetPoint" />
            <mxPoint x="1576.37" y="636" as="sourcePoint" />
          </mxGeometry>
        </mxCell>
        <mxCell id="pTRy4IFYy6zHv_2fNpIq-54" value="&lt;font color=&quot;#333333&quot;&gt;&lt;span style=&quot;font-size: 14px;&quot;&gt;&lt;b&gt;Embedding&lt;/b&gt;&lt;/span&gt;&lt;/font&gt;" style="rounded=1;whiteSpace=wrap;html=1;fontFamily=Helvetica;fontSize=11;fontColor=default;labelBackgroundColor=default;strokeWidth=2;strokeColor=#333333;" vertex="1" parent="1">
          <mxGeometry x="1588.37" y="622" width="175" height="27" as="geometry" />
        </mxCell>
        <mxCell id="pTRy4IFYy6zHv_2fNpIq-55" value="&lt;font color=&quot;#333333&quot;&gt;&lt;span style=&quot;font-size: 14px;&quot;&gt;&lt;b&gt;Embedding&lt;/b&gt;&lt;/span&gt;&lt;/font&gt;" style="rounded=1;whiteSpace=wrap;html=1;fontFamily=Helvetica;fontSize=11;fontColor=default;labelBackgroundColor=default;strokeWidth=2;strokeColor=#333333;" vertex="1" parent="1">
          <mxGeometry x="1588.37" y="660" width="175" height="27" as="geometry" />
        </mxCell>
        <mxCell id="pTRy4IFYy6zHv_2fNpIq-56" value="" style="shape=image;verticalLabelPosition=bottom;labelBackgroundColor=default;verticalAlign=top;aspect=fixed;imageAspect=0;image=https://www.brenomachado.dev/assets/portfolio/binarytodecimal.png;clipPath=inset(10.33% 10.67% 10.67% 10.67%);" vertex="1" parent="1">
          <mxGeometry x="1770.37" y="619.63" width="31.61" height="31.74" as="geometry" />
        </mxCell>
        <mxCell id="pTRy4IFYy6zHv_2fNpIq-57" value="" style="shape=image;verticalLabelPosition=bottom;labelBackgroundColor=default;verticalAlign=top;aspect=fixed;imageAspect=0;image=https://www.brenomachado.dev/assets/portfolio/binarytodecimal.png;clipPath=inset(10.33% 10.67% 10.67% 10.67%);" vertex="1" parent="1">
          <mxGeometry x="1770.37" y="657.63" width="31.61" height="31.74" as="geometry" />
        </mxCell>
        <mxCell id="pTRy4IFYy6zHv_2fNpIq-67" style="edgeStyle=orthogonalEdgeStyle;shape=connector;rounded=0;orthogonalLoop=1;jettySize=auto;html=1;strokeColor=#8FD14F;strokeWidth=2;align=center;verticalAlign=middle;fontFamily=Helvetica;fontSize=11;fontColor=default;labelBackgroundColor=default;endArrow=none;flowAnimation=1;endFill=0;" edge="1" parent="1">
          <mxGeometry relative="1" as="geometry">
            <mxPoint x="1527.37" y="636" as="targetPoint" />
            <mxPoint x="1577.1499999999999" y="674" as="sourcePoint" />
          </mxGeometry>
        </mxCell>
        <mxCell id="pTRy4IFYy6zHv_2fNpIq-68" value="&lt;font color=&quot;#333333&quot;&gt;&lt;span style=&quot;font-size: 14px;&quot;&gt;&lt;b&gt;Text Chunk&lt;/b&gt;&lt;/span&gt;&lt;/font&gt;" style="rounded=1;whiteSpace=wrap;html=1;fontFamily=Helvetica;fontSize=11;fontColor=default;labelBackgroundColor=default;strokeWidth=2;strokeColor=#333333;" vertex="1" parent="1">
          <mxGeometry x="1921.37" y="584" width="175" height="27" as="geometry" />
        </mxCell>
        <mxCell id="pTRy4IFYy6zHv_2fNpIq-69" value="&lt;font color=&quot;#333333&quot;&gt;&lt;span style=&quot;font-size: 14px;&quot;&gt;&lt;b&gt;Text Chunk&lt;/b&gt;&lt;/span&gt;&lt;/font&gt;" style="rounded=1;whiteSpace=wrap;html=1;fontFamily=Helvetica;fontSize=11;fontColor=default;labelBackgroundColor=default;strokeWidth=2;strokeColor=#333333;" vertex="1" parent="1">
          <mxGeometry x="1921.37" y="622" width="175" height="27" as="geometry" />
        </mxCell>
        <mxCell id="pTRy4IFYy6zHv_2fNpIq-70" value="&lt;font color=&quot;#333333&quot;&gt;&lt;span style=&quot;font-size: 14px;&quot;&gt;&lt;b&gt;Text Chunk&lt;/b&gt;&lt;/span&gt;&lt;/font&gt;" style="rounded=1;whiteSpace=wrap;html=1;fontFamily=Helvetica;fontSize=11;fontColor=default;labelBackgroundColor=default;strokeWidth=2;strokeColor=#333333;" vertex="1" parent="1">
          <mxGeometry x="1921.37" y="660" width="175" height="27" as="geometry" />
        </mxCell>
        <mxCell id="pTRy4IFYy6zHv_2fNpIq-71" style="edgeStyle=orthogonalEdgeStyle;shape=connector;rounded=0;orthogonalLoop=1;jettySize=auto;html=1;strokeColor=#2D9BF0;strokeWidth=2;align=center;verticalAlign=middle;fontFamily=Helvetica;fontSize=11;fontColor=default;labelBackgroundColor=default;endArrow=classic;flowAnimation=1;startArrow=classic;startFill=1;" edge="1" parent="1">
          <mxGeometry relative="1" as="geometry">
            <mxPoint x="389" y="635.06" as="sourcePoint" />
            <mxPoint x="496" y="635.43" as="targetPoint" />
          </mxGeometry>
        </mxCell>
        <mxCell id="pTRy4IFYy6zHv_2fNpIq-73" style="edgeStyle=orthogonalEdgeStyle;shape=connector;rounded=0;orthogonalLoop=1;jettySize=auto;html=1;strokeColor=#8FD14F;strokeWidth=2;align=center;verticalAlign=middle;fontFamily=Helvetica;fontSize=11;fontColor=default;labelBackgroundColor=default;endArrow=classic;flowAnimation=1;" edge="1" parent="1">
          <mxGeometry relative="1" as="geometry">
            <mxPoint x="1808.3695844184026" y="635.51" as="targetPoint" />
            <mxPoint x="1914.7399999999998" y="636.01" as="sourcePoint" />
          </mxGeometry>
        </mxCell>
        <mxCell id="pTRy4IFYy6zHv_2fNpIq-74" style="edgeStyle=orthogonalEdgeStyle;shape=connector;rounded=0;orthogonalLoop=1;jettySize=auto;html=1;strokeColor=#8FD14F;strokeWidth=2;align=center;verticalAlign=middle;fontFamily=Helvetica;fontSize=11;fontColor=default;labelBackgroundColor=default;endArrow=classic;flowAnimation=1;" edge="1" parent="1">
          <mxGeometry relative="1" as="geometry">
            <mxPoint x="1808.3695844184026" y="597.01" as="targetPoint" />
            <mxPoint x="1914.7399999999998" y="597.51" as="sourcePoint" />
          </mxGeometry>
        </mxCell>
        <mxCell id="pTRy4IFYy6zHv_2fNpIq-75" style="edgeStyle=orthogonalEdgeStyle;shape=connector;rounded=0;orthogonalLoop=1;jettySize=auto;html=1;strokeColor=#8FD14F;strokeWidth=2;align=center;verticalAlign=middle;fontFamily=Helvetica;fontSize=11;fontColor=default;labelBackgroundColor=default;endArrow=classic;flowAnimation=1;" edge="1" parent="1">
          <mxGeometry relative="1" as="geometry">
            <mxPoint x="1808.3695844184026" y="674" as="targetPoint" />
            <mxPoint x="1914.7399999999998" y="674.5" as="sourcePoint" />
          </mxGeometry>
        </mxCell>
        <mxCell id="pTRy4IFYy6zHv_2fNpIq-81" value="" style="group" connectable="0" vertex="1" parent="1">
          <mxGeometry x="965" y="890" width="142.28999999999996" height="79.44000000000005" as="geometry" />
        </mxCell>
        <mxCell id="pTRy4IFYy6zHv_2fNpIq-16" value="" style="shape=image;verticalLabelPosition=bottom;labelBackgroundColor=default;verticalAlign=top;aspect=fixed;imageAspect=0;image=https://the-decoder.com/wp-content/uploads/2022/11/metaphor_systems.jpg;" vertex="1" parent="pTRy4IFYy6zHv_2fNpIq-81">
          <mxGeometry width="142.29" height="79.44" as="geometry" />
        </mxCell>
        <mxCell id="pTRy4IFYy6zHv_2fNpIq-17" value="&lt;font color=&quot;#ffffff&quot; face=&quot;Georgia&quot;&gt;Metaphor&lt;/font&gt;" style="text;html=1;align=center;verticalAlign=middle;whiteSpace=wrap;rounded=0;fontSize=11;" vertex="1" parent="pTRy4IFYy6zHv_2fNpIq-81">
          <mxGeometry x="74" y="33" width="49" height="19" as="geometry" />
        </mxCell>
        <mxCell id="pTRy4IFYy6zHv_2fNpIq-84" value="&lt;font color=&quot;#333333&quot;&gt;&lt;span style=&quot;font-size: 14px;&quot;&gt;&lt;b&gt;Ranked Results&lt;/b&gt;&lt;/span&gt;&lt;/font&gt;" style="rounded=1;whiteSpace=wrap;html=1;fontFamily=Helvetica;fontSize=11;fontColor=default;labelBackgroundColor=default;strokeWidth=2;strokeColor=#333333;" vertex="1" parent="1">
          <mxGeometry x="1361" y="794" width="132" height="27" as="geometry" />
        </mxCell>
        <mxCell id="pTRy4IFYy6zHv_2fNpIq-86" value="" style="shape=image;verticalLabelPosition=bottom;labelBackgroundColor=default;verticalAlign=top;aspect=fixed;imageAspect=0;image=https://static.vecteezy.com/system/resources/previews/022/227/365/non_2x/openai-chatgpt-logo-icon-free-png.png;clipPath=inset(20.67% 21.67% 20.67% 22%);" vertex="1" parent="1">
          <mxGeometry x="1391.95" y="890.44" width="70.09" height="73" as="geometry" />
        </mxCell>
        <mxCell id="pTRy4IFYy6zHv_2fNpIq-87" value="" style="group" connectable="0" vertex="1" parent="1">
          <mxGeometry x="966" y="1029" width="136.63" height="52" as="geometry" />
        </mxCell>
        <mxCell id="pTRy4IFYy6zHv_2fNpIq-28" value="" style="shape=image;verticalLabelPosition=bottom;labelBackgroundColor=default;verticalAlign=top;aspect=fixed;imageAspect=0;image=https://cdn1.iconfinder.com/data/icons/google-s-logo/150/Google_Icons-09-512.png;clipPath=inset(18.67% 19.67% 19% 19.33%);" vertex="1" parent="pTRy4IFYy6zHv_2fNpIq-87">
          <mxGeometry width="50.886116173120755" height="51.99876366742599" as="geometry" />
        </mxCell>
        <mxCell id="pTRy4IFYy6zHv_2fNpIq-31" value="" style="shape=image;verticalLabelPosition=bottom;labelBackgroundColor=default;verticalAlign=top;aspect=fixed;imageAspect=0;image=data:image/png,iVBORw0KGgoAAAANSUhEUgAABLAAAASwCAYAAADrIbPPAAAAAXNSR0IArs4c6QAAIABJREFUeF7s3QvYbXVdJ/Dv8l7eytIyzckxtcs0o9Uz02Q1j006NTplU8005ZMzipqmppl5gbAUTEdEUkECHi+JomOKiBeQTFC8AKJCioBcjMDDVZDb4XbOmvM/+33zgFz23u/e7/6v9f/s5znP4Rz2Wuv3+/x+Dxy+rL12Fy8CBAgQIECAAAECBAgQIECAAAECFQt0FdemNAIECBAgQIAAAQIECBAgQIAAAQIRYFkCAgQIECBAgAABAgQIECBAgACBqgUEWFWPR3EECBAgQIAAAQIECBAgQIAAAQICLDtAgAABAgQIECBAgAABAgQIECBQtYAAq+rxKI4AAQIECBAgQIAAAQIECBAgQECAZQcIECBAgAABAgQIECBAgAABAgSqFhBgVT0exREgQIAAAQIECBAgQIAAAQIECAiw7AABAgQIECBAgAABAgQIECBAgEDVAgKsqsejOAIECBAgQIAAAQIECBAgQIAAAQGWHSBAgAABAgQIECBAgAABAgQIEKhaQIBV9XgUR4AAAQIECBAgQIAAAQIECBAgIMCyAwQIECBAgAABAgQIECBAgAABAlULCLCqHo/iCBAgQIAAAQIECBAgQIAAAQIEBFh2gAABAgQIECBAgAABAgQIECBAoGoBAVbV41EcAQIECBAgQIAAAQIECBAgQICAAMsOECBAgAABAgQIECBAgAABAgQIVC0gwKp6PIojQIAAAQIECBAgQIAAAQIECBAQYNkBAgQIECBAgAABAgQIECBAgACBqgUEWFWPR3EECBAgQIAAAQIECBAgQIAAAQICLDtAgAABAgQIECBAgAABAgQIECBQtYAAq+rxKI4AAQIECBAgQIAAAQIECBAgQECAZQcIECBAgAABAgQIECBAgAABAgSqFhBgVT0exREgQIAAAQIECBAgQIAAAQIECAiw7AABAgQIECBAgAABAgQIECBAgEDVAgKsqsejOAIECBAgQIAAAQIECBAgQIAAAQGWHSBAgAABAgQIECBAgAABAgQIEKhaQIBV9XgUR4AAAQIECBAgQIAAAQIECBAgIMCyAwQIECBAgAABAgQIECBAgAABAlULCLCqHo/iCBAgQIAAAQIECBAgQIAAAQIEBFh2gAABAgQIECBAgAABAgQIECBAoGoBAVbV41EcAQIECBAgQIAAAQIECBAgQICAAMsOECBAgAABAgQIECBAgAABAgQIVC0gwKp6PIojQIAAAQIECBAgQIAAAQIECBAQYNkBAgQIECBAgAABAgQIECBAgACBqgUEWFWPR3EECBAgQIAAAQIECBAgQIAAAQICLDtAgAABAgQIECBAgAABAgQIECBQtYAAq+rxKI4AAQIECBAgQIAAAQIECBAgQECAZQcIECBAgAABAgQIECBAgAABAgSqFhBgVT0exREgQIAAAQIECBAgQIAAAQIECAiw7AABAgQIECBAgAABAgQIECBAgEDVAgKsqsejOAIECBAgQIAAAQIECBAgQIAAAQGWHSBAgAABAgQIECBAgAABAgQIEKhaQIBV9XgUR4AAAQIECBAgQIAAAQIECBAgIMCyAwQIECBAgAABAgQIECBAgAABAlULCLCqHo/iCBAgQIAAAQIECBAgQIAAAQIEBFh2gAABAgQIECBAgAABAgQIECBAoGoBAVbV41EcAQIECBAgQIAAAQIECBAgQICAAMsOECBAgAABAgQIECBAgAABAgQIVC0gwKp6PIojQIAAAQIECBAgQIAAAQIECBAQYNkBAgQIECBAgAABAgQIECBAgACBqgUEWFWPR3EECBAgQIAAAQIECBAgQIAAAQICLDtAgAABAgQIECBAgAABAgQIECBQtYAAq+rxKI4AAQIECBAgQIAAAQIECBAgQECAZQcIECBAgAABAgQIECBAgAABAgSqFhBgVT0exREgQIAAAQIECBAgQIAAAQIECAiw7AABAgQIECBAgAABAgQIECBAgEDVAgKsqsejOAIECBAgQIAAAQIECBAgQIAAAQGWHSBAgAABAgQIECBAgAABAgQIEKhaQIBV9XgUR4AAAQIECBAgQIAAAQIECBAgIMCyAwQIECBAgAABAgQIECBAgAABAlULCLCqHo/iCBAgQIAAAQIECBAgQIAAAQIEBFh2gAABAgQIECBAgAABAgQIECBAoGoBAVbV41EcAQIECBAgQIAAAQIECBAgQICAAMsOECBAgAABAgQIECBAgAABAgQIVC0gwKp6PIojQIAAAQIECBAgQIAAAQIECBAQYNkBAgQIECBAgAABAgQIECBAgACBqgUEWFWPR3EECBAgQIAAAQIECBAgQIAAAQICLDtAgAABAgQIECBAgAABAgQIECBQtYAAq+rxKI4AAQIECBAgQIAAAQIECBAgQECAZQcIECBAgAABAgQIECBAgAABAgSqFhBgVT0exREgQIAAAQIECBAgQIAAAQIECAiw7AABAgQIECBAgAABAgQIECBAgEDVAgKsqsejOAIECBAgQIAAAQIECBAgQIAAAQGWHSBAgAABAgQIECBAgAABAgQIEKhaQIBV9XgUR4AAAQIECBAgQIAAAQIECBAgIMCyAwQIECBAgAABAgQIECBAgAABAlULCLCqHo/iCBAgQIAAAQIECBAgQIAAAQIEBFh2gAABAgQIECBAgAABAgQIECBAoGoBAVbV41EcAQIECBAgQIAAAQIECBAgQICAAMsOECBAgAABAgQIECBAgAABAgQIVC0gwKp6PIojQIAAAQIECBAgQIAAAQIECBAQYNkBAgQIECBAgAABAgQIECBAgACBqgUEWFWPR3EECBAgQIAAAQIECBAgQIAAAQICLDtAgAABAgQIECBAgAABAgQIECBQtYAAq+rxKI4AAQIECBAgQIAAAQIECBAgQECAZQcIECBAgAABAgQIECBAgAABAgSqFhBgVT0exREgQIAAAQIECBAgQIAAAQIECAiw7AABAgQIECBAgAABAgQIECBAgEDVAgKsqsejOAIECBAgQIAAAQIECBAgQIAAAQGWHSBAgAABAgQIECBAgAABAgQIEKhaQIBV9XgUR4AAAQIECBAgQIAAAQIECBAgIMCyAwQIECBAgAABAgQIECBAgAABAlULCLCqHo/iCBAgQIAAAQIECBAgQIAAAQIEBFh2gAABAgQIECBAgAABAgQIECBAoGoBAVbV41EcAQIECBAgQIAAAQIECBAgQICAAMsOECBAgAABAgQIECBAgAABAgQIVC0gwKp6PIojQIAAAQIECBAgQIAAAQIECBAQYNkBAgQIECBAgAABAgQIECBAgACBqgUEWFWPR3EECBAgQIAAAQIECBAgQIAAAQICLDtAgAABAgQIECBAgAABAgQIECBQtYAAq+rxKI4AAQIECBAgQIAAAQIECBAgQECAZQcIECBAgAABAgQIECBAgAABAgSqFhBgVT0exREgQIAAAQIECBAgQIAAAQIECAiw7AABAgQIECBAgAABAgQIECBAgEDVAgKsqsejOAIECBAgQIAAAQIECBAgQIAAAQGWHSBAgAABAgQIECBAgAABAgQIEKhaQIBV9XgUR4AAAQIECBAgQIAAAQIECBAgIMCyAwQIECBAgAABAgQIECBAgAABAlULCLCqHo/iCBAgQIAAAQIECBAgQIAAAQIEBFh2gAABAgQIECBAgAABAgQIECBAoGoBAVbV41EcAQIECBAgQIAAAQIECBAgQICAAMsOECBAgAABAgQIECBAgAABAgQIVC0gwKp6PIojQIAAAQIECBAgQIAAAQIECBAQYNkBAgQIECBAgAABAgQIECBAgACBqgUEWFWPR3EECBAgQIAAAQIECBAgQIAAAQICLDtAgAABAgQIECBAgAABAgQIECBQtYAAq+rxKI4AAQIECBAgQIAAAQIECBAgQECAZQcIECBAgAABAgQIECBAgAABAgSqFhBgVT0exREgQIAAAQIECBAgQIAAAQIECAiw7AABAgQIECBAgAABAgQIECBAgEDVAgKsqsejOAIECBAgQIAAAQIECBAgQIAAAQGWHSBAgAABAgQIECBAgAABAgQIEKhaQIBV9XgUR4AAAQIECBAgQIAAAQIECBAgIMCyAwQIECBAgAABAgQIECBAgAABAlULCLCqHo/iCBAgQIAAAQIECBAgQIAAAQIEBFh2gAABAgQIECBAgAABAgQIECBAoGoBAVbV41EcAQIECBAgQIAAAQIECBAgQICAAMsOECBAgAABAgQIECBAgAABAgQIVC0gwKp6PIojQIAAAQIECBAgQIAAAQIECBAQYNkBAgQIECBAgAABAgQIECBAgACBqgUEWFWPR3EECBAgQIAAAQIECBAgQIAAAQICLDtAgAABAgQIECBAgAABAgQIECBQtYAAq+rxKI4AAQIECBAgQIAAAQIECBAgQECAZQcIECBAgAABAgQIECBAgAABAgSqFhBgVT0exREgQIAAAQIECBAgQIAAAQIECAiw7AABAgQIECBAgAABAgQIECBAgEDVAgKsqsejOAIECBAgQIAAAQIECBAgQIAAAQGWHSBAgAABAgQIECBAgAABAgQIEKhaQIBV9XgUR4AAAQIECBAgQIAAAQIECBAgIMCyAwQIECBAgAABAgQIECBAgAABAlULCLCqHo/iCBAgQIAAAQIECBAgQIAAAQIEBFh2gAABAgQIECBAgAABAgQIECBAoGoBAVbV41EcAQIECBAgQIAAAQIECBAgQICAAMsOECBAgAABAgQIECBAgAABAgQIVC0gwKp6PIojQIAAAQIECBAgQIAAAQIECBAQYNkBAgQIECBAgAABAgQIECBAgACBqgUEWFWPR3EECBAgQIAAAQIECBAgQIAAAQICLDtAgAABAgQIECBAgAABAgQIECBQtYAAq+rxKI4AAQIECBAgQIAAAQIECBAgQECAZQcIECBAgAABAgQIECBAgAABAgSqFhBgVT0exREgQIAAAQIECBAgQIAAAQIECAiw7AABAgQIECBAgAABAgQIECBAgEDVAgKsqsejOAIECBAgQIAAAQIECBAgQIAAAQGWHSBAgAABAgQIECBAgAABAgQIEKhaQIBV9XgUR4AAAQIECBAgQIAAAQIECBAgIMCyAwQIECBAgAABAgQIECBAgAABAlULCLCqHo/iCBAgQIAAAQIECBAgQIAAAQIEBFh2gAABAgQIECBAgAABAgQIECBAoGoBAVbV41EcAQIECBAgQIAAAQIECBAgQICAAMsOECBAgAABAgQIECBAgAABAgQIVC0gwKp6PIojQIAAAQIECBAgQIAAAQIECBAQYNkBAgQIECBAgAABAgQIECBAgACBqgUEWFWPR3EECBAgQIAAAQIECBAgQIAAAQICLDtAgAABAgQIECBAgAABAgQIECBQtYAAq+rxKI4AAQIECBAgQIAAAQIECBAgQECAZQcIECBAgAABAgQIECBAgAABAgSqFhBgVT0exREgQIAAAQIECBAgQIAAAQIECAiw7AABAgQIECBAgAABAgQIECBAgEDVAgKsqsejOAIECBAgQIAAAQIECBAgQIAAAQGWHSBAgAABAgQIECBAgAABAgQIEKhaQIBV9XgUR4AAAQIECBAgQIAAAQIECBAgIMCyAwQIECBAgAABAgQIECBAgAABAlULCLCqHo/iCBAgQIAAAQIECBAgQIAAAQIEBFh2gAABAgQIECBAgAABAgQIECBAoGoBAVbV41EcAQIECBAgQIAAAQIECBAgQICAAMsOECBAgAABAgQIECBAgAABAgQIVC0gwKp6PIojQIAAAQIECBAgQIAAAQIECBAQYNkBAgQIECBAgAABAgQIECBAgACBqgUEWFWPR3EECBAgQIAAAQIECBAgQIAAAQICLDtAgAABAgQIECBAgAABAgQIECBQtYAAq+rxKI4AAQIECBAgQIAAAQIECBAgQECAZQcIECBAgAABAgQIECBAgAABAgSqFhBgVT0exREgQIAAAQIECBAgQIAAAQIECAiw7AABAgQIECBAgAABAgQIECBAgEDVAgKsqsejOAIECBAgQIAAAQIECBAgQIAAAQGWHSBAgAABAgQIECBAgAABAgQIEKhaQIBV9XgUR4AAAQIECBAgQIAAAQIECBAgIMCyAwQIECBAgAABAgQIECBAgAABAlULCLCqHo/iCBAgQIAAAQIECBAgQIAAAQIEBFh2gAABAgQIECBAgAABAgQIECBAoGoBAVbV41EcAQIECBAgQIAAAQIECBAgQICAAMsOECBAgAABAgQIECBAgAABAgQIVC0gwKp6PIojQIAAAQIECBAgQIAAAQIECBAQYNkBAgQIECBAgAABAgQIECBAgACBqgUEWFWPR3EECBAgQIAAAQIECBAgQIAAAQICLDtAgAABAgQIECBAgAABAgQIECBQtYAAq+rxKI4AAQIECBAgQIAAAQIECBAgQECAZQcIECBAgAABAgQIECBAgAABAgSqFhBgVT0exREgQIAAAQIECBAgQIAAAQIECAiw7AABAgQIECBAgAABAgQIECBAgEDVAgKsqsejOAIECBAgQIAAAQIECBAgQIAAAQGWHSBAgAABAgQIECBAgAABAgQIEKhaQIBV9XgUR4AAAQIECBAgQIAAAQIECBAgIMCyAwQIECBAgAABAgQIECBAgAABAlULCLCqHo/iCBAgQIAAAQIECBAgQIAAAQIEBFh2gAABAgQIECBAgAABAgQIECBAoGoBAVbV41EcAQIECBAgQIAAAQIECBAgQICAAMsOECBAgAABAgQIECBAgAABAgQIVC0gwKp6PIojQIAAAQIECBAgQIAAAQIECBAQYNkBAgQIECBAgAABAgQIECBAgACBqgUEWFWPR3EECBAgQIAAAQIECBAgQIAAAQICLDtAgAABAgQIECBAgAABAgQIECBQtYAAq+rxKI4AAQIECBAgQIAAAQIECBAgQECAZQcIECBAgAABAgQIECBAgAABAgSqFhBgVT0exREgQIAAAQIECBAgQIAAAQIECAiw7AABAgQIECBAgAABAgQIECBAgEDVAgKsqsejOAIECBAgQIAAAQIECBAgQIAAAQGWHSBAgAABAgQIECBAgAABAgQIEKhaQIBV9XgUR4AAAQIECBAgQIAAAQIECBAgIMCyAwQIECBAgAABAgQIECBAgAABAlULCLCqHo/iCBAgQIAAAQIECBAgQIAAAQIEBFh2gAABAgQIECBAgAABAgQIECBAoGoBAVbV41EcAQIECBAgQIAAAQIECBAgQICAAMsOECBAgAABAgQIECBAgAABAgQIVC0gwKp6PIojQIAAAQIECBAgQIAAAQIECBAQYNkBAgQIECBAgAABAgQIECBAgACBqgUEWFWPR3EECBAgQIAAAQIECBAgQIAAAQICLDtAgAABAgQIECBAgAABAgQIECBQtYAAq+rxKI4AAQIECBAgQIAAAQIECBAgQECAZQcIECBAgAABAgQIECBAgAABAgSqFhBgVT0exREgQIAAAQIECBAgQIAAAQIECAiw7AABAgQIECBAgAABAgQIECBAgEDVAgKsqsejOAIECBAgQIAAAQIECBAgQIAAAQGWHSBAgAABAgQIECBAgAABAgQIEKhaQIBV9XgUR4AAAQIECBAgQIAAAQIECBAgIMCyAwQIECBAgAABAgQIECBAgAABAlULCLCqHo/iCBAgQIAAAQIECBAgQIAAAQIEBFh2gAABAgQIECBAgAABAgQIECBAoGoBAVbV41EcAQIECBAgQIAAAQIECBAgQICAAMsOECBAgAABAgQIECBAgAABAgQIVC0gwKp6PIojQIAAAQIECBAgQIAAAQIECBAQYNkBAgQIECBAgAABAgQIECBAgACBqgUEWFWPR3EECBAgQIAAAQIECBAgQIAAAQICLDtAgAABAgQIECBAgAABAgQIECBQtYAAq+rxKI4AAQIECBAgQIAAAQIECBAgQECAZQcIECBAgAABAgQIECBAgAABAgSqFhBgVT0exREgQIAAAQIECBAgQIAAAQIECAiw7AABAgQIECBAgAABAgQIECBAgEDVAgKsqsejOAIECBAgQIAAAQIECBAgQIAAAQGWHSBAgAABAgQIECBAgAABAgQIEKhaQIBV9XgUR4AAAQIECBAgQIAAAQIECBAgIMCyAwQIECBAgAABAgQIECBAgAABAlULCLCqHo/iCBAgQIAAAQIECBAgQIAAAQIEBFh2gAABAgQIECBAgAABAgQIECBAoGoBAVbV41EcAQIECBAgQIAAAQIECBAgQICAAMsOECBAgAABAgQIECBAgAABAgQIVC0gwKp6PIojQIAAAQIECBAgQIAAAQIECBAQYNkBAgQIECBAgAABAgQIECBAgACBqgUEWFWPR3EECBAgQIAAAQIECBAgQIAAAQICLDtAgAABAgQIECBAgAABAgQIECBQtYAAq+rxKI4AAQIECBAgQIAAAQIECBAgQECAZQcIECBAgAABAgQIECBAgAABAgSqFhBgVT0exREgQIAAAQIECBAgQIAAAQIECAiw7AABAgQIECBAgAABAgQIECBAgEDVAgKsqsejOAIECBAgQIAAAQIECBAgQIAAAQGWHSBAgAABAgQIECBAgAABAgQIEKhaQIBV9XgUR4AAAQIECBAgQIAAAQIECBAgIMCyAwQIECBAgAABAgQIECBAgAABAlULCLCqHo/iCBAgQIAAAQIECBAgQIAAAQIEBFh2gAABAgQIECBAgAABAgQIECBAoGoBAVbV41EcAQIECBAgQIAAAQIECBAgQICAAMsOECBAgAABAgQIECBAgAABAgQIVC0gwKp6PIojQIAAAQIECBAgQIAAAQIECBAQYNkBAgQIECBAgAABAgQIECBAgACBqgUEWFWPR3EECBAgQIAAAQIECBAgQIAAAQICLDtAgAABAgQIECBAgAABAgQIECBQtYAAq+rxKI4AAQIECBAgQIAAAQIECBAgQECAZQcIECBAgAABAgQIECBAgAABAgSqFhBgVT0exREgQIAAAQIECBAgQIAAAQIECAiw7AABAgQIECBAgAABAgQIECBAgEDVAgKsqsejOAIECBAgQIAAAQIECBAgQIAAAQGWHSBAgAABAgQIECBAgAABAgQIEKhaQIBV9XgUR4AAAQIECBAgQIAAAQIECBAgIMCyAwQIECBAgAABAgQIECBAgAABAlULCLCqHo/iCBAgQIAAAQIECBAgQIAAAQIEBFh2gAABAgQIECBAgAABAgQIECBAoGoBAVbV41EcAQIECBAgQIAAAQIECBAgQICAAMsOECBAgAABAgQIECBAgAABAgQIVC0gwKp6PIojQIAAAQIECBAgQIAAAQIECBAQYNkBAgQIECBAgAABAgQIECBAgACBqgUEWFWPR3EECBAgQIAAAQIECBAgQIAAAQICLDtAgAABAgQIECBAgAABAgQIECBQtYAAq+rxKI4AAQIECBAgQIAAAQIECBAgQECAZQcIECBAgAABAgQIECBAgAABAgSqFhBgVT0exREgQIAAAQIECBAgQIAAAQIECAiw7AABAgQIECBAgAABAgQIECBAgEDVAgKsqsejOAIECBAgQIAAAQIECBAgQIAAAQGWHSBAgAABAgQIECBAgAABAgQIEKhaQIBV9XgUR4AAAQIECBAgQIAAAQIECBAgIMCyAwQIECBAgAABAgQIECBAgAABAlULCLCqHo/iCBAgQIAAAQIECBAgQIAAAQIEBFh2gAABAgQIECBAgAABAgQIECBAoGoBAVbV41EcAQIECBAgQIAAAQIECBAgQICAAMsOECBAgAABAgQIECBAgAABAgQIVC0gwKp6PIojQIAAAQIECBAgQIAAAQIECBAQYNkBAgQIECBAgAABAgQIECBAgACBqgUEWFWPR3EECBAgQIAAAQIECBAgQIAAAQICLDtAgAABAgQIECBAgAABAgQIECBQtYAAq+rxKI4AAQIECBAgQIAAAQIECBAgQECAZQcIECBAgAABAgQIECBAgAABAgSqFhBgVT0exREgQIAAAQIECBAgQIAAAQIECAiw7AABAgQIECBAgAABAgQIECBAgEDVAgKsqsejOAIECBAgQIAAAQIECBAgQIAAAQGWHSBAgAABAgQIECBAgAABAgQIEKhaQIBV9XgUR4AAAQIECBAgQIAAAQIECBAgIMCyAwQIECBAgAABAgQIECBAgAABAlULCLCqHo/iCBAgQIAAAQIECBAgQIAAAQIEBFh2gAABAgQIECBAgAABAgQIECBAoGoBAVbV41EcAQIECBAgQIAAAQIECBAgQICAAMsOECBAgAABAgQIECBAgAABAgQIVC0gwKp6PIojQIAAAQIECBAgQIAAAQIECBAQYNkBAgQIECBAgAABAgQIECBAgACBqgUEWFWPR3EECBAgQIAAAQIECBAgQIAAAQICLDtAgAABAgQIECBAgAABAgQIECBQtYAAq+rxKI4AAQIECBAgQIAAAQIECBAgQECAZQcIECBAgAABAgQIECBAgAABAgSqFhBgVT0exREgQIAAAQIECBAgQIAAAQIECAiw7AABAgQIECBAgAABAgQIECBAgEDVAgKsqsejOAIECBAgQIAAAQIECBAgQIAAAQGWHSBAgAABAgQIECBAgAABAgQIEKhaQIBV9XgUR4AAAQIECBAgQIAAAQIECBAgIMCyAwQIECBAgAABAgQIECBAgAABAlULCLCqHo/iCBAgQIAAAQIECBAgQIAAAQIEBFh2gAABAgQIECBAgAABAgQIECBAoGoBAVbV41EcAQIECBAgQIAAAQIECBAgQICAAMsOECBAgAABAgQIECBAgAABAgQIVC0gwKp6PIojQIAAAQIECBAgQIAAAQIECBAQYNkBAgQIECBAgAABAgQIECBAgACBqgVLhFXkAAAgAElEQVQEWFWPR3EECBAgQIAAAQIECBAgQIAAAQICLDtAgAABAgQIECBAgAABAgQIECBQtYAAq+rxKI4AAQIECBAgQIAAAQIECBAgQECAZQcIECBAgAABAgQIECBAgAABAgSqFhBgVT0exREgQIAAAQIECBAgQIAAAQIECAiw7AABAgQIECBAgAABAgQIECBAgEDVAgKsqsejOAIECBAgQIAAAQIECBAgQIAAAQGWHSBAgAABAgQIECBAgAABAgQIEKhaQIBV9XgUR4AAAQIECBAgQIAAAQIECBAgIMCyAwQIECBAgAABAgQIECBAgAABAlULCLCqHo/iCBAgQIAAAQIECBAgQIAAAQIEBFh2gAABAgQIECBAgAABAgQIECBAoGoBAVbV41EcAQIECBAgQIAAAQIECBAgQICAAMsOECBAgAABAgQIECBAgAABAgQIVC0gwKp6PIojQIAAAQIECBAgQIAAAQIECBAQYNkBAgQIECBAgAABAgQIECBAgACBqgUEWFWPR3EECBAgQIAAAQIECBAgQIAAAQICLDtAgAABAgQIECBAgAABAgQIECBQtYAAq+rxKI4AAQIECBAgQIAAAQIECBAgQECAZQcIECBAgAABAgQIECBAgAABAgSqFhBgVT0exREgQIAAAQIECBAgQIAAAQIECAiw7AABAgQIECBAgAABAgQIECBAgEDVAgKsqsejOAIECBAgQIAAAQIECBAgQIAAAQGWHSBAgAABAgQIECBAgAABAgQIEKhaQIBV9XgUR4AAAQIECBAgQIAAAQIECBAgIMCyAwQIECBAgAABAgQIECBAgAABAlULCLCqHo/iCBAgQIAAAQIECBAgQIAAAQIEBFh2gAABAgQIECBAgAABAgQIECBAoGoBAVbV41EcAQIECBAgQIAAAQIECBAgQICAAMsOECBAgAABAgQIECBAgAABAgQIVC0gwKp6PIojQIAAAQIECBAgQIAAAQIECBAQYNkBAgQIECBAgAABAgQIECBAgACBqgUEWFWPR3EECBAgQIAAAQIECBAgQIAAAQICLDtAgAABAgQIECBAgAABAgQIECBQtYAAq+rxKI4AAQIECBAgQIAAAQIECBAgQECAZQcIECBAgAABAgQIECBAgAABAgSqFhBgVT0exREgQIAAAQIECBAgQIAAAQIECAiw7AABAgQIECBAgAABAgQIECBAgEDVAgKsqsejOAIECBAgQIAAAQIECBAgQIAAAQGWHSBAgAABAgQIECBAgAABAgQIEKhaQIBV9XgUR4AAAQIECBAgQIAAAQIECBAgIMCyAwQIECBAgAABAgQIECBAgAABAlULCLCqHo/iCBAgQIAAAQIECBAgQIAAAQIEBFh2gAABAgQIECBAgAABAgQIECBAoGoBAVbV41EcAQIECBAgQIAAAQIECBAgQICAAMsOECBAgAABAgQIECBAgAABAgQIVC0gwKp6PIojQIAAAQIECBAgQIAAAQIECBAQYNkBAgQIECBAgAABAgQIECBAgACBqgUEWFWPR3EECBAgQKAdgT65R5Jb+7NJ+b3y927vddck5cc0rzslufs0b6z4PTcmuWnK+sp7y4/be12XpL+VN/RdUv6eFwECBAgQIEBgpQICrJXyuzgBAgQIENhcgT65c5Lv2uWqJfTZNcwpv77bLYKk705SQp9lv/7t2rVveZ1S30/dwcUflOSBUxZ4rySPnPK9tb7tgiQXTlncliTl/bf3+sck19/KG25IcuqU19nI27YnuXaXE5QwrVx71+Ct1Lfrr7d2ybaNXNSxBAgQIECAwHAEBFjDmZVKCRAgQGDEAmvBUglWyusuSUpoVF4lvFm/+6gES+XXGwmT7p3kR3ehvH+SB+/y6x9I8oBb3M1Uwp5dQ68RT0JrKxLYmuSMXa5dgqqLk1y0y++dn+SSXX59VpKrNlBvCc1KKFaCsvIqd5qth3glTFu/w+1qQdkGlB1KgAABAgQWJCDAWhCk0xAgQIBAGwL9JDwqYc56mLQeNJXfKz/K3y+/N+3H2dbhSkj1iLVf3DfJj6z9dQmYfmjtr7/vVsKlNuB1SWDxAush2WVrp/7GLgHZ15N8a+33z1wLt2apoJy7hGAlJCvhXPlRXuX31kOzcgdZ+fteBAgQIECAwBQCAqwpkLyFAAECBIYr0E9CpXuudVB+Lr8uAVMJjErYVMKiWcKmElyVu5TKcd+bpHx0rbzKXUvlR/n75aNs63dTDRdP5QQIzCtwdZLy0c1yd1e5k6z8KK/yUc7L18KxcnfZ+t1f01ynhGIlVCuhV7lbbD0MKz+Xj1Je0307KJvmfN5DgAABAgQGJSDAGtS4FEuAAIFxC/ST8KcEPyVQKgHR+rOZyp1H6x+rK39/ln9/3W8tcCp4JXgqv/7+tZ/L86DKnU4+Hjfu1dIdgTEIlLu4yp1hJaz6ZpJL1z5CWYKwEm6Vn8vvT/sqzxkrQdv6xyXX70Qrd4iVoKycs3x8cpaQbdprex8BAgQIEJhZYJb/AJj55A4gQIAAgTYE+kngVO5GKh91u0+S8pyl8u+YaR+qvQ5V7owqH5krwVW5s2n9LqYSMpXfK9co4ZN/f7WxWrokQGB5AiXAKiFYuSOshFYlHCuvEmqVO8XK75Vnju36cP1pqil3npVzl+eTXbl2J9pV3eznmeZa3kOAAAECDQn4D4CGhq1VAgQIzCPQT0KkH97lRwmnbvkq4VIJq8rDwUvAVO6YKv+Oedg813QMAQIECAxW4Oy1AKvc0VUCsvLr8tclzLrlq4Rc/7z+o5uEZ14ECBAgQOBWBQRYFoMAAQKNC/SToKmEVD+R5N8k+cFbkJQ7qkoQ9a/Xfi6/9iJAgAABAhsVKKFWCbjOWfv5liHXhUnKQ/RPKXd0dZM7u7wIECBAoFEBAVajg9c2AQJtCvSTj+E9ai2oeuiaQvl3Qbmr6seT/NQuz4tqE0nXBAgQIFCLQHmu1xlJTl27g2s9wDo3yZeTfKmbfNTRiwABAgQaEBBgNTBkLRIg0KbA2gPRH53k59eeJ1UeWF4CrB9L8vAkD25TRtcECBAgMHCB85N8Lcnpa8/qKsFW+abHTyT5ogfPD3y6yidAgMBtCAiwrAYBAgRGItBPnj31H5M8Zu0b9sqD1cvH/sqdVeWZVHcaSavaIECAAAECuwqUAKt8c2K5U6t8HLF8g2L59WeTfLKbPIvLiwABAgQGLiDAGvgAlU+AQLsCfXLPJD+b5NfW7qYqz7EqHwssz6sqf8+LAAECBAi0KrA1SfmoYblTqzwcvty19dEkn++Sa1pF0TcBAgSGLCDAGvL01E6AQHMCfXK/JL+T5FeT3G3tm/9KYOXB6s1tg4YJECBAYAaB9QfGb0lyQ5Kjkry3S745wzm8lQABAgRWKCDAWiG+SxMgQGAagbU7rZ6d5HFrz7AqHwv0/Kpp8LyHAAECBAjcukC5I6t83LA8BP6YJAe4M8uqECBAoG4BAVbd81EdAQINC/TJ7yZ5TpK7rH008AENc2idAAECBAgsS6A8AL583PCmJG/rkkOWdSHnJUCAAIH5BQRY89s5kgABAgsX6CfPr9o/yQ/s+L/BJbD6oYVfxAkJECBAgACB2xK4KEn5mOG1SZ7VTR4M70WAAAECFQgIsCoYghIIECDQJ3+84//+PmXt2wMftHbXFRgCBAgQIEBgNQLlmw3LxwzLNxi+vUv+ejVluCoBAgQIrAsIsOwCAQIEVijQT/5A/MQdd13dP0n5FkH/XF7hPFyaAAECBAjcQqAEWeVbDC9Ze/D7i7rJ3VleBAgQILDJAv5DaZPBXY4AAQJ98l1JXpfkt5PcN8ldBVf2ggABAgQIVC1QgqzyjKxvlW8vTPLCLtladcWKI0CAwMgEBFgjG6h2CBCoV6BP7pHkFUnKNwqWEOtO9VarMgIECBAgQOA2BLZnEl4dkGTPLrmOFAECBAgsX0CAtXxjVyBAoGGBfvKRwDuvhVYlvCp3XHkRIECAAAEC4xAo4dXLk+ybZFuXlDu1vAgQIEBgCQICrCWgOiUBAgTWgqu7J/m1HQ9k3yvJT1AhQIAAAQIERitwTpKXJflgkuu7pNyl5UWAAAECCxQQYC0Q06kIECBQBPqkBFcPT/L0JM+jQoAAAQIECDQjcPDaRwu/2iXXN9O1RgkQILAJAgKsTUB2CQIE2hDoJ8+0+p4k/zXJQWvPuWqjeV0SIECAAAEC6wLl+VjPSHL0jv+R9c0u2YaGAAECBDYuIMDauKEzECBAoNx1dbckj07y+0mei4QAAQIECBBoXuCwJAfueJzACe7Gan4XABAgsAABAdYCEJ2CAIG2BfrJNwqWu67KH1K/v20N3RMgQIAAAQK7CFyb5H8nOapLriJDgAABAvMLCLDmt3MkAQIEyp1XP5zk8UkOwUGAAAECBAgQuA2BP14Lsc4kRIAAAQLzCQiw5nNzFAECBEp49ctJ/keSZ+IgQIAAAQIECNyBwPvLA9675OOkCBAgQGB2AQHW7GaOIECAQAmvfivJvkkegoMAAQIECBAgMKXAeUn+pEveN+X7vY0AAQIE1gQEWFaBAAECMwr0yVOSvDHJvWc81NsJECBAgAABAuVZWM/tkrejIECAAIHpBQRY01t5JwECBMqdV7sleUMmD273IkCAAAECBAjMI7A1yfM6z9Ccx84xBAg0KiDAanTw2iZAYHaBPnlWklfv+OjgfWY/2hEECBAgQIAAgZsJXJnkpeWLYLrkBjYECBAgcPsCAiwbQoAAgSkE+uQ5Sf5yx91X95vi7d5CgAABAgQIEJhG4PIke5dHEwixpuHyHgIEWhYQYLU8fb0TIDCVQJ+Ur77ePcn9pzrAmwgQIECAAAEC0wtcuuPRBK/pkn2mP8Q7CRAg0J6AAKu9meuYAIEZBPrkBUlenOQHZjjMWwkQIECAAAECswhctBZivX6Wg7yXAAECLQkIsFqatl4JEJhJYC28elGSB850oDcTIECAAAECBGYX2JLktV0ixJrdzhEECDQgIMBqYMhaJEBgdoG1B7a/bMeDVR88+9GOIECAAAECBAjMJXB+kld1yZvnOtpBBAgQGLGAAGvEw9UaAQLzCfTJ49ceqPozOx7c7p+T8zE6igABAgQIEJhdoE9ySpI9u+TI2Q93BAECBMYr4D/MxjtbnREgMIdAP7njaq8k/zPJPeY4hUMIECBAgAABAhsRuD7J4Un26JKzN3IixxIgQGBMAgKsMU1TLwQIbFign3zb4J8luc+GT+YEBAgQIECAAIH5BK5aex7WK+c73FEECBAYn4AAa3wz1REBAnMK9MmfJPnzJN8z5ykcRoAAAQIECBBYlMAVSV7ZJfsu6oTOQ4AAgSELCLCGPD21EyCwMIE+ecLac6/+3cJO6kQECBAgQIAAgY0JnJ5k9y55/8ZO42gCBAgMX0CANfwZ6oAAgQ0K9Mm9yx8Ok/zpjv/TeecNns7hBAgQIECAAIFFCWxP8sbyfM4uuXRRJ3UeAgQIDFFAgDXEqamZAIGFCvTJ83Y886rcni+8WqiskxEgQIAAAQILECgh1gu65A0LOJdTECBAYLACAqzBjk7hBAgsQqBPnrjjmVf7JXnYIs7nHAQIECBAgACBJQiUbyN8fpd8aAnndkoCBAgMQkCANYgxKZIAgWUI9Mk9kzw3yV8t4/zOSYAAAQIECBBYoMBLy8cJu+SaBZ7TqQgQIDAYAQHWYEalUAIEFinQTz4u+AdJ3rLI8zoXAQIECBAgQGCJAk9L8vYu2bbEazg1AQIEqhQQYFU5FkURILBsgT55eJJXJPndZV/L+QkQIECAAAECCxI4IsnLuuS0BZ3PaQgQIDAYAQHWYEalUAIEFiXQJ/dI8uQkBy/qnM5DgAABAgQIENgkgWfueHbnO7pk6yZdz2UIECBQhYAAq4oxKIIAgc0U6JNHJzkkyU9v5nVdiwABAgQIECCwAIFy99VTuuTzCziXUxAgQGAwAgKswYxKoQQILEKgT+619uyr/RdxPucgQIAAAQIECKxA4I+S/G2XXL2Ca7skAQIEViIgwFoJu4sSILAqgT55VJLDk/zIqmpwXQIECBAgQIDABgW+nuQ3u+RLGzyPwwkQIDAYAQHWYEalUAIENirQJ/dO8tQk+230XI4nQIAAAQIECKxY4Pnl25S75KoV1+HyBAgQ2BQBAdamMLsIAQI1CPTJjyc5ascf9h5SQz1qIECAAAECBAhsQOC8JL/aJV/dwDkcSoAAgcEICLAGMyqFEiCwEYE++e7ywNMkB2zkPI4lQIAAAQIECFQk8Owkb++SayuqSSkECBBYioAAaymsTkqAQG0C/eSuq6OT/FhttamHAAECBAgQIDCnwOlJ/kuXlLuxvAgQIDBqAQHWqMerOQIEikCf3DXJE9Ye3g6FAAECBAgQIDAmgd9M8uEuuXFMTemFAAECtxQQYNkJAgRGL9An35fkA0l+YfTNapAAAQIECBBoTeD4JE/qkstaa1y/BAi0JSDAamveuiXQnECflH/OPSzJ15prXsMECBAgQIBAKwIPT3J2t/PGcy8CBAiMU0CANc656ooAgTWBPrlHkv2SPBMKAQIECBAgQGCkAn+b5A+7ZOtI+9MWAQIEdt6Z4EWAAIHRCvTJfTN5sOl9RtukxggQIECAAIHWBUpw9cAu+VbrEPonQGC8AgKs8c5WZwSaF1j7+ODjkxzVPAYAAgQIECBAYOwCv1W+sMbHCMc+Zv0RaFdAgNXu7HVOYPQCfXKXJF9J8ojRN6tBAgQIECBAoHWBc5I8sktuah1C/wQIjFNAgDXOueqKAIHsfIrpXZPcAIMAAQIECBAg0IjA3brkxkZ61SYBAo0JCLAaG7h2CbQk0CdPS3JISz3rlQABAgQIEGha4OVd8oqmBTRPgMBoBQRYox2txggQ6JMrMnmIuxcBAgQIECBAoAWBa7rkXi00qkcCBNoTEGC1N3MdE2hGoN/5KUIvAgQIECBAgEA7Al1803w709YpgbYEBFhtzVu3BJoR6JMnJ3lHMw1rlAABAgQIECAwEXhul7wJBgECBMYmIMAa20T1Q4DAToF+8vD28hB3LwIECBAgQIBASwI3dsndWmpYrwQItCEgwGpjzrok0JRAn9w5yVYBVlNj1ywBAgQIECAwESjfQvjdXXITEAIECIxJQIA1pmnqhQCBnQJ98pgkx2USZHkRIECAAAECBFoS2Jbk17vkIy01rVcCBMYvIMAa/4x1SKA5gT75+I4A67HxENPmZq9hAgQIECBAYOeX2JzUJf+BBQECBMYkIMAa0zT1QoDAToE+uTzJ9+AgQIAAAQIECDQqcEWXfG+jvWubAIGRCgiwRjpYbRFoVaCf/GHt3CT3bdVA3wQIECBAgEDzAlfu+Dbmh3XJpc1LACBAYDQCAqzRjFIjBAgUgT55xo67r/ZL8l1ECBAgQIAAAQKNCly341EKf9klr260f20TIDBCAQHWCIeqJQItC/TJZ5P8+yR3atlB7wQIECBAgEDTAuU5WGd1ySOaVtA8AQKjEhBgjWqcmiFAoE/OT/IgEgQIECBAgACBxgUu6JIHN26gfQIERiQgwBrRMLVCoHWBPrl/klOT/GDrFvonQIAAAQIEmhe4KMnPdMkFzUsAIEBgFAICrFGMURMECBSBPvk/Ox7e/noPcLcPBAgQIECAAIFclWSPLnkDCwIECIxBQIA1hinqgQCBnQJ98tEkv5LkLkgIECBAgAABAo0LbEvyyS755cYdtE+AwEgEBFgjGaQ2CBDYGWCdmeThLAgQIECAAAECBHYKfM2D3G0CAQJjERBgjWWS+iBAQIBlBwgQIECAAAECNxcQYNkIAgRGIyDAGs0oNUKgbYE+eWSSjyV5SNsSuidAgAABAgQI/ItAeYD7b3XJCUwIECAwdAEB1tAnqH4CBHYK9MkeSf7UA9wtBAECBAgQIEDgXwSuTnJQl7yQCQECBIYuIMAa+gTVT4DAeoD1iSS/mOTOSAgQIECAAAECBHYKbE/ymW7yZyQvAgQIDFpAgDXo8SmeAIF1gT75YpJHESFAgAABAgQIELiZwJe65NFMCBAgMHQBAdbQJ6h+AgR2CgiwLAIBAgQIECBA4FYFBFgWgwCBUQgIsEYxRk0QaFugnzy4/agkP962hO4JECBAgAABAt8hcGaS3+iS09kQIEBgyAICrCFPT+0ECOwU6JPfS/LaHQ8p/SEkBAgQIECAAAECNxP4RpI/65J3ciFAgMCQBQRYQ56e2gkQWA+w9k2yW5J7IyFAgAABAgQIELiZwHVJ3tclT+ZCgACBIQsIsIY8PbUTILAeYB239g2E/plmJwgQIECAAAEC3ylwvG8itBYECAxdwH/sDX2C6idAoHyE8Pgkj0FBgAABAgQIECBwqwKf7pJfYEOAAIEhCwiwhjw9tRMgsFNAgGURCBAgQIAAAQK3KyDAsiAECAxeQIA1+BFqgEDbAn1y5ySfTPLzbUvongABAgQIECBwmwKfSfKfuuQmRgQIEBiqgABrqJNTNwECOwX65GeTvC3JTyIhQIAAAQIECBC4VYEzkjyzS8pzQ70IECAwSAEB1iDHpmgCBNYF+sm3D/5FkgdRIUCAAAECBAgQuFWBi5K8ukv240OAAIGhCgiwhjo5dRMgsFOgT/ZP8gdJ7oWEAAECBAgQIEDgVgW2Jnl3lzyVDwECBIYqIMAa6uTUTYDAeoD1sSSPw0GAAAECBAgQIHC7Asd0yeMZESBAYKgCAqyhTk7dBAgIsOwAAQIECBAgQGB6AQHW9FbeSYBAhQICrAqHoiQCBKYX6BN3YE3P5Z0ECBAgQIBAuwICrHZnr3MCoxAQYI1ijJog0K6AAKvd2eucAAECBAgQmElAgDUTlzcTIFCbgACrtomohwCBqQX65C5Jjkryn6c+yBsJECBAgAABAm0KfDLJk7rk8jbb1zUBAkMXEGANfYLqJ9CwQJ88MMl7kzymYQatEyBAgAABAgSmEfhSkmd2yYnTvNl7CBAgUJuAAKu2iaiHAIGpBfrksUneuCPE+smpD/JGAgQIECBAgECbAmckeVGXHNlm+7omQGDoAgKsoU9Q/QQaFuiTZyV5WZIHN8ygdQIECBAgQIDANAJbkrymS/56mjd7DwECBGoTEGDVNhH1ECAwtUCfvDzJc3fchfV9Ux/kjQQIECBAgACBNgWuT3Jol+zWZvu6JkBg6AICrKFPUP0EGhbok7ck+b0kd2+YQesECBAgQIAAgWkFPtAlvzntm72PAAECNQkIsGqahloIEJhJoE8OL9+mM9NB3kyAAAECBAgQaFdAgNXu7HVOYPACAqzBj1ADBNoVEGC1O3udEyBAgAABAnMJCLDmYnMQAQI1CAiwapiCGggQmEtAgDUXm4MIECBAgACBdgUEWO3OXucEBi8gwBr8CDVAoF0BAVa7s9c5AQIECBAgMJeAAGsuNgcRIFCDgACrhimogQCBuQQEWHOxOYgAAQIECBBoV0CA1e7sdU5g8AICrMGPUAME2hUQYLU7e50TIECAAAECcwkIsOZicxABAjUICLBqmIIaCBCYS0CANRebgwgQIECAAIF2BQRY7c5e5wQGLyDAGvwINUCgXQEBVruz1zkBAgQIECAwl8Cnkjy9S86Y62gHESBAYIUCAqwV4rs0AQLzC/TJjyU5OMkvzH8WRxIgQIAAAQIEmhI4PskzuuSrTXWtWQIERiEgwBrFGDVBoD2BPvmJJAcleUx73euYAAECBAgQIDCXwBeTPL9LPjnX0Q4iQIDACgUEWCvEd2kCBOYX6JP/lOT1SR49/1kcSYAAAQIECBBoSuD0JLt3yfub6lqzBAiMQkCANYoxaoJAewJ98t+T7J3JRwm9CBAgQIAAAQIE7ljgzCR7dsl77vit3kGAAIG6BARYdc1DNQQITCnQJ7+b5BVJHj7lId5GgAABAgQIEGhd4NIkf90le7UOoX8CBIYnIMAa3sxUTIBAkj7ZI8kfJ/l+IAQIECBAgAABAlMJXJbkDd3kfwJ6ESBAYFACAqxBjUuxBAisC/TJXyR57o4/hN2PCgECBAgQIECAwFQCV5cvwemSF071bm8iQIBARQICrIqGoRQCBKYX6JP9kzwtyd2nP8o7CRBYicBDH5rc857J2WcnW7eupAQXJUCAAIF/EXhnlzyZBwECBIYmIMAa2sTUS4DAToE+OTTJ7+MgQGAAArvvnjz+8clhhyXHHJOce26yffsAClciAQIERikgwBrlWDVFYPwCAqzxz1iHBEYpIMAa5Vg1NVaBEmDttfa84He8IzniiOT445OLLhprx/oiQIBAzQICrJqnozYCBG5TQIBlOQgQGKSAAGuQY1N0qwK7BljF4LLLkre+Nfnwh5OTTkquuaZVGX0TIEBgFQICrFWouyYBAhsWEGBtmNAJCBBYhYAAaxXqrklgToFbBljrp/n85ych1rveNXk+1rZtc17AYQQIECAwg4AAawYsbyVAoB4BAVY9s1AJAQIzCAiwZsDyVgKrFritAGu9rve8J/niF5P990+uLl+Q5UWAAAECSxQQYC0R16kJEFiegABrebbOTIDAEgUEWEvEdWoCixa4owCrXO/665O/+Zuk3JX1znd6yPuiZ+B8BAgQ+LaAAMs2ECAwSAEB1iDHpmgCBARYdoDAgASmCbDW2ynfUHjkkcnBBydf/vKAmlQqAQIEBiMgwBrMqBRKgMCuAgIs+0CAwCAFBFiDHJuiWxWYJcBaN/rYx5LTT09e8pJk69ZW5fRNgACBZQgIsJah6pwECCxdQIC1dGIXIEBgGQICrGWoOieBJQnME2CVUm64IXnf+yYfK9x33yUV57QECBBoTkCA1dzINUxgHAICrHHMURcEmhMQYDU3cg0PWWDeAKv0vH17ctFFydFHJ4cemnz840OWUDsBAgRqEBBg1TAFNRAgMLOAAGtmMgcQIFCDgACrhimogYo6urYAACAASURBVMCUAhsJsNYvUe7GOuusSYD1qlclF1445cW9jQABAgRuIfDBJLt1ySVkCBAgMCQBAdaQpqVWAgR2CvTJQ5IcmOTXkBAgMACBRQRY621edVVy2mnJ4Ycnr3nNAJpXIgECBKoTOCbJs7vkrOoqUxABAgRuR0CAZT0IEBicQJ88MsmbkvzK4IpXMIEWBRYZYO1Msfvkm99MTjwxOeig5AMfaFFVzwQIEJhX4O+TPKdLzpj3BI4jQIDAKgQEWKtQd00CBDYkIMDaEJ+DCWy+wKIDrPUObrxxEmQdccTkIe9n+G+xzR+uKxIgMECBLyV5aZccNcDalUyAQMMCAqyGh691AkMV6CcfHXxVkkcNtQd1E2hKYFkB1jriddclV16ZvPKVkzuyyvOyvAgQIEDgtgT+McnuXXIkIgIECAxJQIA1pGmplQCBnQJ98t+S7J3kp5AQIDAAgWUHWLsGWd/4RvLc5yYf+cgAYJRIgACBlQj8c5K/6pI3r+TqLkqAAIE5BQRYc8I5jACB1Qn0ybOTvCTJD6+uClcmQGBqgc0KsNYL2rYtefe7kz33TM45Z+oyvZEAAQKNCFyUZJ8u2aeRfrVJgMBIBARYIxmkNgi0JNAnf5rkRUke0FLfeiUwWIHNDrB2hdptt+S9703KtxeWh797ESBAgMDFawHWa1EQIEBgSAICrCFNS60ECOwU6JMXJ3lhkvsjIUBgAAKrDLAKz9VXJ7/0S8nXvpZcc40gawAro0QCBJYucHCXPGPpV3EBAgQILFBAgLVATKciQGBzBPrkoCRP35yruQoBAhsWWHWAtd7AsccmT396smXLJMjyIkCAQLsCAqx2Z69zAoMVEGANdnQKJ9CugACr3dnrfKACtQRY63wve9nkY4Xl+Vjbtw8UVdkECBDYkIAAa0N8DiZAYBUCAqxVqLsmAQIbEhBgbYjPwQQ2X6C2AKsI3HRT8tjHJhddNPlooRcBAgTaEhBgtTVv3RIYhYAAaxRj1ASBtgQEWG3NW7cjEKgxwCqs5e6rr341eepTk/POSy68cATYWiBAgMBUAgKsqZi8iQCBmgQEWDVNQy0ECEwlIMCaismbCNQjUGuAtS5UvqHwrW9NDjssOeWUZOvWeuxUQoAAgeUICLCW4+qsBAgsUUCAtURcpyZAYDkCAqzluDorgaUJ1B5grTd+7rnJq1+dnHzy5IcXAQIExisgwBrvbHVGYLQCAqzRjlZjBMYrIMAa72x1NlKBoQRYhX/btuRzn0te97rkK19JzjxzpEPRFgECjQsIsBpfAO0TGKKAAGuIU1MzgcYFBFiNL4D2hycwpABrXffyy5OPfjQ59NDkxBOTyy4bnruKCRAgcNsCAizbQYDA4AQEWIMbmYIJEBBg2QECAxMYYoC1TnzGGcmHPpS8732TIKvcoeVFgACB4QsIsIY/Qx0QaE5AgNXcyDVMYPgCAqzhz1AHjQkMOcBaH9WxxyYf+cjkR/looRcBAgSGLSDAGvb8VE+gSQEBVpNj1zSBYQsIsIY9P9U3KDCGAKuMrXw74dFHJ+99b3LMMckllzQ4TC0TIDASAQHWSAapDQItCQiwWpq2XgmMRECANZJBaqMdgbEEWOsTO+us5DOfSd72tuSzn02uu66dWeqUAIGxCPy/JH/UJZeOpSF9ECAwfgEB1vhnrEMCoxLokwckeVOS3xlVY5ohMGaBsQVY67M64YTklFOSV7wiueCCMU9QbwQIjE/gw0me3yVnja81HREgMFYBAdZYJ6svAiMV6JMfTbJfkieMtEVtERifwFgDrDKpm26afKzw5JOTffZJrrpqfPPTEQECYxT49I4PRr+4S8rPXgQIEBiEgABrEGNSJAEC6wJ98otJXp3k56kQIDAQgTEHWOsjuPzyyccJ3/Sm5Kijkr4fyHCUSYBAowJfSLJ7lxzVaP/aJkBggAICrAEOTckEWhbok19NsneSn27ZQe8EBiXQQoC1PpDTT0/OPz950pOSa64Z1JgUS4BAUwICrKbGrVkC4xAQYI1jjrog0IyAAKuZUWt0TAItBVjrc/vc55Izz0ye8pQxTVIvBAiMR+CfkuzVJYeMpyWdECAwdgEB1tgnrD8CIxPok6fveOrMHkkeMrLWtENgvAItBlhlmlu3Jl/4QrL//slhh413vjojQGCIAluSvKqbfDGOFwECBAYhIMAaxJgUSYDAukCfPCfJy5I8kAoBAgMRaDXAKuPZvj257LLk1FOT5z0vOe20gQxNmQQIjFxga5LXdcmfj7xP7REgMCIBAdaIhqkVAi0I9MleSV6440Hu92ihXz0SGIVAywHW+gDLtxVecknykY8ku+02irFqggCBQQuUb5rYr0v+ZNBdKJ4AgaYEBFhNjVuzBIYv0CevT/L84XeiAwINCQiwvj3sG29MzjsvOfDAZJ99GloCrRIgUKFACbBeUGFdSiJAgMCtCgiwLAYBAoMSEGANalyKJTAREGDdfBP6fvLRwuOOS17ykuSkk2wKAQIEViEgwFqFumsSIDC3gABrbjoHEiCwCgEB1irUXZPABgUEWLcP+PrXJ3vumVx77STY8iJAgMDmCAiwNsfZVQgQWJCAAGtBkE5DgMDmCAiwNsfZVQgsVECAdcecV1yR7LFH8ra3Jdddl2zbdsfHeAcBAgQ2JiDA2pifowkQ2GQBAdYmg7scAQIbExBgbczP0QRWIiDAmp79mGOS17wmOfHE5Jpr3JE1vZx3EiAwu4AAa3YzRxAgsEIBAdYK8V2aAIHZBQRYs5s5gsDKBQRYs4+gfKzw0EOT006b3JHlRYAAgcULCLAWb+qMBAgsUUCAtURcpyZAYPECAqzFmzojgaULCLDmIy7PxPrDP0xOOCE599ykfIOhFwECBBYnIMBanKUzESCwCQICrE1AdgkCBBYnIMBanKUzEdg0AQHWxqhPPz156UsnHyvcsiUp32LoRYAAgY0LCLA2bugMBAhsooAAaxOxXYoAgY0LCLA2bugMBDZdQIC1GPIDD0w++MHk2GOTrVsXc05nIUCgZQEBVsvT1zuBAQoIsAY4NCUTaFlAgNXy9PU+WAEB1mJH96xnJWedlfz93y/2vM5GgEBrAgKs1iauXwIDFxBgDXyAyifQmoAAq7WJ63cUAgKsxY/xoouS5z9/8pD3U09d/PmdkQCBFgQEWC1MWY8ERiQgwBrRMLVCoAUBAVYLU9bj6AQEWMsZ6U03JUcdlbzrXckxxySXXrqc6zgrAQJjFTg4yQu75KqxNqgvAgTGJSDAGtc8dUNg1AJ9cp8k+yZ52qgb1RyBsQkIsJY70SuuSA45JPn0p5MPfGC513J2AgTGJPB3Sf6sS84dU1N6IUBgvAICrPHOVmcERifQJw9N8n+T/PbomtMQgTELCLCWP93t25Ozz07Kg95PPjk57rjlX9MVCBAYukBJvEuA9bWhN6J+AgTaEBBgtTFnXRIYhYAAaxRj1ESLAgKszZv6dddNAqx3vCP56EeT887bvGu7EgECQxP4hyQv7ZITh1a4egkQaFNAgNXm3HVNYJACffKzSf4qya8MsgFFE2hVQIC1+ZPfsiX51KcmHyksP7Zu3fwaXJEAgdoFPpdk9y4pQZYXAQIEqhcQYFU/IgUSILAu0Ce/nGTvJD9HhQCBAQkIsFY3rDPPTD7xieTd706OPXZ1dbgyAQI1CgiwapyKmggQuE0BAZblIEBgMAICrMGMSqEEbi4gwFrtRtxwQ3LqqckRRyTveU/yNY+7We1AXJ1ANQJnJnl5l7y7mooUQoAAgdsREGBZDwIEBiPQJ/8rySuS/OhgilYoAQKJAKuOLbj00uS005KDDkqOPDK58so66lIFAQKrEjg/yV92ySGrKsB1CRAgMIuAAGsWLe8lQGClAn2yW/k/hUkevNJCXJwAgdkEBFizeS373eeem5SPFr74xckppyz7as5PgEC9AgKsemejMgIEbkVAgGUtCBAYjIAAazCjUiiBmwsIsOrbiG3bkq9+NTnppGTPPZPzy3/HehEg0JjADUn26pJXNta3dgkQGKiAAGugg1M2gRYF+mTPJHvseJD7XVvsX88EBisgwKp3dOXbCb/+9eSAA5K3vCW59tp6a1UZAQLLENi7m/zZyosAAQLVCwiwqh+RAgkQWBfok73K1z0TIUBgYAICrPoH9s1vJpdfnjzxicnpp9dfrwoJEFiUgABrUZLOQ4DA0gUEWEsndgECBBYlIMBalKTzENhkAQHWJoNv4HIXX5yUZ2T93M9t4CQOJUBgQAICrAENS6kEWhcQYLW+AfonMCABAdaAhqVUArsKCLCGtQ/btydXXJG84Q07vp/sL4dVu2oJEJhVQIA1q5j3EyCwMgEB1sroXZgAgVkFBFizink/gUoEBFiVDGLGMkqQVe7I+o3fSE48ccaDvZ0AgYEICLAGMihlEiCQCLBsAQECgxEQYA1mVAolcHMBAdawN6IEWSeckDzhCcmVVyblGwy9CBAYi4AAayyT1AeBBgQEWA0MWYsExiIgwBrLJPXRnIAAaxwjL+HV29+elHmWby+86aZx9KULAm0LCLDanr/uCQxKQIA1qHEplkDbAgKstuev+wELCLAGPLxbKb18S+Heeycf/nDyrW8l5Q4tLwIEhiogwBrq5NRNoEEBAVaDQ9cygaEKCLCGOjl1Ny8gwBrnCpQAa889k3POmTz03YsAgSEKCLCGODU1E2hUQIDV6OC1TWCIAgKsIU5NzQQy+cjZXnuhGKPANdckBx2UvPnNyZYtydVXj7FLPREYs4AAa8zT1RuBkQkIsEY2UO0QGLOAAGvM09XbqAUEWKMe787mvvzl5MADJx8rvOCC5MYbx9+zDgmMQ0CANY456oJAEwICrCbGrEkC4xAQYI1jjrpoUECA1c7Q/+7vksMOSz796eTii5O+b6d3nRIYpoAAa5hzUzWBJgUEWE2OXdMEhikgwBrm3FRNwEcIG9uB669P3vjG5OijkxNOSK66qjEA7RIYlIAAa1DjUiyBtgUEWG3PX/cEBiUgwBrUuBRL4NsC7sBqcxvOOy854IDkYx9LvvKV5IYb2nTQNYG6BQRYdc9HdQQI7CIgwLIOBAgMRkCANZhRKZTAzQUEWG1vRAmwyrOx3v3u5JJLfKyw7W3QfX0CAqz6ZqIiAgRuQ0CAZTUIEBiMgABrMKNSKAEBlh34ToH99pvcifWWtyTbtxMiQKAOAQFWHXNQBQECUwgIsKZA8hYCBOoQEGDVMQdVEJhZwB1YM5ON9oArrkj23Tf54heTD31otG1qjMCABARYAxqWUgm0LiDAan0D9E9gQAICrAENS6kEdhUQYNmHWwqcckpy+OHJW9+alGdleREgsCoBAdaq5F2XAIGZBQRYM5M5gACBVQkIsFYl77oENiggwNog4EgPv/HG5P3vT7785eS1r03Ktxd6ESCw2QICrM0Wdz0CBOYWEGDNTedAAgQ2W0CAtdnirkdgQQICrAVBjvQ0V16ZHHZYctxxk5+9CBDYTIEDk+zeJd/czIu6FgECBOYREGDNo+YYAgRWIiDAWgm7ixLYuIAAa+OGYz/DTTcl55yTHHlk8s53Tp6R5UWAwGYIHJpkjy75p824mGsQIEBgIwICrI3oOZYAgU0T6JP7J9k7ydM37aIuRIDAYgQEWItxbOEsV189+UjhEUck+++fXHVVC13rkcAqBQRYq9R3bQIEZhIQYM3E5c0ECKxKoE/+VZK9kjx5VTW4LgECcwoIsOaEa/iwiy9OTj55cjdW+eFFgMCyBARYy5J1XgIEFi4gwFo4qRMSILAMAQHWMlSdk8AmCQiwNgl6ZJfZti254ILk2GOTgw5KPv3pkTWoHQJVCAiwqhiDIggQmEZAgDWNkvcQILByAQHWykegAALzCwiw5rdzZLJ1a3LhhZMQ65BDkksvpUKAwOIEBFiLs3QmAgSWLCDAWjKw0xMgsBgBAdZiHJ2FwEoEBFgrYR/dRa+4Irn88uQlL0ne//6kPPjdiwCBjQoIsDYq6HgCBDZNQIC1adQuRIDARgQEWBvRcyyBFQsIsFY8gJFdvgRZX/hC8oIXJKeeOrLmtENg0wWOTbJ7l3xm06/sggQIEJhRQIA1I5i3EyCwGgEB1mrcXZXAQgQEWAthdJJdBMrzsa69NjnggGSffXys0HIQmF/gU2sBVvnZiwABAlULCLCqHo/iCBBYF+iTRyTZO8lvUyFAYGACAqyBDWxA5W7fnpQw63GPS44/fvLXXgQIzCIgwJpFy3sJEFipgABrpfwuToDAtAJ98otrAVb52YsAgSEJCLCGNK1h1Vqeg/WJTyRPeUqyZcuwalctgToEBFh1zEEVBAhMISDAmgLJWwgQWL2AAGv1M1ABgbkFBFhz0znwNgTKNxOWB7r/+q8nJ5+MiQCB+QUEWPPbOZIAgU0WEGBtMrjLESAwn4AAaz43RxGoQkCAVcUYRlHEddclV16Z7LFHcthhydVXj6ItTRBYoYAAa4X4Lk2AwGwCAqzZvLybAIEVCQiwVgTvsgQWISDAWoRi2+coz7q65JLkAx9IXv/65Iwz2vbQPYHFCQiwFmfpTAQILFlAgLVkYKcnQGAxAgKsxTg6C4GVCAiwVsI+mouW4KoEVuXbBo84YjRtaYRAJQICrEoGoQwCBO5YQIB1x0beQYBABQICrAqGoAQC8woIsOaVa/u48lHBr389Ofjg5KCDkhtuaNtD9wSWIyDAWo6rsxIgsAQBAdYSUJ2SAIHFCwiwFm/qjAQ2TUCAtWnUo7jQ9ddPgqsPfWgSXvm44CjGqolqBQRY1Y5GYQQI3FJAgGUnCBAYhIAAaxBjUiSBWxcQYNmMaQT6PtmyJTn66OTww5Mjj5zmKO8hQGBjAicm2aNLjtnYaRxNgACB5QsIsJZv7AoECCxAQIC1AESnILAqAQHWquSHc93yccF/+Ifkk5+cPKTdiwCBzRI4O8nuXfKezbqg6xAgQGBeAQHWvHKOI0BgUwUEWJvK7WIEFisgwFqs55jOduONyUknTcKrN74xufjiMXWnFwJDEDhvLcA6dAjFqpEAgbYFBFhtz1/3BAYjIMAazKgUSuA7BQRYtuLWBC64IDn00OTDH04+VR7D40WAwAoEBFgrQHdJAgTmExBgzefmKAIENllAgLXJ4C5HYJECAqxFao7jXP+/vXuBvuyq6wP+vUBAlKdihQpSLLB81Kp01Ud1qS0+ulhVYxVQwYXQgC2WGhAtmhARg6RgSAAFDUEqxPAMRDFAeIVXQpBXCJCEEIQkQBJIyDuTx2ROZ8+9f5xMJ7P/733P2Z+z1qxMZt97fvv3+Z2Vmfnm3HP/7M+S88+fP6TdQYBASwEBVkt9tQkQWJOAAGtNXF5MgEArAQFWK3l1CWyCgABrExAncorXvz75xCeSo49ObrxxIk1pg8CoBQRYox6fzRPoS0CA1de8dUtgtAICrNGOzsYJJAIsV0G52+pv/iZ54xuTz3wmKd846CBAYBkEBFjLMAV7IEBgVQICrFUxeREBAq0FBFitJ6A+gQ0ICLA2gDfyt950U3LUUck//mPyrncl5d8dBAgsk4AAa5mmYS8ECBxQQIDlAiFAYBQCAqxRjMkmCexfQIDV55Xx13+dvOc9yZvfnFx1VZ8Guiaw/AICrOWfkR0SILAQEGC5FAgQGIWAAGsUY7JJAgIs10By5pnzbxd8y1uSiy5Kbr2VCgECyysgwFre2dgZAQL7CAiwXBIECIxCQIA1ijHZJAEBVs/XwOWXJy95yfw5VxdckFx/fc8aeicwFgEB1lgmZZ8ECESA5SIgQGAUAgKsUYzJJgkIsHq9BsoD2o87bv6A9iuu6FVB3wTGKCDAGuPU7JlApwICrE4Hr20CYxMQYI1tYvZLYC8Bz8Ca7uXwvvclL3xhcsYZyWWX+XbB6U5aZ9MVEGBNd7Y6IzA5AQHW5EaqIQLTFBBgTXOuuupEQIA1vUFffPH844KvfGVSPjp4883T61FHBPoQ+GCSw2fJu/toV5cECIxZQIA15unZO4GOBARYHQ1bq9MTEGBNZ6Y7dyZ///fJk5+cXHttcsMN0+lNJwT6FHh/ksNmSfmngwABAkstIMBa6vHYHAECKwICLNcCgRELCLBGPLy9tn7WWcmjH5188YuCq2lMVBcEioAAy3VAgMBoBARYoxmVjRLoW0CA1ff8dT9yAQHWuAf4ta8lRxyR/NVfJeUOLAcBAlMSEGBNaZp6ITBxAQHWxAesPQJTERBgTWWS+uhSQIA1zrHfeGNy2mnJIx4xzv3bNQECqxEQYK1GyWsIEFgKAQHWUozBJggQqAkIsGpC1gkssYAAa4mHs5+tXX/9/COCD35wcs0149q73RIgsFYBAdZaxbyeAIFmAgKsZvQKEyCwFgEB1lq0vJbAkgkIsJZsILeznR07kiuvTJ74xOQtbxnHnu2SAIGNCgiwNiro/QQIbJuAAGvbqBUiQGAjAgKsjeh5L4HGAgKsxgOolN+1K7noovm3Cz7jGUkJshwECPQiIMDqZdL6JDABAQHWBIaoBQI9CAzJjyQ5cve35Ty8h371SGBSAgKs5R3nF76QXHJJ8qhHzb9d0EGAQG8CAqzeJq5fAiMWEGCNeHi2TqAngSF54CLAemxPfeuVwCQEBFjLN8bLL08uvDB5+tOT009Pbrll+fZoRwQIbIeAAGs7lNUgQGBTBARYm8LoJAQIbLWAAGurhZ2fwBYKCLC2EHeNpy7fLHjuuckb3pC84hXzu68cBAj0LPCOJIfNkg/3jKB3AgTGISDAGsec7JJA9wICrO4vAQBjFhBgLcf0zjknOfPM5CUvST760eXYk10QINBa4IQkh8+SC1tvRH0CBAjUBARYNSHrBAgshYAAaynGYBME1icgwFqf22a9qzyg/ROfSI4/fv7tgjt3btaZnYcAgfELCLDGP0MdEOhGQIDVzag1SmDcAgKscc/P7jsXEGC1uQCuvjr52MeS170uedObkssua7MPVQkQWGYBAdYyT8feCBC4jYAAywVBgMAoBARYoxiTTRLYv4AAa3uvjF27kvJxwVe/Ojn1VB8X3F591QiMTUCANbaJ2S+BjgUEWB0PX+sExiQwJPdafAvhb49p3/ZKgEB5PPBhyZFHotgOgYsvnt9x9YEPJCefvB0V1SBAYNwCAqxxz8/uCXQlIMDqatyaJTBugSEpfwM+bNxd2D2BDgUEWFs/9OuuS97xjnloddJJyfXXb31NFQgQmIKAAGsKU9QDgU4EBFidDFqbBKYgIMCawhT10KWAAGvrxl4eyH7WWclxxyVnnJF8+tNbV8uZCRCYosCLy/8cnCXXTrE5PREgMC0BAda05qkbApMWEGBNeryam7KAAGtrprtjR/J7vzcPrd7znq2p4awECExd4Dmz5PCpN6k/AgSmISDAmsYcdUGgCwEBVhdj1uQUBQRYmz/V8kyxs8+ef2Twlls2//zOSIBALwICrF4mrU8CExAQYE1giFog0IuAAKuXSetzcgICrM0b6fvfnxx7bPLe9yZXXLF553UmAgR6FRBg9Tp5fRMYoYAAa4RDs2UCvQoIsHqdvL5HLyDA2vgIb7ghecITknPOST71qWQYNn5OZyBAgEAiwHIVECAwGgEB1mhGZaMECAiwXAMERiogwNrY4Mpzrj74weTDH05uvnlj5/JuAgQI3FZAgOWKIEBgNAICrNGMykYJEBBguQYIjFRAgLW+wZ1ySvLnfz7/dsFrr3XX1foUvYsAgQMLCLBcIQQIjEZAgDWaUdkoAQICLNcAgZEKCLDWNrjPfS45/PDktNPmz7nauXNt7/dqAgQIrF5AgLV6K68kQKCxgACr8QCUJ0Bg9QICrNVbeSWBpRIQYK1+HEcckbziFclXvuLjgqtX80oCBNYvIMBav513EiCwzQICrG0GV44AgfULCLDWb+edBJoKCLDq/K96VXLUUUm5++qmm+qv9woCBAhsjoAAa3McnYUAgW0QEGBtA7ISBAhsjoAAa3McnYXAtgsIsG6f/Nxzk2c9KznppOTWW7d9NAoSINC9gACr+0sAAIHxCAiwxjMrOyXQvYAAq/tLAMBYBQRYt53crl3JNdckf/EX82ddOQgQINBOQIDVzl5lAgTWKCDAWiOYlxMg0E5AgNXOXmUCGxIQYM35SnC1Y0fy9rcnT3zi/AHtDgIECLQVEGC19VedAIE1CAiw1oDlpQQItBUQYLX1V53AugV6D7CGIbnhhuTss5M/+ZPkrW9dN6U3EiBAYJMFBFibDOp0BAhsnYAAa+tsnZkAgU0WEGBtMqjTEdgugZ4DrJ07k898Jvm7v0uKg4MAAQLLJSDAWq552A0BAgcQEGC5PAgQGI2AAGs0o7JRArcV6DHAKnddXXBBcuGFycEHJ9df76ogQIDAMgoIsJZxKvZEgMB+BQRYLgwCBEYjIMAazahslEDfAdZXvpKcd17ylKfMPzboIECAwPIKCLCWdzZ2RoDAPgICLJcEAQKjERBgjWZUNkqgzwDrxhuTD34wedvbkuc9z1VAgACBMQgIsMYwJXskQGCPgADLhUCAwGgEhuQPk5TvnL/raDZtowQIzJ/9dOSR05Y4/fT5s67KXVflge0OAgQILL/AriQlwDpi+bdqhwQIEBBguQYIEBiRwJAckuSPktx/RNu2VQIEphxgldDqU59Kjjhi/rHBXeXvgw4CBAiMQuCaJM+eJUePYrc2SYBA9wLuwOr+EgBAYDwCAqzxzMpOCdxGYIoB1pVXJu99b/La1yannJJce62hEyBAYGwCX9z9iZw/niXHj23j9kuAQJ8CAqw+565rAqMUGJJHlv9TmOS7RtmATRPoVWBqAda73pWUHyeckFx8ca9T1TcBAuMXuHB3C8+aJf93/K3ogACBHgQEWD1MWY8EJiIwJP+pPKshyY9MpCVtEOhDYCoB1kc/mpRnXb3qVcnHP57cemsf/bcD+gAAIABJREFU89MlAQJTFfhkkmfOkr+baoP6IkBgWgICrGnNUzcEJi0gwJr0eDU3ZYGxB1hf/GLyzncmr3nNPMC67ropT0tvBAj0I3BmksNmybv7aVmnBAiMWUCANebp2TuBzgSG5AeSHJXk5zprXbsExi0w1gDrppuSd787eeUrkzPOSC66aNxzsHsCBAjcVuBdSZ4xSz4ChgABAmMQEGCNYUr2SIDAHoEheVCS5yX5FSQECIxIYIwB1llnJccfn3zwg8nHPjYibFslQIDAqgXelOT3Z8kFq36HFxIgQKChgACrIb7SBAisTWBI7p35Vz0/fm3v9GoCBJoKjCnAuuSS5MQTkze/OTnzzKTcheUgQIDANAXesAiwPj/N9nRFgMDUBARYU5uofghMWGBI7pjkmCRPmXCbWiMwPYExBFg33jj/ZsFjjkk+/enk0kunNwcdESBA4LYCf5XkabPkBjAECBAYg4AAawxTskcCBL4uMMwDrEORECAwIoFlDrCGIfmnf0p+53eSz30uOe+8EcHaKgECBDYkcOwseeqGzuDNBAgQ2EYBAdY2YitFgMDGBQRYGzd0BgLbLrCsAdaOHcmhhyYf+lDyqU8lt9667TQKEiBAoKGAAKshvtIECKxdQIC1djPvIECgoYAAqyG+0gTWK7CMAdYJJyTPf/78rqvrr19vZ95HgACBMQsIsMY8PXsn0KGAAKvDoWuZwJgFBFhjnp69dyuwTAHWl7+cPPzhyeWXz384CBAg0K+AAKvf2eucwCgFBFijHJtNE+hXQIDV7+x1PmKBZQmwfv7nk49+dP6A9vLsKwcBAgT6FhBg9T1/3RMYnYAAa3Qjs2ECfQsIsPqev+5HKtA6wHrxi5Ojj06+9KVk586RIto2AQIENl1AgLXppE5IgMBWCgiwtlLXuQkQ2HQBAdamkzohga0XaBVgnX128rjHJZ/8pAe0b/2UVSBAYHwCAqzxzcyOCXQtIMDqevyaJzA+AQHW+GZmxwSynQHWrl3JtdcmhxySnHyyO65cfgQIELh9AQGWq4MAgVEJCLBGNS6bJUBgSI5O8tQk/vvlciAwFoHtCLBuvTXZsSM59tjkRS9KvvrVsejYJwECBFoJCLBayatLgMC6BPwFcF1s3kSAQCuBIfmfSf4wyf1a7UFdAgTWKLCVAdbKHVfveU9y1FHJmWeucXNeToAAgS4Fbkxy9Cw5vMvuNU2AwCgFBFijHJtNE+hXYEh+K8lhSR7Qr4LOCYxMYKsCrPJRwc9/fn7H1ctfPjIU2yVAgEBTgS8lec4seWnTXShOgACBNQgIsNaA5aUECLQXGJL/XP7AleRh7XdjBwQIrEpgswOs8lHB8o2CJ52UPPe5ydVXr2obXkSAAAECXxc4b/fPnjVLXsuEAAECYxEQYI1lUvZJgMAegSH5qSTPTfIjSAgQGInAZgVYO3cml12WvP3t87uuzjprJAC2SYAAgaUTKJ+3/oNZ8p6l25kNESBA4HYEBFguDQIERiUwJA9M8sIkvziqjdssgZ4FNhpgDcP8LqvynKu3vjU57rieNfVOgACBzRA4Jcmhs+SCzTiZcxAgQGA7BARY26GsBgECmyYwJHfL/HkNj920kzoRAQJbK7CRAOvmm5Mzzpj/KOdxECBAgMBmCJyU5Cmz5JLNOJlzECBAYDsEBFjboawGAQKbKjAk5faLJ27qSZ2MAIGtE1hPgFXuujrnnOQDH0ie//zkc5/buv05MwECBPoTeNkseVJ/beuYAIExCwiwxjw9eyfQqYAAq9PBa3u8AmsNsK67LjnxxOTUU5M3vnG8fds5AQIElldAgLW8s7EzAgRuR0CA5dIgQGB0AgKs0Y3MhnsXWEuAdcIJyWc/mzz72b2r6Z8AAQJbKSDA2kpd5yZAYEsEBFhbwuqkBAhspYAAayt1nZvAFgisJsA67bTkwx9OjjkmufTSLdiEUxIgQIDAXgICLJcDAQKjExBgjW5kNkyAgADLNUBgZAIHCrC+/OXkNa9J3vCG5CMfSW65ZWTN2S4BAgRGKSDAGuXYbJpA3wICrL7nr3sCoxQQYI1ybDbds8D+Aqzy7YIve9n82wXf8pbkqqt6FtI7AQIEtltAgLXd4uoRILBhAQHWhgmdgACB7RYYkj9J8r+S3GO7a6tHgMA6BPYNsE45JXnb25KTTkou8Q3u6xD1FgIECGxE4KYkL50lT93ISbyXAAEC2y0gwNpucfUIENiwwJA8PskzkzxowydzAgIEtl5gJcA6++zkda9L/uEfkvPOS24qf4dyECBAgMA2C1yR5JhZ8pxtrqscAQIENiQgwNoQnzcTINBCYEgOTnJkku9tUV9NAgTWKHDoocn3fE/yilck557r44Jr5PNyAgQIbLLA+bvP96xZ8upNPq/TESBAYEsFBFhbyuvkBAhshcCQ/GCSY5P8xFac3zkJENhkgQc8YH7Ciy/e5BM7HQECBAisQ+B9SQ6dJR9fx3u9hQABAs0EBFjN6BUmQGC9AkNy190fH/ybJI9c7zm8jwABAgQIECDQqcCbkjxhlvj2jE4vAG0TGKuAAGusk7NvAp0LDMkJSR7TOYP2CRAgQIAAAQJrFTgxyW/Mkl1rfaPXEyBAoKWAAKulvtoECKxbQIC1bjpvJECAAAECBPoW+NtZ8ti+CXRPgMAYBQRYY5yaPRMgEAGWi4AAAQIECBAgsC4BAda62LyJAIHWAgKs1hNQnwCBdQkIsNbF5k0ECBAgQIAAAQGWa4AAgVEKCLBGOTabJkBAgOUaIECAAAECBAisS0CAtS42byJAoLWAAKv1BNQnQGBdAkNyWPkK6CT3WdcJvIkAAQIECBAg0J/A5UmOnSXP6a91HRMgMHYBAdbYJ2j/BDoVGJKDk/xpku/ulEDbBAgQIECAAIG1Clyw+w3PmiV/u9Y3ej0BAgRaCwiwWk9AfQIE1iUwJA9JcnySn1jXCbyJAAECBAgQINCfwEeS/M4sOaO/1nVMgMDYBQRYY5+g/RPoWGBI3pT5nVgOAgQIECBAgACBusCpSX59lnyt/lKvIECAwHIJCLCWax52Q4DAGgQEWGvA8lICBAgQIECAQHLyLPklEAQIEBijgABrjFOzZwIE9ggIsFwIBAgQIECAAIE1CQiw1sTlxQQILJOAAGuZpmEvBAisSUCAtSYuLyZAgAABAgQICLBcAwQIjFZAgDXa0dk4AQJD8sokv5rkIBoECBAgQIAAAQIHFNiZ5HWz5DGcCBAgMEYBAdYYp2bPBAjsERiSp2f+49uQECBAgAABAgQIHFDgiiQvniV/zIkAAQJjFBBgjXFq9kyAwEqA9XNJjkny3UgIECBAgAABAgQOKHB++R9/s+TNnAgQIDBGAQHWGKdmzwQIrARY90vy+iQ/hoQAAQIECBAgQOCAAqcneeQsuYQTAQIExiggwBrj1OyZAIGvCwzJ25P8DBICBAgQIECAAIEDCrxjlvwsIwIECIxVQIA11snZNwECewQEWC4EAgQIECBAgMCqBARYq2LyIgIEllVAgLWsk7EvAgRWJSDAWhWTFxEgQIAAAQIEBFiuAQIERi0gwBr1+GyeAIFh/iDSRyS5Aw0CBAgQIECAAIHbFRBguTgIEBi1gABr1OOzeQIEhuSFSR6f5O40CBAgQIAAAQIE9iuwI8mJs+QQPgQIEBirgABrrJOzbwIE9ggMya8mOSrJA5EQIECAAAECBAjsV6B88+CfzpI/50OAAIGxCgiwxjo5+yZAYCXAenCSNyT5fiQECBAgQIAAAQL7FTgvySGz5HQ+BAgQGKuAAGusk7NvAgRWAqyDkrw3yY8iIUCAAAECBAgQ2K/Ah5I8fJZcz4cAAQJjFRBgjXVy9k2AwNcFhuQDSX4MCQECBAgQIECAwH4FTp8lP86GAAECYxYQYI15evZOgMAeAQGWC4EAAQIECBAgcEABAZYLhACB0QsIsEY/Qg0QICDAcg0QIECAAAECBARYrgECBKYtIMCa9nx1R6ALgSF5aZLfSPJNXTSsSQIECBAgQIDA6gVuTPK6WfK41b/FKwkQILB8AgKs5ZuJHREgsEaBIflvSY5Mct81vtXLCRAgQIAAAQJTF7g0yTNnyfFTb1R/BAhMW0CANe356o5AFwJD8gNJXp/kwV00rEkCBAgQIECAwOoFLkjyyFly1urf4pUECBBYPgEB1vLNxI4IEFiHwJB8PPMgy0GAAAECBAgQIPDPAmfNkh8EQoAAgbELCLDGPkH7J0Bgj4AAy4VAgAABAgQIENivgADLhUGAwCQEBFiTGKMmCBAQYLkGCBAgQIAAAQICLNcAAQLTFRBgTXe2OiPQlcCQvD/Jf0hyh64a1ywBAgQIECBA4PYFdiX50Gz+ZyQHAQIERi0gwBr1+GyeAIEVgSF5ZpLfTXJPKgQIECBAgAABAnsErkty3Gz+ZyQHAQIERi0gwBr1+GyeAIG9AqzyAPc3J7k/FQIECBAgQIAAgT0ClyZ53O47sN7OgwABAmMXEGCNfYL2T4DA1wWG5PwkD0FCgAABAgQIECCwR+BzSb5vluzgQYAAgbELCLDGPkH7J0BAgOUaIECAAAECBAjsX+Czs+ShcAgQIDAFAQHWFKaoBwIE9gi4A8uFQIAAAQIECBC4jYAAywVBgMBkBARYkxmlRggQGJKTkzwiyUE0CBAgQIAAAQKdC+xM8r5Z8vDOHbRPgMBEBARYExmkNggQ2HMH1q+Ub9pJcm8eBAgQIECAAIHOBa5J8oxZ8tLOHbRPgMBEBARYExmkNggQ2BNg3SfJJ5PclwcBAgQIECBAoHOB8g2E/26WfLlzB+0TIDARAQHWRAapDQIE5gJD8sUk386DAAECBAgQINC5wJdmyf07N9A+AQITEhBgTWiYWiFAQIDlGiBAgAABAgQILAQEWC4FAgQmJSDAmtQ4NUOAwJCckOTRSe5EgwABAgQIECDQqUB5gPvfz5Jf7rR/bRMgMEEBAdYEh6olAj0LDMmPJ3lrkrv17KB3AgQIECBAoGuB65M8apa8pWsFzRMgMCkBAdakxqkZAgSG5BuSlIeW3pMGAQIECBAgQKBTgauT3H+WXNdp/9omQGCCAgKsCQ5VSwR6FxiSK5Pcq3cH/RMgQIAAAQLdClw1S+7dbfcaJ0BgkgICrEmOVVME+hYYktOS/GQS/43r+1LQPQECBAgQ6FFgSPKR3R8f/KEem9czAQLTFfCXu+nOVmcEuhUYkp9P8qYkd+wWQeMECBAgQIBArwK3JvnN2fyLbRwECBCYjIAAazKj1AgBAisCQ3LnzJ/5cBAVAgQIECBAgEBnArckuccsubGzvrVLgMDEBQRYEx+w9gj0KjAkNwuwep2+vgkQIECAQNcCt8zm/zPPQYAAgUkJCLAmNU7NECCwIjAkb0zyS0QIECBAgAABAp0JvHuWPLyznrVLgEAHAgKsDoasRQI9CgzJA3c//+ELPfauZwIECBAgQKBrge+fJWd3LaB5AgQmKSDAmuRYNUWAQBEYkl2+idC1QIAAAQIECPQkMPMtzD2NW68EuhIQYHU1bs0S6EtgSC5M8h19da1bAgQIECBAoGOBq2fJvTruX+sECExYQIA14eFqjUDvAkPyqCSv7d1B/wQIECBAgEA3AofMkpd3061GCRDoSkCA1dW4NUugL4EhOSjzbyN0ECBAgAABAgR6ELjzLLmlh0b1SIBAfwICrP5mrmMC3QgMyZ2SXJD5A90dBAgQIECAAIEpC1xaHp0gwJryiPVGoG8BAVbf89c9gUkLDMkdkvx6kldNulHNESBAgAABAgSS301y7Gz+JTYOAgQITE5AgDW5kWqIAIG9BYb5g0yvpEKAAAECBAgQmLjAvWfJVRPvUXsECHQsIMDqePhaJ9CDwJDcLck7k/xwD/3qkQABAgQIEOhS4GNJfnKWXNdl95omQKALAQFWF2PWJIF+BYbkjkkenuTUfhV0ToAAAQIECExc4OAkp8ySnRPvU3sECHQsIMDqePhaJ9CLwJDcN8nHM/+ngwABAgQIECAwJYFy19VDZ8klU2pKLwQIENhXQIDlmiBAYPICQ/KNSQ5N8pzJN6tBAgQIECBAoDeBY5McMUuu7a1x/RIg0JeAAKuveeuWQLcCQ/KQ3d9IeH63ABonQIAAAQIEpirwb5KcM0uGqTaoLwIECBQBAZbrgACBLgSG5FuTvDjJo7toWJMECBAgQIBADwInJ/mtWfKVHprVIwECfQsIsPqev+4JdCMwJHdK8lNJ3tFN0xolQIAAAQIEpi7wiPJty7Pklqk3qj8CBAgIsFwDBAh0IzAkD1jchfWL3TStUQIECBAgQGCqAu9N8puz5AtTbVBfBAgQ2FtAgOV6IECgG4EhuXOS/5LkpG6a1igBAgQIECAwVYHHlD/TzJKbptqgvggQICDAcg0QINCtwOJh7i9J8tPdImicAAECBAgQGLvAO5M8eZZ8duyN2D8BAgRWK+AOrNVKeR0BApMQGJK7JPnlJH87iYY0QYAAAQIECPQo4O6rHqeuZwKdCwiwOr8AtE+gR4Eh+c4kRyb5tR771zMBAgQIECAwaoFTkzx1lpw76i5sngABAmsUEGCtEczLCRAYv8DiGwkfmeTE8XejAwIECBAgQKAzgd9I8lrfPNjZ1LVLgEAEWC4CAgS6FBiSeyd5SpI/7hJA0wQIECBAgMAYBY5K8oJZ8tUxbt6eCRAgsBEBAdZG9LyXAIHRCgzZE+AfnOT4JN882kZsnAABAgQIEOhFYEeSxyd53SwZemlanwQIEFgREGC5FggQ6FZgSO6Q5IlJ/rJbBI0TIECAAAECYxH470leNkt2jWXD9kmAAIHNFBBgbaamcxEgMDqBIfneJM9O8l9Ht3kbJkCAAAECBHoReGuSw2bJx3tpWJ8ECBDYV0CA5ZogQKB7gSF5QpKjk9yrewwABAgQIECAwLIJ3JjkabPkpcu2MfshQIDAdgoIsLZTWy0CBJZWYEgOTXJkkm9a2k3aGAECBAgQINCbQHnu1eGz5AW9Na5fAgQI7CsgwHJNECBAIHuehHqfJEckKc+XOAgKAQIECBAgQKCxwK1JTtz9x5Q/miWfb7wX5QkQINBcQIDVfAQ2QIDAsggMySMWz8N6WObfUuggQIAAAQIECLQSOL/8z7VZ8tpWG1CXAAECyyTgL2jLNA17IUCgucAwvwPrsCT3b74ZGyBAgAABAgR6FbgsyXNnyQt7BdA3AQIE9hUQYLkmCBAgsI/AkDw1ye8luR8cAgQIECBAgMA2C5Tw6vmz+RfMOAgQIEBgISDAcikQIEBgPwJD8vTMf3wbIAIECBAgQIDANgl8JcmLkvzZLLlpm2oqQ4AAgVEICLBGMSabJEBguwWG5C5J/iDJb2f+gHcHAQIECBAgQGArBS5P8pdJnjdLrt3KQs5NgACBMQoIsMY4NXsmQGBbBBbfTPi0JE9K8i3bUlQRAgQIECBAoEeBK5Icl+QFs6QEWQ4CBAgQ2EdAgOWSIECAwAEEFiFWCbDKc7HcieVqIUCAAAECBDZb4Mrdjyx4aZJjhFebTet8BAhMSUCANaVp6oUAgS0RGJI7J3nK4tsJ770lRZyUAAECBAgQ6FGghFdHJXn5LCl3YTkIECBA4HYEBFguDQIECKxCYBFiHVK+0nr37f33WMVbvIQAAQIECBAgcCCBaxbP2zx+ltyMigABAgQOLCDAcoUQIEBgDQJDUkKs5yVxJ9Ya3LyUAAECBAgQuI1AufPq92fJ8VwIECBAYHUCAqzVOXkVAQIEvi4wJL+W5MlJfhwLAQIECBAgQGCNAh9NcvQsefUa3+flBAgQ6FpAgNX1+DVPgMB6BYbkh5P84uLW//WexvsIECBAgACBvgRemOSkWfL+vtrWLQECBDYuIMDauKEzECDQqcCQfGuSn01yQqcE2iZAgAABAgRWL/DYJKfNki+v/i1eSYAAAQIrAgIs1wIBAgQ2IDAkd0ryC4tvKHzYBk7lrQQIECBAgMA0Bc5L8swkJ8+SndNsUVcECBDYegEB1tYbq0CAwMQFFiHW9yb5mSTPn3i72iNAgAABAgRWL/BHSU5J8gnh1erRvJIAAQL7ExBguS4IECCwCQJDUv57evfFRwqfk+Shm3BapyBAgAABAgTGKXD+4u7sdya5epYM42zDrgkQILA8AgKs5ZmFnRAgMAGBIblLkm9PcnD5hqEJtKQFAgQIECBAYG0Cv1s+LpjkS7PkprW91asJECBA4PYEBFiuDQIECGyBwJDcdfdHBv59kvKH2PKMLAcBAgQIECAwbYF3JPk/u+/GPmOW7Jh2q7ojQIDA9gsIsLbfXEUCBDoRGJI7Zn5H1q8keXaSB3bSujYJECBAgEBPAhcmOSLJSUlunCW39tS8XgkQILBdAgKs7ZJWhwCBbgUWz8cqYdbTFs/DuEe3GBonQIAAAQLTEbgmSXnu5Qt2f8vgrZ5zNZ3B6oQAgeUUEGAt51zsigCBCQvs/tbCI5P89uKh7yXYchAgQIAAAQLjECh3V12b5C92f6vg4ePYsl0SIEBgGgICrGnMURcECIxQYEgOS3JIkn+x+5kZ5ZlZ/ps8wjnaMgECBAhMXqB8g+CNSS5LcvxsfteVgwABAgS2WcBflrYZXDkCBAjsKzAkv5rkfye5X5JvSXInSgQIECBAgEBzgV1JrkhySZIXzZKXN9+RDRAgQKBjAQFWx8PXOgECyyUwJP86yV8m+Y5FkFXCLAcBAgQIECCwvQJXJrk8Sfnnk2bJJ7a3vGoECBAgsD8BAZbrggABAksoMCRP2v1Rhf+x+9sL77AItO61hNu0JQIECBAgMBWBq5JctPvbBMtdVyfMkqOn0pg+CBAgMBUBAdZUJqkPAgQmKTAkd8n8IbH/cfc3HR2U5AGLjxpOsl9NESBAgACBbRT4SpILk9yc5LTdH+E/cpbctI31lSJAgACBNQgIsNaA5aUECBBoKTAk90zymCQHL56TVR7+Xj5uePeW+1KbAAECBAiMROCGJF9YPIx9Z5JTd/8++tez+UcFHQQIECCw5AICrCUfkO0RIEBgfwJD8o1JfijJLyR5UOZ3apW7s8rPv4kaAQIECBAgkOsXHwu8OEkJr76c5E1JzpjN/91BgAABAiMSEGCNaFi2SoAAgdsTWNyd9WNJfjpJuTOrHPdP8pDFv/tmQ5cPAQIECExZ4NbFNwaem+SLi0bLRwTfm+T02fyh7A4CBAgQGLGAAGvEw7N1AgQIHEhgSL5/9zM9fjLJQ5PcefHa70zyXUm+nR4BAgQIEBixwJeS/FOS8xY9lI8Efj7J231r4IinausECBA4gIAAy+VBgACBjgSG5Ad2P/PjRxehVum8/D5QPnL4Pbu/denBe9291ZGKVgkQIEBgiQXKXVQXLH6UZ1UNi72en+Tjs+TMJd67rREgQIDAJgoIsDYR06kIECAwRoEhuUeShy1CrH+5Vw8l2PpXe/241xj7s2cCBAgQWHqBqxYPVy8PWC8/yrOrVo7y3Kpzknw6yeWzfw6wlr4pGyRAgACBzRUQYG2up7MRIEBgMgLD/M6sAwVY905SAq/7LT6SWF570GQANEKAAAECmyFwyyKUKh/5u2TxIPV9v/XvNgHW7LYB1mbswTkIECBAYAICAqwJDFELBAgQaCGwuHOrPDB+5Ud5aPy+D4svv8988+I15flb35Lk2xbBV4ttq0mAAAECmyNQ7oy6bPHg9PIsqmsW4dTKR/xWqpRnU5WHqpePAu75MZu/1kGAAAECBNYkIMBaE5cXEyBAgMBaBIb5M7bunuSeSe67+Hn5KGIJsg50lLu6yvu+NUl5/R2SPGjxMPpy19fd1rIPryVAgACB/0/gukXgdPPi4ee7kpQ7ob6a5NrF3VIHYrti8fry2kuT7Chhlo/4udIIECBAYKsEBFhbJeu8BAgQILBugWEeeH3DIqi66+Jh8/dJcsdFoHWXdZ98/pHHled5lbvBVgKy8s2MJTQrvzeWb2r0e+QGkL2VAIENCZS7mMq365V/loCofPxuJWAqdz2Vo4RN5SN56z1uWpzj1vJsqUWtEkKVYOvGWXL1ek/sfQQIECBAYCsE/OF8K1SdkwABAgSWVmCY371VwrFylOd8lZ+v3Cl258XPyx1ia/09cuWjlOUOsfKxyXKU54KVeuXXSihX7iRzECAwLYESLJWwp3ykroQ/5SHk5fja4tdK0FRCp/IsqNUeJbgqdziVf5Y7pEqIVX5+414POC8hU6nnIECAAAECXQis9Q/nXaBokgABAgQIrFVgSMqdYiUMK6FYCcLKUe7oKg+2/8bFr632991yp1n5+GQJxcodYuWusXLOEoSVXy9HCcfKN0g6CBBYm0B5/tJKyFQ+LleCpxISlbuZSthUntNUfr3cmbSaYyVkumERUpWwqRzlnOXb9Mo/d8zmd1A5CBAgQIAAgXUKrPYP0us8vbcRIECAAAECaxVYPDusfEyy/CgB2MpdYiUkWwnHSii2kW99LN8iWUKwlaOEZOU5ZStHeej+ykcty69992I/a23H6wnUBMpH2c7d60XlrqKLFncblV8udzKVcKkEQeUo4dO+32JXq7H3erkTqoRN5dgTLu11d1NZK/u5ybOc1kLqtQQIECBAYOsFBFhbb6wCAQIECBBYOoFh/o2RKx+lLPsrwdhKOFb+vazt/a2SJTDb6o9A/tt99rDiVoK876sglmeYlRBuNcfD1vER0dWcdztfU+76+dgqC5aPopVnKK0EQPt72ycXwc2+a+U9Z6+yznpfVu5MWgmUyjnKnU8lRFq5Y6l8i13595VvtysfnSu/5iBAgAABAgQ6EhBgdTRsrRIgQIAAgWUWGP75TrN9t1n+vLJ32La/NsrdaKu9I63cyTaFo9w5tJqjhD3lx4E+wlaerbQSEO19zmE2f+6SgwABAgQIECDQVECA1ZRfcQIECBAgQIAAAQIECBAgQIAAgZpjITF4AAAgAElEQVSAAKsmZJ0AAQIECBAgQIAAAQIECBAgQKCpgACrKb/iBAgQIECAAAECBAgQIECAAAECNQEBVk3IOgECBAgQIECAAAECBAgQIECAQFMBAVZTfsUJECBAgAABAgQIECBAgAABAgRqAgKsmpB1AgQIECBAgAABAgQIECBAgACBpgICrKb8ihMgQIAAAQIECBAgQIAAAQIECNQEBFg1IesECBAgQIAAAQIECBAgQIAAAQJNBQRYTfkVJ0CAAAECBAgQIECAAAECBAgQqAkIsGpC1gkQIECAAAECBAgQIECAAAECBJoKCLCa8itOgAABAgQIECBAgAABAgQIECBQExBg1YSsEyBAgAABAgQIECBAgAABAgQINBUQYDXlV5wAAQIECBAgQIAAAQIECBAgQKAmIMCqCVknQIAAAQIECBAgQIAAAQIECBBoKiDAasqvOAECBAgQIECAAAECBAgQIECAQE1AgFUTsk6AAAECBAgQIECAAAECBAgQINBUQIDVlF9xAgQIECBAgAABAgQIECBAgACBmoAAqyZknQABAgQIECBAgAABAgQIECBAoKmAAKspv+IECBAgQIAAAQIECBAgQIAAAQI1AQFWTcg6AQIECBAgQIAAAQIECBAgQIBAUwEBVlN+xQkQIECAAAECBAgQIECAAAECBGoCAqyakHUCBAgQIECAAAECBAgQIECAAIGmAgKspvyKEyBAgAABAgQIECBAgAABAgQI1AQEWDUh6wQIECBAgAABAgQIECBAgAABAk0FBFhN+RUnQIAAAQIECBAgQIAAAQIECBCoCQiwakLWCRAgQIAAAQIECBAgQIAAAQIEmgoIsJryK06AAAECBAgQIECAAAECBAgQIFATEGDVhKwTIECAAAECBAgQIECAAAECBAg0FRBgNeVXnAABAgQIECBAgAABAgQIECBAoCYgwKoJWSdAgAABAgQIECBAgAABAgQIEGgqIMBqyq84AQIECBAgQIAAAQIECBAgQIBATUCAVROyToAAAQIECBAgQIAAAQIECBAg0FRAgNWUX3ECBAgQIECAAAECBAgQIECAAIGagACrJmSdAAECBAgQIECAAAECBAgQIECgqYAAqym/4gQIECBAgAABAgQIECBAgAABAjUBAVZNyDoBAgQIECBAgAABAgQIECBAgEBTAQFWU37FCRAgQIAAAQIECBAgQIAAAQIEagICrJqQdQIECBAgQIAAAQIECBAgQIAAgaYCAqym/IoTIECAAAECBAgQIECAAAECBAjUBARYNSHrBAgQIECAAAECBAgQIECAAAECTQUEWE35FSdAgAABAgQIECBAgAABAgQIEKgJCLBqQtYJECBAgAABAgQIECBAgAABAgSaCgiwmvIrToAAAQIECBAgQIAAAQIECBAgUBMQYNWErBMgQIAAAQIECBAgQIAAAQIECDQVEGA15VecAAECBAgQIECAAAECBAgQIECgJiDAqglZJ0CAAAECBAgQIECAAAECBAgQaCogwGrKrzgBAgQIECBAgAABAgQIECBAgEBNQIBVE7JOgAABAgQIECBAgAABAgQIECDQVECA1ZRfcQIECBAgQIAAAQIECBAgQIAAgZqAAKsmZJ0AAQIECBAgQIAAAQIECBAgQKCpgACrKb/iBAgQIECAAAECBAgQIECAAAECNQEBVk3IOgECBAgQIECAAAECBAgQIECAQFMBAVZTfsUJECBAgAABAgQIECBAgAABAgRqAgKsmpB1AgQIECBAgAABAgQIECBAgACBpgICrKb8ihMgQIAAAQIECBAgQIAAAQIECNQEBFg1IesECBAgQIAAAQIECBAgQIAAAQJNBQRYTfkVJ0CAAAECBAgQIECAAAECBAgQqAkIsGpC1gkQIECAAAECBAgQIECAAAECBJoKCLCa8itOgAABAgQIECBAgAABAgQIECBQExBg1YSsEyBAgAABAgQIECBAgAABAgQINBUQYDXlV5wAAQIECBAgQIAAAQIECBAgQKAmIMCqCVknQIAAAQIECBAgQIAAAQIECBBoKiDAasqvOAECBAgQIECAAAECBAgQIECAQE1AgFUTsk6AAAECBAgQIECAAAECBAgQINBUQIDVlF9xAgQIECBAgAABAgQIECBAgACBmoAAqyZknQABAgQIECBAgAABAgQIECBAoKmAAKspv+IECBAgQIAAAQIECBAgQIAAAQI1AQFWTcg6AQIECBAgQIAAAQIECBAgQIBAUwEBVlN+xQkQIECAAAECBAgQIECAAAECBGoCAqyakHUCBAgQIECAAAECBAgQIECAAIGmAgKspvyKEyBAgAABAgQIECBAgAABAgQI1AQEWDUh6wQIECBAgAABAgQIECBAgAABAk0FBFhN+RUnQIAAAQIECBAgQIAAAQIECBCoCQiwakLWCRAgQIAAAQIECBAgQIAAAQIEmgoIsJryK06AAAECBAgQIECAAAECBAgQIFATEGDVhKwTIECAAAECBAgQIECAAAECBAg0FRBgNeVXnAABAgQIECBAgAABAgQIECBAoCYgwKoJWSdAgAABAgQIECBAgAABAgQIEGgqIMBqyq84AQIECBAgQIAAAQIECBAgQIBATUCAVROyToAAAQIECBAgQIAAAQIECBAg0FRAgNWUX3ECBAgQIECAAAECBAgQIECAAIGagACrJmSdAAECBAgQIECAAAECBAgQIECgqYAAqym/4gQIECBAgAABAgQIECBAgAABAjUBAVZNyDoBAgQIECBAgAABAgQIECBAgEBTAQFWU37FCRAgQIAAAQIECBAgQIAAAQIEagICrJqQdQIECBAgQIAAAQIECBAgQIAAgaYCAqym/IoTIECAAAECBAgQIECAAAECBAjUBARYNSHrBAgQIECAAAECBAgQIECAAAECTQUEWE35FSdAgAABAgQIECBAgAABAgQIEKgJCLBqQtYJECBAgAABAgQIECBAgAABAgSaCgiwmvIrToAAAQIECBAgQIAAAQIECBAgUBMQYNWErBMgQIAAAQIECBAgQIAAAQIECDQVEGA15VecAAECBAgQIECAAAECBAgQIECgJiDAqglZJ0CAAAECBAgQIECAAAECBAgQaCogwGrKrzgBAgQIECBAgAABAgQIECBAgEBNQIBVE7JOgAABAgQIECBAgAABAgQIECDQVECA1ZRfcQIECBAgQIAAAQIECBAgQIAAgZqAAKsmZJ0AAQIECBAgQIAAAQIECBAgQKCpgACrKb/iBAgQIECAAAECBAgQIECAAAECNQEBVk3IOgECBAgQIECAAAECBAgQIECAQFMBAVZTfsUJECBAgAABAgQIECBAgAABAgRqAgKsmpB1AgQIECBAgAABAgQIECBAgACBpgICrKb8ihMgQIAAAQIECBAgQIAAAQIECNQEBFg1IesECBAgQIAAAQIECBAgQIAAAQJNBQRYTfkVJ0CAAAECBAgQIECAAAECBAgQqAkIsGpC1gkQIECAAAECBAgQIECAAAECBJoKCLCa8itOgAABAgQIECBAgAABAgQIECBQExBg1YSsEyBAgAABAgQIECBAgAABAgQINBUQYDXlV5wAAQIECBAgQIAAAQIECBAgQKAmIMCqCVknQIAAAQIECBAgQIAAAQIECBBoKiDAasqvOAECBAgQIECAAAECBAgQIECAQE1AgFUTsk6AAAECBAgQIECAAAECBAgQINBUQIDVlF9xAgQIECBAgAABAgQIECBAgACBmoAAqyZknQABAgQIECBAgAABAgQIECBAoKmAAKspv+IECBAgQIAAAQIECBAgQIAAAQI1AQFWTcg6AQIECBAgQIAAAQIECBAgQIBAUwEBVlN+xQkQIECAAAECBAgQIECAAAECBGoCAqyakHUCBAgQIECAAAECBAgQIECAAIGmAgKspvyKEyBAgAABAgQIECBAgAABAgQI1AQEWDUh6wQIECBAgAABAgQIECBAgAABAk0FBFhN+RUnQIAAAQIECBAgQIAAAQIECBCoCQiwakLWCRAgQIAAAQIECBAgQIAAAQIEmgoIsJryK06AAAECBAgQIECAAAECBAgQIFATEGDVhKwTIECAAAECBAgQIECAAAECBAg0FRBgNeVXnAABAgQIECBAgAABAgQIECBAoCYgwKoJWSdAgAABAgQIECBAgAABAgQIEGgqIMBqyq84AQIECBAgQIAAAQIECBAgQIBATUCAVROyToAAAQIECBAgQIAAAQIECBAg0FRAgNWUX3ECBAgQIECAAAECBAgQIECAAIGagACrJmSdAAECBAgQIECAAAECBAgQIECgqYAAqym/4gQIECBAgAABAgQIECBAgAABAjUBAVZNyDoBAgQIECBAgAABAgQIECBAgEBTAQFWU37FCRAgQIAAAQIECBAgQIAAAQIEagICrJqQdQIECBAgQIAAAQIECBAgQIAAgaYCAqym/IoTIECAAAECBAgQIECAAAECBAjUBARYNSHrBAgQIECAAAECBAgQIECAAAECTQUEWE35FSdAgAABAgQIECBAgAABAgQIEKgJCLBqQtYJECBAgAABAgQIECBAgAABAgSaCgiwmvIrToAAAQIECBAgQIAAAQIECBAgUBMQYNWErBMgQIAAAQIECBAgQIAAAQIECDQVEGA15VecAAECBAgQIECAAAECBAgQIECgJiDAqglZJ0CAAAECBAgQIECAAAECBAgQaCogwGrKrzgBAgQIECBAgAABAgQIECBAgEBNQIBVE7JOgAABAgQIECBAgAABAgQIECDQVECA1ZRfcQIECBAgQIAAAQIECBAgQIAAgZqAAKsmZJ0AAQIECBAgQIAAAQIECBAgQKCpgACrKb/iBAgQIECAAAECBAgQIECAAAECNQEBVk3IOgECBAgQIECAAAECBAgQIECAQFMBAVZTfsUJECBAgAABAgQIECBAgAABAgRqAgKsmpB1AgQIECBAgAABAgQIECBAgACBpgICrKb8ihMgQIAAAQIECBAgQIAAAQIECNQEBFg1IesECBAgQIAAAQIECBAgQIAAAQJNBQRYTfkVJ0CAAAECBAgQIECAAAECBAgQqAkIsGpC1gkQIECAAAECBAgQIECAAAECBJoKCLCa8itOgAABAgQIECBAgAABAgQIECBQExBg1YSsEyBAgAABAgQIECBAgAABAgQINBUQYDXlV5wAAQIECBAgQIAAAQIECBAgQKAmIMCqCVknQIAAAQIECBAgQIAAAQIECBBoKiDAasqvOAECBAgQIECAAAECBAgQIECAQE1AgFUTsk6AAAECBAgQIECAAAECBAgQINBUQIDVlF9xAgQIECBAgAABAgQIECBAgACBmoAAqyZknQABAgQIECBAgAABAgQIECBAoKmAAKspv+IECBAgQIAAAQIECBAgQIAAAQI1AQFWTcg6AQIECBAgQIAAAQIECBAgQIBAUwEBVlN+xQkQIECAAAECBAgQIECAAAECBGoCAqyakHUCBAgQIECAAAECBAgQIECAAIGmAgKspvyKEyBAgAABAgQIECBAgAABAgQI1AQEWDUh6wQIECBAgAABAgQIECBAgAABAk0FBFhN+RUnQIAAAQIECBAgQIAAAQIECBCoCQiwakLWCRAgQIAAAQIECBAgQIAAAQIEmgoIsJryK06AAAECBAgQIECAAAECBAgQIFATEGDVhKwTIECAAAECBAgQIECAAAECBAg0FRBgNeVXnAABAgQIECBAgAABAgQIECBAoCYgwKoJWSdAgAABAgQIECBAgAABAgQIEGgqIMBqyq84AQIECBAgQIAAAQIECBAgQIBATUCAVROyToAAAQIECBAgQIAAAQIECBAg0FRAgNWUX3ECBAgQIECAAAECBAgQIECAAIGagACrJmSdAAECBAgQIECAAAECBAgQIECgqYAAqym/4gQIECBAgAABAgQIECBAgAABAjUBAVZNyDoBAgQIECBAgAABAgQIECBAgEBTAQFWU37FCRAgQIAAAQIECBAgQIAAAQIEagICrJqQdQIECBAgQIAAAQIECBAgQIAAgaYCAqym/IoTIECAAAECBAgQIECAAAECBAjUBARYNSHrBAgQIECAAAECBAgQIECAAAECTQUEWE35FSdAgAABAgQIECBAgAABAgQIEKgJCLBqQtYJECBAgAABAgQIECBAgAABAgSaCgiwmvIrToAAAQIECBAgQIAAAQIECBAgUBMQYNWErBMgQIAAAQIECBAgQIAAAQIECDQVEGA15VecAAECBAgQIECAAAECBAgQIECgJiDAqglZJ0CAAAECBAgQIECAAAECBAgQaCogwGrKrzgBAgQIECBAgAABAgQIECBAgEBNQIBVE7JOgAABAgQIECBAgAABAgQIECDQVECA1ZRfcQIECBAgQIAAAQIECBAgQIAAgZqAAKsmZJ0AAQIECBAgQIAAAQIECBAgQKCpgACrKb/iBAgQIECAAAECBAgQIECAAAECNQEBVk3IOgECBAgQIECAAAECBAgQIECAQFMBAVZTfsUJECBAgAABAgQIECBAgAABAgRqAgKsmpB1AgQIECBAgAABAgQIECBAgACBpgICrKb8ihMgQIAAAQIECBAgQIAAAQIECNQEBFg1IesECBAgQIAAAQIECBAgQIAAAQJNBQRYTfkVJ0CAAAECBAgQIECAAAECBAgQqAkIsGpC1gkQIECAAAECBAgQIECAAAECBJoKCLCa8itOgAABAgQIECBAgAABAgQIECBQExBg1YSsEyBAgAABAgQIECBAgAABAgQINBUQYDXlV5wAAQIECBAgQIAAAQIECBAgQKAmIMCqCVknQIAAAQIECBAgQIAAAQIECBBoKiDAasqvOAECBAgQIECAAAECBAgQIECAQE1AgFUTsk6AAAECBAgQIECAAAECBAgQINBUQIDVlF9xAgQIECBAgAABAgQIECBAgACBmoAAqyZknQABAgQIECBAgAABAgQIECBAoKmAAKspv+IECBAgQIAAAQIECBAgQIAAAQI1AQFWTcg6AQIECBAgQIAAAQIECBAgQIBAUwEBVlN+xQkQIECAAAECBAgQIECAAAECBGoCAqyakHUCBAgQIECAAAECBAgQIECAAIGmAgKspvyKEyBAgAABAgQIECBAgAABAgQI1AQEWDUh6wQIECBAgAABAgQIECBAgAABAk0FBFhN+RUnQIAAAQIECBAgQIAAAQIECBCoCQiwakLWCRAgQIAAAQIECBAgQIAAAQIEmgoIsJryK06AAAECBAgQIECAAAECBAgQIFATEGDVhKwTIECAAAECBAgQIECAAAECBAg0FRBgNeVXnAABAgQIECBAgAABAgQIECBAoCYgwKoJWSdAgAABAgQIECBAgAABAgQIEGgqIMBqyq84AQIECBAgQIAAAQIECBAgQIBATUCAVROyToAAAQIECBAgQIAAAQIECBAg0FRAgNWUX3ECBAgQIECAAAECBAgQIECAAIGagACrJmSdAAECBAgQIECAAAECBAgQIECgqYAAqym/4gQIECBAgAABAgQIECBAgAABAjUBAVZNyDoBAgQIECBAgAABAgQIECBAgEBTAQFWU37FCRAgQIAAAQIECBAgQIAAAQIEagICrJqQdQIECBAgQIAAAQIECBAgQIAAgaYCAqym/IoTIECAAAECBAgQIECAAAECBAjUBARYNSHrBAgQIECAAAECBAgQIECAAAECTQUEWE35FSdAgAABAgQIECBAgAABAgQIEKgJCLBqQtYJECBAgAABAgQIECBAgAABAgSaCgiwmvIrToAAAQIECBAgQIAAAQIECBAgUBMQYNWErBMgQIAAAQIECBAgQIAAAQIECDQVEGA15VecAAECBAgQIECAAAECBAgQIECgJiDAqglZJ0CAAAECBAgQIECAAAECBAgQaCogwGrKrzgBAgQIECBAgAABAgQIECBAgEBNQIBVE7JOgAABAgQIECBAgAABAgQIECDQVECA1ZRfcQIECBAgQIAAAQIECBAgQIAAgZqAAKsmZJ0AAQIECBAgQIAAAQIECBAgQKCpgACrKb/iBAgQIECAAAECBAgQIECAAAECNQEBVk3IOgECBAgQIECAAAECBAgQIECAQFMBAVZTfsUJECBAgAABAgQIECBAgAABAgRqAgKsmpB1AgQIECBAgAABAgQIECBAgACBpgICrKb8ihMgQIAAAQIECBAgQIAAAQIECNQEBFg1IesECBAgQIAAAQIECBAgQIAAAQJNBQRYTfkVJ0CAAAECBAgQIECAAAECBAgQqAkIsGpC1gkQIECAAAECBAgQIECAAAECBJoKCLCa8itOgAABAgQIECBAgAABAgQIECBQExBg1YSsEyBAgAABAgQIECBAgAABAgQINBUQYDXlV5wAAQIECBAgQIAAAQIECBAgQKAmIMCqCVknQIAAAQIECBAgQIAAAQIECBBoKiDAasqvOAECBAgQIECAAAECBAgQIECAQE1AgFUTsk6AAAECBAgQIECAAAECBAgQINBUQIDVlF9xAgQIECBAgAABAgQIECBAgACBmoAAqyZknQABAgQIECBAgAABAgQIECBAoKmAAKspv+IECBAgQIAAAQIECBAgQIAAAQI1AQFWTcg6AQIECBAgQIAAAQIECBAgQIBAUwEBVlN+xQkQIECAAAECBAgQIECAAAECBGoCAqyakHUCBAgQIECAAAECBAgQIECAAIGmAgKspvyKEyBAgAABAgQIECBAgAABAgQI1AQEWDUh6wQIECBAgAABAgQIECBAgAABAk0FBFhN+RUnQIAAAQIECBAgQIAAAQIECBCoCQiwakLWCRAgQIAAAQIECBAgQIAAAQIEmgoIsJryK06AAAECBAgQIECAAAECBAgQIFATEGDVhKwTIECAAAECBAgQIECAAAECBAg0FRBgNeVXnAABAgQIECBAgAABAgQIECBAoCYgwKoJWSdAgAABAgQIECBAgAABAgQIEGgqIMBqyq84AQIECBAgQIAAAQIECBAgQIBATUCAVROyToAAAQIECBAgQIAAAQIECBAg0FRAgNWUX3ECBAgQIECAAAECBAgQIECAAIGagACrJmSdAAECBAgQIECAAAECBAgQIECgqYAAqym/4gQIECBAgAABAgQIECBAgAABAjUBAVZNyDoBAgQIECBAgAABAgQIECBAgEBTAQFWU37FCRAgQIAAAQIECBAgQIAAAQIEagICrJqQdQIECBAgQIAAAQIECBAgQIAAgaYCAqym/IoTIECAAAECBAgQIECAAAECBAjUBARYNSHrBAgQIECAAAECBAgQIECAAAECTQUEWE35FSdAgAABAgQIECBAgAABAgQIEKgJCLBqQtYJECBAgAABAgQIECBAgAABAgSaCgiwmvIrToAAAQIECBAgQIAAAQIECBAgUBMQYNWErBMgQIAAAQIECBAgQIAAAQIECDQVEGA15VecAAECBAgQIECAAAECBAgQIECgJiDAqglZJ0CAAAECBAgQIECAAAECBAgQaCogwGrKrzgBAgQIECBAgAABAgQIECBAgEBNQIBVE7JOgAABAgQIECBAgAABAgQIECDQVECA1ZRfcQIECBAgQIAAAQIECBAgQIAAgZqAAKsmZJ0AAQIECBAgQIAAAQIECBAgQKCpgACrKb/iBAgQIECAAAECBAgQIECAAAECNQEBVk3IOgECBAgQIECAAAECBAgQIECAQFMBAVZTfsUJECBAgAABAgQIECBAgAABAgRqAgKsmpB1AgQIECBAgAABAgQIECBAgACBpgICrKb8ihMgQIAAAQIECBAgQIAAAQIECNQEBFg1IesECBAgQIAAAQIECBAgQIAAAQJNBQRYTfkVJ0CAAAECBAgQIECAAAECBAgQqAkIsGpC1gkQIECAAAECBAgQIECAAAECBJoKCLCa8itOgAABAgQIECBAgAABAgQIECBQExBg1YSsEyBAgAABAgQIECBAgAABAgQINBUQYDXlV5wAAQIECBAgQIAAAQIECBAgQKAmIMCqCVknQIAAAQIECBAgQIAAAQIECBBoKiDAasqvOAECBAgQIECAAAECBAgQIECAQE1AgFUTsk6AAAECBAgQIECAAAECBAgQINBUQIDVlF9xAgQIECBAgAABAgQIECBAgACBmoAAqyZknQABAgQIECBAgAABAgQIECBAoKmAAKspv+IECBAgQIAAAQIECBAgQIAAAQI1AQFWTcg6AQIECBAgQIAAAQIECBAgQIBAUwEBVlN+xQkQIECAAAECBAgQIECAAAECBGoCAqyakHUCBAgQIECAAAECBAgQIECAAIGmAgKspvyKEyBAgAABAgQIECBAgAABAgQI1AQEWDUh6wQIECBAgAABAgQIECBAgAABAk0FBFhN+RUnQIAAAQIECBAgQIAAAQIECBCoCQiwakLWCRAgQIAAAQIECBAgQIAAAQIEmgoIsJryK06AAAECBAgQIECAAAECBAgQIFATEGDVhKwTIECAAAECBAgQIECAAAECBAg0FRBgNeVXnAABAgQIECBAgAABAgQIECBAoCYgwKoJWSdAgAABAgQIECBAgAABAgQIEGgqIMBqyq84AQIECBAgQIAAAQIECBAgQIBATUCAVROyToAAAQIECBAgQIAAAQIECBAg0FRAgNWUX3ECBAgQIECAAAECBAgQIECAAIGagACrJmSdAAECBAgQIECAAAECBAgQIECgqYAAqym/4gQIECBAgAABAgQIECBAgAABAjUBAVZNyDoBAgQIECBAgAABAgQIECBAgEBTAQFWU37FCRAgQIAAAQIECBAgQIAAAQIEagICrJqQdQIECBAgQIAAAQIECBAgQIAAgaYCAqym/IoTIECAAAECBAgQIECAAAECBAjUBARYNSHrBAgQIECAAAECBAgQIECAADGcSUsAAAXRSURBVAECTQUEWE35FSdAgAABAgQIECBAgAABAgQIEKgJCLBqQtYJECBAgAABAgQIECBAgAABAgSaCgiwmvIrToAAAQIECBAgQIAAAQIECBAgUBMQYNWErBMgQIAAAQIECBAgQIAAAQIECDQVEGA15VecAAECBAgQIECAAAECBAgQIECgJiDAqglZJ0CAAAECBAgQIECAAAECBAgQaCogwGrKrzgBAgQIECBAgAABAgQIECBAgEBNQIBVE7JOgAABAgQIECBAgAABAgQIECDQVECA1ZRfcQIECBAgQIAAAQIECBAgQIAAgZqAAKsmZJ0AAQIECBAgQIAAAQIECBAgQKCpgACrKb/iBAgQIECAAAECBAgQIECAAAECNQEBVk3IOgECBAgQIECAAAECBAgQIECAQFMBAVZTfsUJECBAgAABAgQIECBAgAABAgRqAgKsmpB1AgQIECBAgAABAgQIECBAgACBpgICrKb8ihMgQIAAAQIECBAgQIAAAQIECNQEBFg1IesECBAgQIAAAQIECBAgQIAAAQJNBQRYTfkVJ0CAAAECBAgQIECAAAECBAgQqAkIsGpC1gkQIECAAAECBAgQIECAAAECBJoKCLCa8itOgAABAgQIECBAgAABAgQIECBQExBg1YSsEyBAgAABAgQIECBAgAABAgQINBUQYDXlV5wAAQIECBAgQIAAAQIECBAgQKAmIMCqCVknQIAAAQIECBAgQIAAAQIECBBoKiDAasqvOAECBAgQIECAAAECBAgQIECAQE1AgFUTsk6AAAECBAgQIECAAAECBAgQINBUQIDVlF9xAgQIECBAgAABAgQIECBAgACBmoAAqyZknQABAgQIECBAgAABAgQIECBAoKmAAKspv+IECBAgQIAAAQIECBAgQIAAAQI1AQFWTcg6AQIECBAgQIAAAQIECBAgQIBAUwEBVlN+xQkQIECAAAECBAgQIECAAAECBGoCAqyakHUCBAgQIECAAAECBAgQIECAAIGmAgKspvyKEyBAgAABAgQIECBAgAABAgQI1AQEWDUh6wQIECBAgAABAgQIECBAgAABAk0FBFhN+RUnQIAAAQIECBAgQIAAAQIECBCoCQiwakLWCRAgQIAAAQIECBAgQIAAAQIEmgoIsJryK06AAAECBAgQIECAAAECBAgQIFATEGDVhKwTIECAAAECBAgQIECAAAECBAg0FRBgNeVXnAABAgQIECBAgAABAgQIECBAoCYgwKoJWSdAgAABAgQIECBAgAABAgQIEGgqIMBqyq84AQIECBAgQIAAAQIECBAgQIBATUCAVROyToAAAQIECBAgQIAAAQIECBAg0FRAgNWUX3ECBAgQIECAAAECBAgQIECAAIGagACrJmSdAAECBAgQIECAAAECBAgQIECgqYAAqym/4gQIECBAgAABAgQIECBAgAABAjUBAVZNyDoBAgQIECBAgAABAgQIECBAgEBTAQFWU37FCRAgQIAAAQIECBAgQIAAAQIEagICrJqQdQIECBAgQIAAAQIECBAgQIAAgaYCAqym/IoTIECAAAECBAgQIECAAAECBAjUBARYNSHrBAgQIECAAAECBAgQIECAAAECTQUEWE35FSdAgAABAgQIECBAgAABAgQIEKgJCLBqQtYJECBAgAABAgQIECBAgAABAgSaCgiwmvIrToAAAQIECBAgQIAAAQIECBAgUBMQYNWErBMgQIAAAQIECBAgQIAAAQIECDQVEGA15VecAAECBAgQIECAAAECBAgQIECgJiDAqglZJ0CAAAECBAgQIECAAAECBAgQaCogwGrKrzgBAgQIECBAgAABAgQIECBAgEBNQIBVE7JOgAABAgQIECBAgAABAgQIECDQVECA1ZRfcQIECBAgQIAAAQIECBAgQIAAgZqAAKsmZJ0AAQIECBAgQIAAAQIECBAgQKCpgACrKb/iBAgQIECAAAECBAgQIECAAAECNYH/B8HswnQpaiWCAAAAAElFTkSuQmCC;clipPath=inset(31.67% 24.33% 32% 24.33%);" vertex="1" parent="pTRy4IFYy6zHv_2fNpIq-87">
          <mxGeometry x="65.3583143507973" y="1.5561873410145162" width="71.27168564920277" height="50.44261332574034" as="geometry" />
        </mxCell>
        <mxCell id="pTRy4IFYy6zHv_2fNpIq-89" style="edgeStyle=orthogonalEdgeStyle;shape=connector;rounded=0;orthogonalLoop=1;jettySize=auto;html=1;strokeColor=#2D9BF0;strokeWidth=2;align=center;verticalAlign=middle;fontFamily=Helvetica;fontSize=11;fontColor=default;labelBackgroundColor=default;endArrow=classic;flowAnimation=1;" edge="1" parent="1">
          <mxGeometry relative="1" as="geometry">
            <mxPoint x="1426.76" y="881" as="targetPoint" />
            <mxPoint x="1426.76" y="831" as="sourcePoint" />
          </mxGeometry>
        </mxCell>
        <mxCell id="pTRy4IFYy6zHv_2fNpIq-90" style="edgeStyle=orthogonalEdgeStyle;shape=connector;rounded=0;orthogonalLoop=1;jettySize=auto;html=1;strokeColor=#2D9BF0;strokeWidth=2;align=center;verticalAlign=middle;fontFamily=Helvetica;fontSize=11;fontColor=default;labelBackgroundColor=default;endArrow=classic;flowAnimation=1;" edge="1" parent="1">
          <mxGeometry relative="1" as="geometry">
            <mxPoint x="1117" y="926" as="targetPoint" />
            <mxPoint x="1382" y="926" as="sourcePoint" />
          </mxGeometry>
        </mxCell>
        <mxCell id="pTRy4IFYy6zHv_2fNpIq-91" style="shape=connector;rounded=0;orthogonalLoop=1;jettySize=auto;html=1;strokeColor=#2D9BF0;strokeWidth=2;align=center;verticalAlign=middle;fontFamily=Helvetica;fontSize=11;fontColor=default;labelBackgroundColor=default;endArrow=classic;flowAnimation=1;arcSize=5;anchorPointDirection=1;fixDash=0;bendable=1;shadow=0;noJump=0;orthogonal=0;enumerate=0;edgeStyle=orthogonalEdgeStyle;elbow=vertical;curved=1;" edge="1" parent="1">
          <mxGeometry relative="1" as="geometry">
            <mxPoint x="638" y="682" as="targetPoint" />
            <mxPoint x="956.3699999999999" y="926.8800000000001" as="sourcePoint" />
          </mxGeometry>
        </mxCell>
        <mxCell id="pTRy4IFYy6zHv_2fNpIq-104" value="" style="endArrow=classic;html=1;rounded=0;strokeColor=#8FD14F;strokeWidth=2;align=center;verticalAlign=middle;fontFamily=Helvetica;fontSize=11;fontColor=default;labelBackgroundColor=default;edgeStyle=orthogonalEdgeStyle;flowAnimation=1;curved=1;entryX=0;entryY=0.5;entryDx=0;entryDy=0;" edge="1" parent="1" target="pTRy4IFYy6zHv_2fNpIq-106">
          <mxGeometry width="50" height="50" relative="1" as="geometry">
            <mxPoint x="639" y="596.1" as="sourcePoint" />
            <mxPoint x="1386.34" y="400.1" as="targetPoint" />
            <Array as="points">
              <mxPoint x="639" y="401" />
            </Array>
          </mxGeometry>
        </mxCell>
        <mxCell id="pTRy4IFYy6zHv_2fNpIq-108" style="edgeStyle=orthogonalEdgeStyle;shape=connector;rounded=0;orthogonalLoop=1;jettySize=auto;html=1;strokeColor=#8FD14F;strokeWidth=2;align=center;verticalAlign=middle;fontFamily=Helvetica;fontSize=11;fontColor=default;labelBackgroundColor=default;endArrow=classic;flowAnimation=1;curved=1;" edge="1" parent="1">
          <mxGeometry relative="1" as="geometry">
            <mxPoint x="2239" y="571" as="targetPoint" />
            <mxPoint x="1522" y="400" as="sourcePoint" />
          </mxGeometry>
        </mxCell>
        <mxCell id="pTRy4IFYy6zHv_2fNpIq-106" value="" style="shape=image;verticalLabelPosition=bottom;labelBackgroundColor=default;verticalAlign=top;aspect=fixed;imageAspect=0;image=https://blog.langchain.dev/content/images/2023/02/langchain-chroma-light.png;clipPath=inset(22.38% 50.33% 11.9% 15.67%);" vertex="1" parent="1">
          <mxGeometry x="1372.0000000000002" y="355" width="136" height="92" as="geometry" />
        </mxCell>
        <mxCell id="pTRy4IFYy6zHv_2fNpIq-110" style="edgeStyle=orthogonalEdgeStyle;shape=connector;rounded=0;orthogonalLoop=1;jettySize=auto;html=1;strokeColor=#8FD14F;strokeWidth=2;align=center;verticalAlign=middle;fontFamily=Helvetica;fontSize=11;fontColor=default;labelBackgroundColor=default;endArrow=classic;flowAnimation=1;" edge="1" parent="1">
          <mxGeometry relative="1" as="geometry">
            <mxPoint x="2103.3695844184026" y="635.51" as="targetPoint" />
            <mxPoint x="2209.74" y="636.01" as="sourcePoint" />
          </mxGeometry>
        </mxCell>
        <mxCell id="pTRy4IFYy6zHv_2fNpIq-111" value="" style="group" connectable="0" vertex="1" parent="1">
          <mxGeometry x="2209.37" y="589" width="81.66" height="93" as="geometry" />
        </mxCell>
        <mxCell id="pTRy4IFYy6zHv_2fNpIq-24" value="" style="shape=image;html=1;verticalAlign=top;verticalLabelPosition=bottom;labelBackgroundColor=#ffffff;imageAspect=0;aspect=fixed;image=https://cdn1.iconfinder.com/data/icons/bootstrap-vol-3/16/filetype-pdf-128.png" vertex="1" parent="pTRy4IFYy6zHv_2fNpIq-111">
          <mxGeometry x="44.2325" y="47.63414634146342" width="37.42395866081049" height="37.42395866081049" as="geometry" />
        </mxCell>
        <mxCell id="pTRy4IFYy6zHv_2fNpIq-76" value="" style="shape=image;html=1;verticalAlign=top;verticalLabelPosition=bottom;labelBackgroundColor=#ffffff;imageAspect=0;aspect=fixed;image=https://cdn1.iconfinder.com/data/icons/bootstrap-vol-3/16/filetype-pdf-128.png" vertex="1" parent="pTRy4IFYy6zHv_2fNpIq-111">
          <mxGeometry y="55.57317073170732" width="37.42395866081049" height="37.42395866081049" as="geometry" />
        </mxCell>
        <mxCell id="pTRy4IFYy6zHv_2fNpIq-77" value="" style="shape=image;html=1;verticalAlign=top;verticalLabelPosition=bottom;labelBackgroundColor=#ffffff;imageAspect=0;aspect=fixed;image=https://cdn1.iconfinder.com/data/icons/bootstrap-vol-3/16/filetype-pdf-128.png" vertex="1" parent="pTRy4IFYy6zHv_2fNpIq-111">
          <mxGeometry x="15.878333333333334" width="37.42395866081049" height="37.42395866081049" as="geometry" />
        </mxCell>
        <mxCell id="pTRy4IFYy6zHv_2fNpIq-112" style="edgeStyle=orthogonalEdgeStyle;rounded=0;orthogonalLoop=1;jettySize=auto;html=1;strokeWidth=2;flowAnimation=1;strokeColor=#999999;flowAnimationDirection=normal;startArrow=none;startFill=0;endArrow=classic;endFill=1;" edge="1" parent="1">
          <mxGeometry relative="1" as="geometry">
            <mxPoint x="587.48" y="434" as="sourcePoint" />
            <mxPoint x="587" y="573" as="targetPoint" />
          </mxGeometry>
        </mxCell>
        <mxCell id="pTRy4IFYy6zHv_2fNpIq-113" value="" style="shape=image;verticalLabelPosition=bottom;labelBackgroundColor=default;verticalAlign=top;aspect=fixed;imageAspect=0;image=https://static.thenounproject.com/png/963313-200.png;clipPath=inset(6.5% 12.5% 8% 12.5%);" vertex="1" parent="1">
          <mxGeometry x="554.42" y="111" width="65.79" height="75" as="geometry" />
        </mxCell>
        <mxCell id="pTRy4IFYy6zHv_2fNpIq-114" style="edgeStyle=orthogonalEdgeStyle;rounded=0;orthogonalLoop=1;jettySize=auto;html=1;strokeWidth=2;flowAnimation=1;strokeColor=#999999;flowAnimationDirection=normal;startArrow=none;startFill=0;endArrow=classic;endFill=1;" edge="1" parent="1">
          <mxGeometry relative="1" as="geometry">
            <mxPoint x="587.3000000000001" y="192" as="sourcePoint" />
            <mxPoint x="586.82" y="331" as="targetPoint" />
          </mxGeometry>
        </mxCell>
        <mxCell id="pTRy4IFYy6zHv_2fNpIq-115" value="" style="shape=image;verticalLabelPosition=bottom;labelBackgroundColor=default;verticalAlign=top;aspect=fixed;imageAspect=0;image=https://cdn-icons-png.flaticon.com/512/5602/5602732.png;" vertex="1" parent="1">
          <mxGeometry x="744" y="113.5" width="70" height="70" as="geometry" />
        </mxCell>
        <mxCell id="pTRy4IFYy6zHv_2fNpIq-116" style="edgeStyle=orthogonalEdgeStyle;shape=connector;rounded=0;orthogonalLoop=1;jettySize=auto;html=1;strokeColor=#999999;strokeWidth=2;align=center;verticalAlign=middle;fontFamily=Helvetica;fontSize=11;fontColor=default;labelBackgroundColor=default;endArrow=classic;flowAnimation=1;startArrow=classic;startFill=1;" edge="1" parent="1">
          <mxGeometry relative="1" as="geometry">
            <mxPoint x="628.6633113386823" y="150.20000000000005" as="targetPoint" />
            <mxPoint x="736.66" y="150" as="sourcePoint" />
          </mxGeometry>
        </mxCell>
        <mxCell id="pTRy4IFYy6zHv_2fNpIq-117" value="&lt;font&gt;BeautifulSoup&lt;/font&gt;" style="text;html=1;align=center;verticalAlign=middle;whiteSpace=wrap;rounded=0;fontFamily=Tahoma;fontSize=10;fontColor=default;labelBackgroundColor=default;" vertex="1" parent="1">
          <mxGeometry x="639" y="127" width="86" height="19" as="geometry" />
        </mxCell>
        <mxCell id="pTRy4IFYy6zHv_2fNpIq-118" value="&lt;font&gt;Containerize&lt;/font&gt;" style="text;html=1;align=left;verticalAlign=middle;whiteSpace=wrap;rounded=0;fontFamily=Tahoma;fontSize=10;fontColor=default;labelBackgroundColor=default;" vertex="1" parent="1">
          <mxGeometry x="594" y="249" width="86" height="19" as="geometry" />
        </mxCell>
        <mxCell id="pTRy4IFYy6zHv_2fNpIq-119" value="&lt;font&gt;Deploy&lt;/font&gt;" style="text;html=1;align=left;verticalAlign=middle;whiteSpace=wrap;rounded=0;fontFamily=Tahoma;fontSize=10;fontColor=default;labelBackgroundColor=default;" vertex="1" parent="1">
          <mxGeometry x="594" y="491" width="86" height="19" as="geometry" />
        </mxCell>
        <mxCell id="pTRy4IFYy6zHv_2fNpIq-120" value="&lt;font&gt;Slack Bolt&lt;/font&gt;" style="text;html=1;align=left;verticalAlign=middle;whiteSpace=wrap;rounded=0;fontFamily=Tahoma;fontSize=10;fontColor=default;labelBackgroundColor=default;" vertex="1" parent="1">
          <mxGeometry x="592" y="736" width="86" height="19" as="geometry" />
        </mxCell>
        <mxCell id="pTRy4IFYy6zHv_2fNpIq-121" value="&lt;font&gt;Text Channel&lt;/font&gt;" style="text;html=1;align=left;verticalAlign=middle;whiteSpace=wrap;rounded=0;fontFamily=Tahoma;fontSize=10;fontColor=default;labelBackgroundColor=default;" vertex="1" parent="1">
          <mxGeometry x="594" y="991" width="86" height="19" as="geometry" />
        </mxCell>
        <mxCell id="pTRy4IFYy6zHv_2fNpIq-122" style="edgeStyle=orthogonalEdgeStyle;rounded=0;orthogonalLoop=1;jettySize=auto;html=1;strokeWidth=2;flowAnimation=1;strokeColor=#2D9BF0;startArrow=classic;startFill=1;endArrow=classic;endFill=1;" edge="1" parent="1">
          <mxGeometry relative="1" as="geometry">
            <mxPoint x="1007.0000000000001" y="976" as="sourcePoint" />
            <mxPoint x="1007.08" y="1023" as="targetPoint" />
          </mxGeometry>
        </mxCell>
        <mxCell id="pTRy4IFYy6zHv_2fNpIq-123" style="edgeStyle=orthogonalEdgeStyle;rounded=0;orthogonalLoop=1;jettySize=auto;html=1;strokeWidth=2;flowAnimation=1;strokeColor=#2D9BF0;startArrow=classic;startFill=1;endArrow=classic;endFill=1;" edge="1" parent="1">
          <mxGeometry relative="1" as="geometry">
            <mxPoint x="1060" y="975" as="sourcePoint" />
            <mxPoint x="1060.08" y="1022" as="targetPoint" />
          </mxGeometry>
        </mxCell>
        <mxCell id="pTRy4IFYy6zHv_2fNpIq-126" value="" style="group" connectable="0" vertex="1" parent="1">
          <mxGeometry x="611" y="1065" width="92" height="40" as="geometry" />
        </mxCell>
        <mxCell id="pTRy4IFYy6zHv_2fNpIq-124" value="" style="whiteSpace=wrap;html=1;shape=mxgraph.basic.oval_callout;fontFamily=Helvetica;fontSize=11;fontColor=default;labelBackgroundColor=default;" vertex="1" parent="pTRy4IFYy6zHv_2fNpIq-126">
          <mxGeometry width="92" height="40" as="geometry" />
        </mxCell>
        <mxCell id="pTRy4IFYy6zHv_2fNpIq-125" value="&lt;font style=&quot;font-size: 8px;&quot; face=&quot;Tahoma&quot;&gt;@agent ...&lt;/font&gt;" style="text;html=1;align=center;verticalAlign=middle;whiteSpace=wrap;rounded=0;fontFamily=Helvetica;fontSize=10;fontColor=default;labelBackgroundColor=default;" vertex="1" parent="pTRy4IFYy6zHv_2fNpIq-126">
          <mxGeometry x="18.400000000000002" y="3" width="55.2" height="30" as="geometry" />
        </mxCell>
        <mxCell id="DZEwSHL96tI2QK3NsJ8_-1" style="edgeStyle=orthogonalEdgeStyle;rounded=0;orthogonalLoop=1;jettySize=auto;html=1;strokeWidth=2;flowAnimation=1;strokeColor=#2D9BF0;startArrow=classic;startFill=1;endArrow=classic;endFill=1;" edge="1" parent="1">
          <mxGeometry relative="1" as="geometry">
            <mxPoint x="586.97" y="930" as="sourcePoint" />
            <mxPoint x="586.09" y="1069" as="targetPoint" />
          </mxGeometry>
        </mxCell>
      </root>
    </mxGraphModel>
  </diagram>
</mxfile>
